<svg width="16" height="16" viewBox="0 0 16 16" fill="none" xmlns="http://www.w3.org/2000/svg">
<g opacity="0.66" clip-path="url(#clip0_10_63)">
<path d="M14.4099 1.57217C12.4345 -0.403613 9.21969 -0.403613 7.24391 1.57217C5.7604 3.05567 5.34962 5.28295 6.18524 7.18778L0.351506 13.0215C0.291618 13.0814 0.255439 13.1608 0.249468 13.2449L0.088771 15.518C0.0815704 15.6195 0.118803 15.7193 0.190809 15.7913C0.256844 15.8575 0.346237 15.8942 0.439143 15.8942C0.447397 15.8942 0.455652 15.8939 0.463906 15.8933L2.73702 15.7326C2.82132 15.7267 2.90088 15.6905 2.96059 15.6306L3.65045 14.9406C3.70384 14.8872 3.73843 14.8183 3.7495 14.7437L3.9548 13.3557L5.33996 13.1504C5.4931 13.1278 5.61323 13.0076 5.63589 12.8543L5.84102 11.4693L7.22898 11.264C7.30362 11.253 7.37264 11.2182 7.42603 11.165L8.79415 9.79686C10.6995 10.6325 12.9263 10.2217 14.4098 8.73819C15.3671 7.78121 15.8941 6.50864 15.8941 5.15527C15.8941 3.80173 15.3671 2.52915 14.4099 1.57217ZM13.0611 4.63805C12.5869 5.11224 11.8182 5.11224 11.3441 4.63805C10.8699 4.16387 10.8699 3.39516 11.3441 2.92097C11.8182 2.44678 12.5869 2.44678 13.0611 2.92097C13.5353 3.39516 13.5353 4.16387 13.0611 4.63805Z" fill="white"/>
</g>
<defs>
<clipPath id="clip0_10_63">
<rect width="16" height="16" fill="white"/>
</clipPath>
</defs>
</svg>
