<svg width="17" height="16" viewBox="0 0 17 16" fill="none" xmlns="http://www.w3.org/2000/svg">
<mask id="mask0_95_3" style="mask-type:luminance" maskUnits="userSpaceOnUse" x="0" y="0" width="17" height="16">
<path d="M16.1257 0H0.0251465V16H16.1257V0Z" fill="white"/>
</mask>
<g mask="url(#mask0_95_3)">
<path d="M8.06642 0.0878906C3.67416 0.0878906 0.113586 3.62621 0.113586 7.99102C0.113586 12.3558 3.67416 15.8941 8.06642 15.8941C12.4587 15.8941 16.0192 12.3558 16.0192 7.99102C16.0192 3.62621 12.4587 0.0878906 8.06642 0.0878906ZM8.06642 3.95287C9.63913 3.95287 10.9188 5.22457 10.9188 6.78746C10.9188 8.35052 9.63913 9.62204 8.06642 9.62204C6.49352 9.62204 5.214 8.35052 5.214 6.78746C5.214 5.22457 6.49352 3.95287 8.06642 3.95287ZM8.06642 14.8128C6.09853 14.8128 4.33336 13.9549 3.12559 12.5959C3.68706 11.5861 4.56487 10.7561 5.60864 10.2529C5.96369 10.0818 6.37812 10.0846 6.74589 10.2601C7.15997 10.4578 7.60427 10.558 8.06659 10.558C8.52874 10.558 8.97322 10.4577 9.38729 10.2601C9.75542 10.0845 10.1699 10.0818 10.5245 10.2529C11.5683 10.7559 12.446 11.5861 13.0074 12.5959C11.7995 13.9547 10.0343 14.8128 8.06642 14.8128Z" fill="white"/>
</g>
</svg>
