<svg width="401" height="100" viewBox="0 0 401 100" fill="none" xmlns="http://www.w3.org/2000/svg">
<path d="M290.103 15.636V22.9342H313.124V85.158H321.859V22.9342H344.829V15.636H290.103Z" fill="white" stroke="white" stroke-width="0.999996"/>
<path d="M159.632 15.636V85.158H204.209V77.7655H168.466V53.2983H202.19V45.9058H168.466V23.0285H204.209V15.636H159.632Z" fill="white" stroke="white" stroke-width="0.999996"/>
<path d="M247.864 14C243.387 14 239.229 14.7315 235.393 16.1974C231.589 17.6321 228.443 19.8947 225.953 22.9825C223.496 26.0702 222.268 29.6874 222.268 33.8356C222.268 38.7634 223.884 42.6933 227.115 45.6251C230.379 48.5568 234.535 50.6302 239.583 51.8465L253.013 55.1689C257.287 56.1982 260.417 57.6336 262.403 59.4738C264.422 61.2827 265.432 63.6368 265.432 66.5374C265.432 70.436 263.817 73.5237 260.586 75.8005C257.355 78.0773 253.079 79.215 247.762 79.215C242.108 79.215 237.631 78.0306 234.332 75.6602C231.034 73.2898 229.185 70.2489 228.781 66.5374H219.944C220.012 68.9389 220.551 71.2632 221.561 73.5089C222.57 75.7545 224.05 77.8895 226.003 79.9168C227.988 81.9129 230.765 83.5354 234.332 84.783C237.9 85.9994 241.989 86.6076 246.6 86.6076C254.677 86.6076 261.325 84.8298 266.542 81.2742C271.759 77.6875 274.368 72.5881 274.368 65.976C274.368 60.8609 272.702 56.8524 269.37 53.9518C266.038 51.0512 261.223 48.7907 254.93 47.1689L241.806 43.8948C234.704 42.1794 231.152 38.6387 231.152 33.2741C231.152 29.5003 232.685 26.5848 235.747 24.5263C238.81 22.4367 242.78 21.3904 247.66 21.3904C252.843 21.3904 256.882 22.5302 259.776 24.807C262.704 27.0527 264.37 30 264.774 33.6491H273.61C273.476 30.3431 272.65 27.3957 271.135 24.807C269.654 22.1872 267.669 20.1287 265.179 18.6316C262.688 17.1033 259.978 15.9486 257.05 15.1689C254.156 14.3891 251.095 14 247.864 14Z" fill="white" stroke="white" stroke-width="0.999996"/>
<path d="M80.6786 15.2983L107.99 84.8204H116.521L143.933 15.2983H133.938L112.533 74.9958H112.079L90.5727 15.2983H80.6786Z" fill="white" stroke="white" stroke-width="0.999996"/>
<path d="M55.0728 15.2983L82.3838 84.8204H90.9148L118.328 15.2983H108.332L86.9274 74.9958H86.4731L64.9669 15.2983H55.0728Z" fill="#FFD037" stroke="#FFD037" stroke-width="0.999996"/>
<path d="M370.495 0C374.085 3.77782e-05 377.101 0.41673 379.543 1.25C381.985 2.08332 383.939 3.35942 385.404 5.07812C386.87 6.79686 387.92 8.97139 388.555 11.6016C389.214 14.2318 389.544 17.3438 389.544 20.9375V33.4375C389.544 37.7083 390.35 40.7552 391.962 42.5781C393.598 44.401 396.456 45.3125 400.534 45.3125V54.6875C396.456 54.6875 393.598 55.599 391.962 57.4219C390.35 59.2448 389.544 62.2917 389.544 66.5625V79.0625C389.544 82.6562 389.214 85.7682 388.555 88.3984C387.92 91.0286 386.87 93.2031 385.404 94.9219C383.939 96.6406 381.985 97.9167 379.543 98.75C377.101 99.5833 374.085 100 370.495 100V92.3438C373.328 92.3437 375.55 91.8619 377.162 90.8984C378.798 89.9609 379.946 88.5156 380.605 86.5625C381.289 84.6094 381.631 82.1093 381.631 79.0625V63.4375C381.631 61.4063 381.876 59.5573 382.364 57.8906C382.877 56.224 383.805 54.7916 385.148 53.5938C386.492 52.3959 388.397 51.4713 390.863 50.8203C391.192 50.7343 391.534 50.6547 391.889 50.5801V49.4189C391.534 49.3443 391.192 49.2656 390.863 49.1797C388.397 48.5287 386.492 47.6041 385.148 46.4062C383.805 45.2083 382.877 43.776 382.364 42.1094C381.876 40.4427 381.631 38.5938 381.631 36.5625V20.9375C381.631 17.8906 381.289 15.3906 380.605 13.4375C379.946 11.4584 378.798 10 377.162 9.0625C375.55 8.12506 373.328 7.6563 370.495 7.65625V0Z" fill="white"/>
<path d="M30.5743 0C26.9842 0 23.9677 0.416662 21.5255 1.25C19.0833 2.08333 17.1294 3.35941 15.6641 5.07812C14.1988 6.79687 13.1487 8.97139 12.5137 11.6016C11.8543 14.2318 11.5245 17.3438 11.5245 20.9375V33.4375C11.5245 37.7083 10.7184 40.7552 9.10651 42.5781C7.47019 44.4009 4.61267 45.3125 0.534241 45.3125V54.6875C4.61262 54.6875 7.47018 55.5991 9.10651 57.4219C10.7184 59.2448 11.5245 62.2917 11.5245 66.5625V79.0625C11.5245 82.6562 11.8543 85.7682 12.5137 88.3984C13.1487 91.0286 14.1988 93.2031 15.6641 94.9219C17.1294 96.6406 19.0833 97.9167 21.5255 98.75C23.9677 99.5833 26.9842 100 30.5743 100V92.3438C27.7413 92.3438 25.5182 91.862 23.9063 90.8984C22.2702 89.9609 21.1223 88.5155 20.463 86.5625C19.7792 84.6094 19.4376 82.1093 19.4376 79.0625V63.4375C19.4376 61.4063 19.1936 59.5573 18.7051 57.8906C18.1923 56.224 17.2641 54.7916 15.921 53.5938C14.5778 52.3959 12.6727 51.4714 10.2061 50.8203C9.87693 50.7343 9.53452 50.6547 9.17975 50.5801V49.4189C9.53445 49.3443 9.877 49.2657 10.2061 49.1797C12.6726 48.5286 14.5778 47.6041 15.921 46.4062C17.2641 45.2084 18.1923 43.776 18.7051 42.1094C19.1936 40.4427 19.4376 38.5937 19.4376 36.5625V20.9375C19.4376 17.8907 19.7791 15.3906 20.463 13.4375C21.1223 11.4585 22.2702 10 23.9063 9.0625C25.5182 8.125 27.7413 7.65625 30.5743 7.65625V0Z" fill="white"/>
</svg>
