<?xml version="1.0" encoding="UTF-8" standalone="no"?>
<!-- Created with Inkscape (http://www.inkscape.org/) -->

<svg
   width="1080"
   height="1080"
   viewBox="0 0 285.74999 285.75"
   version="1.1"
   id="svg1"
   inkscape:version="1.4.2 (ebf0e940, 2025-05-08)"
   sodipodi:docname="post-it.svg"
   xmlns:inkscape="http://www.inkscape.org/namespaces/inkscape"
   xmlns:sodipodi="http://sodipodi.sourceforge.net/DTD/sodipodi-0.dtd"
   xmlns="http://www.w3.org/2000/svg"
   xmlns:svg="http://www.w3.org/2000/svg">
  <sodipodi:namedview
     id="namedview1"
     pagecolor="#ffffff"
     bordercolor="#000000"
     borderopacity="0.25"
     inkscape:showpageshadow="2"
     inkscape:pageopacity="0.0"
     inkscape:pagecheckerboard="0"
     inkscape:deskcolor="#d1d1d1"
     inkscape:document-units="mm"
     showguides="false"
     inkscape:zoom="0.5"
     inkscape:cx="399"
     inkscape:cy="551"
     inkscape:window-width="1792"
     inkscape:window-height="1120"
     inkscape:window-x="0"
     inkscape:window-y="0"
     inkscape:window-maximized="0"
     inkscape:current-layer="layer1" />
  <defs
     id="defs1" />
  <g
     inkscape:label="Layer 1"
     inkscape:groupmode="layer"
     id="layer1">
    <rect
       style="opacity:0.997389;fill:#fffc7f;stroke:#dde6f0;stroke-width:0.264583;stroke-linejoin:bevel;stroke-miterlimit:0;stroke-dasharray:0.52916598,0.26458299,0.13229149,0.26458299;fill-opacity:1;stroke-dashoffset:0"
       id="rect1"
       width="274.9021"
       height="274.90207"
       x="5.4239502"
       y="5.4239655" />
    <text
       xml:space="preserve"
       style="font-size:21.405px;font-family:Avenir;-inkscape-font-specification:Avenir;text-align:center;writing-mode:lr-tb;direction:ltr;text-anchor:middle;opacity:0.997389;fill:#4b4b4b;fill-opacity:1;stroke:#dde6f0;stroke-width:0.264582;stroke-linejoin:bevel;stroke-miterlimit:0;stroke-dasharray:0.264582, 3.175"
       x="145.14888"
       y="47.462685"
       id="text1"
       transform="scale(0.97764451,1.0228667)"><tspan
         sodipodi:role="line"
         id="tspan1"
         style="font-style:normal;font-variant:normal;font-weight:normal;font-stretch:normal;font-size:21.405px;font-family:Noteworthy;-inkscape-font-specification:'Noteworthy, Normal';font-variant-ligatures:normal;font-variant-caps:normal;font-variant-numeric:normal;font-variant-east-asian:normal;fill:#1a2347;fill-opacity:1;stroke-width:0.264582"
         x="145.14888"
         y="47.462685">The password to the laptop </tspan><tspan
         sodipodi:role="line"
         style="font-style:normal;font-variant:normal;font-weight:normal;font-stretch:normal;font-size:21.405px;font-family:Noteworthy;-inkscape-font-specification:'Noteworthy, Normal';font-variant-ligatures:normal;font-variant-caps:normal;font-variant-numeric:normal;font-variant-east-asian:normal;fill:#1a2347;fill-opacity:1;stroke-width:0.264582"
         x="145.14888"
         y="74.334122"
         id="tspan10">and the server room is: </tspan><tspan
         sodipodi:role="line"
         style="font-style:normal;font-variant:normal;font-weight:normal;font-stretch:normal;font-size:21.405px;font-family:Noteworthy;-inkscape-font-specification:'Noteworthy, Normal';font-variant-ligatures:normal;font-variant-caps:normal;font-variant-numeric:normal;font-variant-east-asian:normal;fill:#1a2347;fill-opacity:1;stroke-width:0.264582"
         x="145.14888"
         y="101.20556"
         id="tspan8" /><tspan
         sodipodi:role="line"
         style="font-style:normal;font-variant:normal;font-weight:normal;font-stretch:normal;font-size:21.405px;font-family:Noteworthy;-inkscape-font-specification:'Noteworthy, Normal';font-variant-ligatures:normal;font-variant-caps:normal;font-variant-numeric:normal;font-variant-east-asian:normal;fill:#1a2347;fill-opacity:1;stroke-width:0.264582"
         x="145.14888"
         y="128.07701"
         id="tspan9">First before light,</tspan><tspan
         sodipodi:role="line"
         style="font-style:normal;font-variant:normal;font-weight:normal;font-stretch:normal;font-size:21.405px;font-family:Noteworthy;-inkscape-font-specification:'Noteworthy, Normal';font-variant-ligatures:normal;font-variant-caps:normal;font-variant-numeric:normal;font-variant-east-asian:normal;fill:#1a2347;fill-opacity:1;stroke-width:0.264582"
         x="145.14888"
         y="154.94844"
         id="tspan2">Spring or summer nights,</tspan><tspan
         sodipodi:role="line"
         style="font-style:normal;font-variant:normal;font-weight:normal;font-stretch:normal;font-size:21.405px;font-family:Noteworthy;-inkscape-font-specification:'Noteworthy, Normal';font-variant-ligatures:normal;font-variant-caps:normal;font-variant-numeric:normal;font-variant-east-asian:normal;fill:#1a237e;fill-opacity:1;stroke-width:0.264582"
         x="145.14888"
         y="181.81989"
         id="tspan3"><tspan
   style="font-style:normal;font-variant:normal;font-weight:normal;font-stretch:normal;font-size:21.405px;font-family:Noteworthy;-inkscape-font-specification:'Noteworthy, Normal';font-variant-ligatures:normal;font-variant-caps:normal;font-variant-numeric:normal;font-variant-east-asian:normal;fill:#1a2347;fill-opacity:1;stroke-width:0.264582"
   id="tspan7">Deepest in my mind</tspan>.</tspan><tspan
         sodipodi:role="line"
         style="font-style:normal;font-variant:normal;font-weight:normal;font-stretch:normal;font-size:21.405px;font-family:Noteworthy;-inkscape-font-specification:'Noteworthy, Normal';font-variant-ligatures:normal;font-variant-caps:normal;font-variant-numeric:normal;font-variant-east-asian:normal;fill:#1a237e;fill-opacity:1;stroke-width:0.264582"
         x="145.14888"
         y="208.69131"
         id="tspan4" /><tspan
         sodipodi:role="line"
         style="font-style:normal;font-variant:normal;font-weight:normal;font-stretch:normal;font-size:21.405px;font-family:Noteworthy;-inkscape-font-specification:'Noteworthy, Normal';font-variant-ligatures:normal;font-variant-caps:normal;font-variant-numeric:normal;font-variant-east-asian:normal;fill:#1a237e;fill-opacity:1;stroke-width:0.264582"
         x="145.14888"
         y="235.56276"
         id="tspan5">-<tspan
   style="font-style:normal;font-variant:normal;font-weight:300;font-stretch:normal;font-size:21.405px;font-family:Noteworthy;-inkscape-font-specification:'Noteworthy, Light';font-variant-ligatures:normal;font-variant-caps:normal;font-variant-numeric:normal;font-variant-east-asian:normal;stroke-width:0.264582"
   id="tspan11"> F.M</tspan></tspan><tspan
         sodipodi:role="line"
         style="font-style:normal;font-variant:normal;font-weight:normal;font-stretch:normal;font-size:21.405px;font-family:Noteworthy;-inkscape-font-specification:'Noteworthy, Normal';font-variant-ligatures:normal;font-variant-caps:normal;font-variant-numeric:normal;font-variant-east-asian:normal;fill:#1a237e;fill-opacity:1;stroke-width:0.264582"
         x="145.14888"
         y="262.43417"
         id="tspan6" /></text>
    <path
       style="opacity:0.997389;fill:#ffe680;fill-opacity:1;stroke:#dde689;stroke-width:0.264583;stroke-linejoin:bevel;stroke-miterlimit:0;stroke-dasharray:0.264583, 3.175;stroke-opacity:1"
       id="path13"
       d="m 96.394303,253.13154 c -3.10574,1.0498 -6.339742,1.31134 -9.60215,1.13914 -1.462434,-0.0772 -2.936438,-0.13739 -4.3732,-0.42092 -1.643927,-0.32442 -3.219611,-0.9301 -4.829415,-1.39515 -6.3764,-2.44769 -12.746225,-5.77332 -16.559787,-11.68591 -0.491537,-0.76208 -0.834096,-1.61053 -1.251143,-2.4158 -0.165634,-0.7282 -0.464256,-1.43853 -0.496903,-2.18462 -0.04561,-1.04227 0.398896,-2.84386 1.5152,-3.36141 2.854547,-1.32345 8.323569,0.13019 11.155172,0.77905 2.683687,1.03562 7.363692,2.03838 8.499972,5.24032 0.270145,0.76125 0.340569,1.73502 -0.08465,2.42181 -1.391322,2.24721 -5.145513,2.98468 -7.214787,3.6932 -6.497328,1.03714 -13.378524,1.26329 -19.308374,-2.07622 -2.717691,-1.53052 -3.409296,-2.6014 -5.414049,-4.78648 -0.366586,-0.8518 -1.048031,-1.62951 -1.099757,-2.55539 -0.116877,-2.09206 1.779569,-3.89397 3.311782,-4.85298 4.060663,-2.54155 8.860977,-2.62374 13.460957,-2.87483 3.107994,0.17368 7.211706,0.027 9.836777,2.14799 0.81515,0.65861 1.820492,2.24274 0.304599,3.11853 -1.257469,0.72648 -2.787729,0.81523 -4.181591,1.22284 -2.203474,0.18813 -4.400172,0.49027 -6.610419,0.56441 -4.994018,0.1675 -10.101286,-0.17583 -15.07191,-0.61236 -5.181677,-0.45507 -10.269786,-1.19025 -15.370783,-2.17828 0.613513,0.11955 -4.804731,-0.74544 -3.85962,-1.94031 0.439361,-0.55547 2.141299,-0.71341 2.778352,-0.81745 0,0 -1.8e-4,-2e-5 -1.8e-4,-2e-5 v 0 c -0.637029,0.10403 -2.339073,0.26199 -2.778397,0.81747 -0.945084,1.19497 4.473495,2.05965 3.859839,1.94031 5.100997,0.98803 10.189107,1.72321 15.370784,2.17828 4.970631,0.43653 10.077897,0.77986 15.07192,0.61236 2.210247,-0.0741 4.406945,-0.37627 6.610419,-0.56441 1.393904,-0.40761 2.924201,-0.49635 4.18171,-1.22284 1.51596,-0.8758 0.510485,-2.45995 -0.304662,-3.11854 -2.625124,-2.12094 -6.728809,-1.97431 -9.836843,-2.14799 -4.59999,0.2511 -9.400278,0.3333 -13.460958,2.87484 -1.532233,0.95901 -3.428722,2.76088 -3.311823,4.85298 0.05174,0.92589 0.7332,1.70359 1.099798,2.55539 2.004754,2.18508 2.696358,3.25596 5.41405,4.78648 5.929852,3.33951 12.811053,3.11336 19.308384,2.07622 2.069221,-0.7085 5.823545,-1.44604 7.214857,-3.6932 0.425217,-0.68678 0.354771,-1.66057 0.08461,-2.42181 -1.136319,-3.20192 -5.816311,-4.2047 -8.500009,-5.24033 -2.83165,-0.64886 -8.300696,-2.10249 -11.155291,-0.77905 -1.116322,0.51754 -1.560801,2.31915 -1.515176,3.36142 0.03266,0.7461 0.331295,1.45642 0.496943,2.18463 0.41706,0.80526 0.759637,1.65371 1.251183,2.41579 3.813601,5.91257 10.183362,9.23823 16.559791,11.68591 1.609805,0.46505 3.185491,1.07073 4.829416,1.39515 1.436762,0.28353 2.910766,0.34373 4.3732,0.42092 3.262482,0.17221 6.496555,-0.0893 9.60238,-1.13911 z" />
    <path
       style="opacity:0.997389;fill:#ffe680;fill-opacity:1;stroke:#dd7f89;stroke-width:0.264583;stroke-linejoin:bevel;stroke-miterlimit:0;stroke-dasharray:0.264583, 3.175;stroke-opacity:1"
       id="path15"
       d="m -111.52767,44.151237 c 0.95111,6.640489 2.27403,13.218054 3.5028,19.810979 2.05415,11.794013 4.11054,23.590509 6.00775,35.411203 1.80703,11.176011 3.461891,22.373931 5.281481,33.548001 0.730167,4.37805 1.512625,8.74718 2.23054,13.12727 0,0 1.56e-4,0 1.56e-4,0 v 0 c -0.71805,-4.38007 -1.500566,-8.74921 -2.230691,-13.12727 -1.81959,-11.17407 -3.474446,-22.37199 -5.281486,-33.548001 -1.8972,-11.820694 -3.9536,-23.61719 -6.00774,-35.411203 -1.22878,-6.592914 -2.55175,-13.170464 -3.50261,-19.810981 z" />
  </g>
</svg>
