<?xml version="1.0" encoding="UTF-8" standalone="no"?>
<!-- Created with Inkscape (http://www.inkscape.org/) -->

<svg
   width="1080"
   height="1080"
   viewBox="0 0 285.74999 285.75"
   version="1.1"
   id="svg1"
   inkscape:version="1.4.2 (ebf0e940, 2025-05-08)"
   sodipodi:docname="riddle-1.svg"
   xmlns:inkscape="http://www.inkscape.org/namespaces/inkscape"
   xmlns:sodipodi="http://sodipodi.sourceforge.net/DTD/sodipodi-0.dtd"
   xmlns:xlink="http://www.w3.org/1999/xlink"
   xmlns="http://www.w3.org/2000/svg"
   xmlns:svg="http://www.w3.org/2000/svg">
  <sodipodi:namedview
     id="namedview1"
     pagecolor="#ffffff"
     bordercolor="#000000"
     borderopacity="0.25"
     inkscape:showpageshadow="2"
     inkscape:pageopacity="0.0"
     inkscape:pagecheckerboard="0"
     inkscape:deskcolor="#d1d1d1"
     inkscape:document-units="mm"
     inkscape:zoom="1"
     inkscape:cx="870.5"
     inkscape:cy="486"
     inkscape:window-width="3840"
     inkscape:window-height="2107"
     inkscape:window-x="1792"
     inkscape:window-y="25"
     inkscape:window-maximized="0"
     inkscape:current-layer="layer1" />
  <defs
     id="defs1">
    <linearGradient
       id="linearGradient42"
       inkscape:collect="always">
      <stop
         style="stop-color:#f5ecd9;stop-opacity:1;"
         offset="0"
         id="stop42" />
      <stop
         style="stop-color:#c7c988;stop-opacity:0;"
         offset="1"
         id="stop43" />
    </linearGradient>
    <linearGradient
       inkscape:collect="always"
       xlink:href="#linearGradient42"
       id="linearGradient43"
       x1="4.2333396"
       y1="142.875"
       x2="281.51666"
       y2="142.875"
       gradientUnits="userSpaceOnUse" />
  </defs>
  <g
     inkscape:label="Layer 1"
     inkscape:groupmode="layer"
     id="layer1">
    <rect
       style="fill:url(#linearGradient43);stroke:#000000;stroke-width:0.26458299;stroke-linejoin:bevel;stroke-miterlimit:0;stroke-dasharray:none"
       id="rect1"
       width="277.01874"
       height="277.01877"
       x="4.3656311"
       y="4.3656158" />
    <g
       id="g24"
       style="opacity:0.300151;stroke-width:0.449792;stroke-dasharray:none"
       transform="translate(414.64495,-29.996993)">
      <g
         id="g3"
         transform="translate(-9.6526246,4.8263123)"
         style="stroke-width:0.449792;stroke-dasharray:none" />
      <g
         id="g23"
         transform="matrix(0.08698132,-0.85672253,0.8567014,0.08698347,-4.0827834,519.73375)"
         style="stroke-width:0.522336;stroke-dasharray:none">
        <g
           id="g6"
           transform="translate(304.45987,-14.88113)"
           style="stroke-width:0.522336;stroke-dasharray:none" />
        <path
           id="path23"
           style="fill:none;stroke:#000000;stroke-width:0.522336;stroke-linejoin:bevel;stroke-miterlimit:0;stroke-dasharray:none"
           d="m 546.48693,42.346756 c 12.8914,-8.040275 2.30664,-2.774075 23.74006,-9.503406 m -41.59834,30.968904 c 13.32096,-7.88407 19.25302,-13.355338 30.53313,-8.252158 m -49.21529,29.95366 c 13.32096,-7.88407 24.26556,-11.942163 35.54567,-6.838983 m -59.37217,32.860147 c 13.32096,-7.88407 29.36912,-12.771182 40.64923,-7.668 m -62.97609,31.07082 c 13.32096,-7.88407 28.00199,-9.48895 39.2821,-4.38577 m -60.56398,25.77238 c 13.32096,-7.88407 26.83657,-9.72203 38.11668,-4.61885 m -60.36253,26.34645 c 13.32096,-7.88407 25.92489,-11.70628 37.205,-6.6031 M 521.54345,16.577048 c -7.61306,13.359078 21.0221,29.537788 14.25594,38.8021 l 0.10117,-0.150671 m -47.8769,-12.119736 c -7.62204,17.488539 21.04689,38.668293 14.27275,50.796322 l 0.10128,-0.197246 M 454.8558,82.194994 c -8.0037,15.983187 22.10079,35.339856 14.98745,46.423946 l 0.10636,-0.18026 m -31.49272,-19.56335 c -8.02952,12.5585 22.17206,27.76769 15.03578,36.47683 l 0.1067,-0.14165 m -32.31055,-4.23091 c -6.11324,8.60352 16.88061,19.02295 11.44743,24.98936 l 0.0813,-0.097 M 503.42704,29.560799 c -7.61306,16.183337 21.0221,35.782409 14.25594,47.0053 l 0.10117,-0.182524 M 546.79447,4.1249294 c -4.39531,9.3906506 12.1369,20.7633376 8.23053,27.2756066 l 0.0584,-0.105912 m -84.24146,30.643329 c -8.06401,17.135288 22.26731,37.887233 15.10037,49.770287 l 0.10716,-0.19326 M 470.84194,61.937953 c -8.06401,17.135288 22.26731,37.887233 15.10037,49.770287 l 0.10716,-0.19326 M 362.33388,232.11434 C 451.59885,151.13611 530.68882,70.269687 585.58252,-10.330839 M 310.99468,264.18866 C 438.0326,206.14214 412.79751,40.47436 575.77183,-6.7994973 l 9.79765,-3.5223807 M 310.80972,264.22383 C 426.1515,197.82293 545.05352,134.03582 585.58524,-10.263054 v 0 h -0.28863 M 361.97452,232.6968 C 451.23949,151.71857 530.32946,70.852144 585.22316,-9.7483818 M 310.63531,264.77112 C 437.67324,206.7246 412.43815,41.056817 575.41247,-6.21704 l 9.79765,-3.5223809 M 310.45036,264.80629 C 425.79214,198.40539 544.69416,134.61828 585.22588,-9.6805969 v 0 h -0.28863" />
      </g>
    </g>
    <text
       xml:space="preserve"
       style="font-size:11.6214px;font-family:Monospace;-inkscape-font-specification:'Monospace, Normal';text-align:center;writing-mode:lr-tb;direction:ltr;text-anchor:middle;opacity:1;fill:#000000;fill-opacity:1;stroke:#000000;stroke-width:0.264583;stroke-linejoin:bevel;stroke-miterlimit:0;stroke-dasharray:none"
       x="269.53339"
       y="88.061768"
       id="text24"
       transform="scale(1.0001041,0.99989591)"><tspan
         sodipodi:role="line"
         id="tspan24"
         style="font-style:normal;font-variant:normal;font-weight:normal;font-stretch:normal;font-size:11.6214px;font-family:Avenir;-inkscape-font-specification:Avenir;text-align:end;text-anchor:end;fill:#000000;fill-opacity:1;stroke-width:0.264583;stroke-dasharray:none"
         x="269.53339"
         y="88.061768">I tell every story and tall tale,</tspan><tspan
         sodipodi:role="line"
         style="font-style:normal;font-variant:normal;font-weight:normal;font-stretch:normal;font-size:11.6214px;font-family:Avenir;-inkscape-font-specification:Avenir;text-align:end;text-anchor:end;fill:#000000;fill-opacity:1;stroke-width:0.264583;stroke-dasharray:none"
         x="269.53339"
         y="102.84813"
         id="tspan25">Yet me and my brethren are connected in braille,</tspan><tspan
         sodipodi:role="line"
         style="font-style:normal;font-variant:normal;font-weight:normal;font-stretch:normal;font-size:11.6214px;font-family:Avenir;-inkscape-font-specification:Avenir;text-align:end;text-anchor:end;fill:#000000;fill-opacity:1;stroke-width:0.264583;stroke-dasharray:none"
         x="269.53339"
         y="117.6345"
         id="tspan26">A spot of lies in plain sight,</tspan><tspan
         sodipodi:role="line"
         style="font-style:normal;font-variant:normal;font-weight:normal;font-stretch:normal;font-size:11.6214px;font-family:Avenir;-inkscape-font-specification:Avenir;text-align:end;text-anchor:end;fill:#000000;fill-opacity:1;stroke-width:0.264583;stroke-dasharray:none"
         x="269.53339"
         y="132.42085"
         id="tspan27">A perfect mimic not missing the rite,</tspan><tspan
         sodipodi:role="line"
         style="font-style:normal;font-variant:normal;font-weight:normal;font-stretch:normal;font-size:11.6214px;font-family:Avenir;-inkscape-font-specification:Avenir;text-align:end;text-anchor:end;fill:#000000;fill-opacity:1;stroke-width:0.264583;stroke-dasharray:none"
         x="269.53339"
         y="147.20723"
         id="tspan28">A fear that exposes the light,</tspan><tspan
         sodipodi:role="line"
         style="font-style:normal;font-variant:normal;font-weight:normal;font-stretch:normal;font-size:11.6214px;font-family:Avenir;-inkscape-font-specification:Avenir;text-align:end;text-anchor:end;fill:#000000;fill-opacity:1;stroke-width:0.264583;stroke-dasharray:none"
         x="269.53339"
         y="161.99359"
         id="tspan29">A creature that dances at night,</tspan><tspan
         sodipodi:role="line"
         style="font-style:normal;font-variant:normal;font-weight:normal;font-stretch:normal;font-size:11.6214px;font-family:Avenir;-inkscape-font-specification:Avenir;text-align:end;text-anchor:end;fill:#000000;fill-opacity:1;stroke-width:0.264583;stroke-dasharray:none"
         x="269.53339"
         y="176.77995"
         id="tspan30">All that is you is me in rewrite,</tspan><tspan
         sodipodi:role="line"
         style="font-style:normal;font-variant:normal;font-weight:normal;font-stretch:normal;font-size:11.6214px;font-family:Avenir;-inkscape-font-specification:Avenir;text-align:end;text-anchor:end;fill:#000000;fill-opacity:1;stroke-width:0.264583;stroke-dasharray:none"
         x="269.53339"
         y="191.56631"
         id="tspan31" /><tspan
         sodipodi:role="line"
         style="font-style:normal;font-variant:normal;font-weight:normal;font-stretch:normal;font-size:11.6214px;font-family:Avenir;-inkscape-font-specification:Avenir;text-align:end;text-anchor:end;fill:#000000;fill-opacity:1;stroke-width:0.264583;stroke-dasharray:none"
         x="269.53339"
         y="206.35268"
         id="tspan32">- <tspan
   style="font-style:oblique;font-variant:normal;font-weight:300;font-stretch:normal;font-size:11.6214px;font-family:Avenir;-inkscape-font-specification:'Avenir, Light Oblique';font-variant-ligatures:normal;font-variant-caps:normal;font-variant-numeric:normal;font-variant-east-asian:normal"
   id="tspan334">What color am I?</tspan></tspan><tspan
         sodipodi:role="line"
         style="font-style:normal;font-variant:normal;font-weight:normal;font-stretch:normal;font-size:11.6214px;font-family:Avenir;-inkscape-font-specification:Avenir;text-align:end;text-anchor:end;fill:#000000;fill-opacity:1;stroke-width:0.264583;stroke-dasharray:none"
         x="269.53339"
         y="221.13904"
         id="tspan33" /></text>
    <g
       id="g44"
       transform="translate(273.759,-2.4165145)"
       style="opacity:0.300151;stroke-width:0.449792;stroke-dasharray:none" />
    <g
       id="g195" />
    <path
       id="path333"
       style="opacity:0.974359;fill:#000000;fill-opacity:0;stroke:#100000;stroke-width:0.44979167;stroke-linejoin:bevel;stroke-miterlimit:0;stroke-dasharray:none;stroke-opacity:0.211765"
       d="m 250.82604,273.57955 c -0.0513,0.18807 -0.1015,0.37942 -0.12294,0.57374 -0.006,0.0557 -0.009,0.11172 -0.0128,0.16759 -0.0172,0.28804 -1.6e-4,0.57653 -0.003,0.86477 0,0.22674 -0.005,0.26515 -0.0138,0.49272 -0.013,0.215 -0.0374,0.42901 -0.0623,0.64285 0,0 1.8e-4,0 1.8e-4,0 v 0 c 0.025,-0.21384 0.0493,-0.42785 0.0623,-0.64285 0.009,-0.22747 0.0128,-0.26606 0.0138,-0.49272 0.003,-0.28824 -0.0156,-0.57673 0.003,-0.86477 0.004,-0.0559 0.007,-0.11191 0.0128,-0.16759 0.0213,-0.19432 0.0716,-0.38567 0.12297,-0.57374 z m -11.58569,-25.61738 c 0.12883,0.29282 0.28185,0.57217 0.44344,0.84772 0.10592,0.18018 0.24081,0.34064 0.3575,0.51361 0.128,0.19461 0.22971,0.40654 0.32887,0.6171 0.14891,0.31103 0.30419,0.6188 0.4676,0.92242 0.1753,0.29977 0.35905,0.59475 0.54108,0.89056 0.17749,0.25912 0.33161,0.53308 0.50924,0.79198 0.12495,0.18763 0.24415,0.37896 0.37448,0.56301 0.0747,0.11012 0.1409,0.22572 0.20148,0.34418 0.0657,0.13039 0.14154,0.25493 0.21068,0.38353 0.0809,0.16101 0.16293,0.32128 0.24783,0.48024 0.0707,0.14143 0.15519,0.27509 0.22479,0.4171 0.0995,0.17882 0.1842,0.36496 0.27943,0.54586 0.1263,0.24474 0.25892,0.48597 0.39553,0.72511 0.15416,0.28307 0.3011,0.56948 0.43399,0.86314 0.0843,0.23296 0.21133,0.44587 0.31556,0.66954 0.12916,0.26033 0.22903,0.53342 0.33717,0.80276 0.10874,0.24281 0.22505,0.48246 0.32087,0.73075 0.11616,0.3055 0.24059,0.60777 0.36231,0.91108 0.16184,0.37246 0.31007,0.75002 0.44244,1.13397 0.14134,0.41004 0.29153,0.81684 0.43823,1.22498 0.15247,0.41689 0.31229,0.83103 0.46739,1.24693 0.16942,0.44374 0.32018,0.89413 0.48469,1.33964 0.16191,0.43513 0.29458,0.88016 0.44825,1.31811 0.13505,0.37482 0.26317,0.7522 0.40839,1.12327 0.12463,0.32414 0.26311,0.64308 0.41418,0.95576 0.13345,0.30639 0.29121,0.60113 0.4325,0.90388 0.13309,0.30265 0.25204,0.61119 0.37388,0.91847 0.1353,0.29194 0.22357,0.60108 0.32492,0.90549 0.0938,0.27811 0.16572,0.56247 0.23082,0.84838 0.0551,0.23343 0.11519,0.46513 0.1799,0.69601 0.0467,0.18139 0.10061,0.36071 0.13957,0.54403 0.033,0.098 0.0609,0.19722 0.0778,0.2993 0.0242,0.0705 0.0505,0.13936 0.0651,0.21261 0.0104,0.0459 0.006,0.0929 0.0193,0.13788 0,0 2.6e-4,-2e-5 2.6e-4,-2e-5 v 0 c -0.0138,-0.0449 -0.009,-0.0919 -0.0193,-0.13786 -0.0148,-0.0733 -0.041,-0.14212 -0.0652,-0.21261 -0.0169,-0.10208 -0.0448,-0.20127 -0.0778,-0.2993 -0.0389,-0.18332 -0.0928,-0.36264 -0.13959,-0.54403 -0.0647,-0.2309 -0.12488,-0.46258 -0.1799,-0.69601 -0.0651,-0.28591 -0.13702,-0.5703 -0.23083,-0.84838 -0.10135,-0.30441 -0.18961,-0.61355 -0.32491,-0.90549 -0.12188,-0.30728 -0.24079,-0.61583 -0.37391,-0.91848 -0.14129,-0.30275 -0.29904,-0.59748 -0.43247,-0.90388 -0.15108,-0.31268 -0.28958,-0.63162 -0.41421,-0.95576 -0.14522,-0.37107 -0.27335,-0.74845 -0.40839,-1.12327 -0.15364,-0.43794 -0.28635,-0.88298 -0.44822,-1.31811 -0.16452,-0.44551 -0.3153,-0.8959 -0.48472,-1.33964 -0.15511,-0.41589 -0.31491,-0.83004 -0.46739,-1.24693 -0.1467,-0.40814 -0.29689,-0.81494 -0.43823,-1.22498 -0.13237,-0.38395 -0.2806,-0.76151 -0.44241,-1.13397 -0.12172,-0.30331 -0.24618,-0.60558 -0.36231,-0.91108 -0.0958,-0.24829 -0.21214,-0.48794 -0.32087,-0.73075 -0.10814,-0.26934 -0.20801,-0.54242 -0.33717,-0.80276 -0.10424,-0.22367 -0.23129,-0.43658 -0.31557,-0.66954 -0.13288,-0.29366 -0.27985,-0.58007 -0.43398,-0.86314 -0.13661,-0.23914 -0.26923,-0.48037 -0.39554,-0.72511 -0.0952,-0.18091 -0.17992,-0.36705 -0.27942,-0.54586 -0.0696,-0.14201 -0.15406,-0.27567 -0.22476,-0.41711 -0.085,-0.15895 -0.16697,-0.31922 -0.24786,-0.48023 -0.0691,-0.1286 -0.14496,-0.25314 -0.21066,-0.38353 -0.0606,-0.11846 -0.12672,-0.23406 -0.2015,-0.34418 -0.13033,-0.18406 -0.24953,-0.37539 -0.37448,-0.56301 -0.17767,-0.25889 -0.33176,-0.53286 -0.50924,-0.79198 -0.18203,-0.29581 -0.36578,-0.59079 -0.54108,-0.89056 -0.16341,-0.30362 -0.31869,-0.61139 -0.4676,-0.92242 -0.0992,-0.21056 -0.20088,-0.42249 -0.32887,-0.6171 -0.11669,-0.17297 -0.25158,-0.33343 -0.35752,-0.51362 -0.16157,-0.27554 -0.31462,-0.55489 -0.44342,-0.84771 z m 14.15388,27.12495 a 5e-6,5.000012e-6 0 0 1 -1e-5,0 5e-6,5.000012e-6 0 0 1 1e-5,0 z M 177.9479,58.757744 a 1.6332411e-6,1.6332451e-6 0 0 1 0,2e-6 1.6332411e-6,1.6332451e-6 0 0 1 0,-2e-6 1.6332411e-6,1.6332451e-6 0 0 1 0,-1e-6 1.6332411e-6,1.6332451e-6 0 0 1 0,1e-6 z M 76.674468,116.89013 c 1.020268,0.36724 2.066863,0.6384 3.11804,0.89884 0.746019,0.13421 1.436927,0.38991 2.086039,0.77532 1.028775,0.5978 1.971814,1.32459 2.932782,2.02223 0.738781,0.53961 1.457864,1.10577 2.201877,1.6383 0.53534,0.30876 1.028254,0.72731 1.637203,0.87414 0.129026,0.01 0.258032,0.0191 0.387048,0.0286 0,0 2.26e-4,-4e-5 2.26e-4,-4e-5 v 0 c -0.129006,-0.01 -0.258012,-0.0191 -0.387038,-0.0286 -0.608949,-0.14682 -1.101873,-0.56538 -1.637203,-0.87414 -0.744013,-0.53252 -1.463096,-1.09869 -2.201907,-1.63829 -0.960967,-0.69764 -1.903977,-1.42442 -2.932752,-2.02224 -0.649122,-0.38542 -1.34002,-0.64111 -2.086069,-0.77532 -1.051147,-0.26042 -2.097752,-0.53159 -3.11801,-0.89884 z M 108.86262,57.125769 c 1.06438,1.052504 2.15568,2.065615 3.32821,2.99684 0.97406,0.72076 1.9761,1.417202 3.04992,1.98361 0.75399,0.397697 1.2348,0.582992 2.02224,0.918687 2.10296,0.836773 4.27864,1.463081 6.47313,2.00599 2.56103,0.56433 5.15602,0.952714 7.74719,1.348327 1.29969,0.212525 2.60927,0.403349 3.86707,0.807314 0.80063,0.257136 0.97315,0.355164 1.74401,0.690689 1.65973,0.863235 3.18834,1.94524 4.81446,2.867416 0.7277,0.345436 1.51132,0.655875 2.33414,0.551365 0.16814,-0.02136 0.33079,-0.07418 0.49617,-0.111271 0,0 -2.4e-4,-3.1e-5 -2.4e-4,-3.1e-5 v 0 c -0.16538,0.0371 -0.328,0.08991 -0.49614,0.111269 -0.82264,0.104532 -1.60618,-0.206056 -2.33372,-0.551353 -1.62614,-0.92217 -3.15473,-2.004176 -4.81449,-2.867419 -0.77084,-0.335522 -0.94338,-0.433555 -1.74401,-0.690689 -1.2578,-0.403973 -2.56738,-0.59479 -3.86708,-0.807316 -2.59118,-0.395607 -5.18618,-0.783992 -7.74718,-1.348325 -2.19451,-0.542909 -4.37017,-1.169214 -6.47313,-2.005987 -0.78743,-0.335691 -1.26826,-0.520991 -2.02223,-0.918687 -1.07379,-0.566407 -2.07584,-1.262852 -3.0499,-1.983607 -1.17253,-0.931223 -2.26383,-1.944318 -3.32815,-2.99684 z M 77.232593,110.74444 c -1.077592,-1.32441 -1.850095,-2.85833 -2.574901,-4.39445 -0.76795,-1.54683 -1.401662,-3.16124 -2.244923,-4.66989 -0.613158,-1.11748 -1.681633,-1.731754 -2.752617,-2.344714 -1.471426,-0.76718 -2.899522,-1.60585 -4.246052,-2.576026 -1.633161,-1.164006 -3.239523,-2.359271 -4.787735,-3.634127 -1.457147,-1.256128 -2.904213,-2.52147 -4.408997,-3.720652 -1.079903,-0.798987 -2.111461,-1.659641 -3.195967,-2.452284 -0.790017,-0.583841 -1.4658,-1.297547 -2.153876,-1.993315 -0.392713,-0.432447 -0.866568,-0.793687 -1.224074,-1.25851 -0.193696,-0.251849 -0.236603,-0.356547 -0.38393,-0.629748 -0.259626,-0.520612 -0.451601,-1.07383 -0.465959,-1.657907 0.03147,-0.681131 0.218508,-1.34269 0.326803,-2.013885 0.142696,-0.999109 0.155894,-2.0104 0.173585,-3.017702 -0.0029,-0.814238 -0.106033,-1.618647 -0.249427,-2.418204 C 48.902998,72.937869 48.699832,71.929523 48.424314,70.93261 47.966331,69.538802 47.457702,68.162289 46.939042,66.790125 46.398893,65.365452 45.843944,63.94675 45.274234,62.533542 44.914201,61.570902 44.480086,60.638764 43.908143,59.783892 43.560334,59.269146 42.978164,59.13608 42.415515,58.970925 41.77425,58.804956 41.220993,58.58138 40.70247,58.166897 40.005003,57.538666 39.655768,56.66226 39.352793,55.7965 c -0.41723,-1.367343 -0.196558,-2.80006 0.0833,-4.170734 0.382279,-1.615832 0.835364,-3.214063 1.242238,-4.824156 0.250597,-1.307417 0.416187,-2.684203 0.231421,-4.01512 -0.02901,-0.208701 -0.08635,-0.412453 -0.129577,-0.61868 -0.255957,-1.096972 -0.866932,-2.063483 -1.494084,-2.984009 -0.507725,-0.65639 -0.861287,-1.400821 -1.211771,-2.147809 -0.348232,-0.734011 -0.591857,-1.509912 -0.883228,-2.266317 -0.139902,-0.459112 -0.459871,-0.815081 -0.782307,-1.156587 -0.309141,-0.306693 -0.627605,-0.605335 -0.954851,-0.892886 -0.450853,-0.413994 -0.820779,-0.904168 -1.194708,-1.386016 -0.342657,-0.472302 -0.6843,-0.945101 -1.044618,-1.40417 -0.156847,-0.162854 -0.277583,-0.356316 -0.434745,-0.517646 -0.105138,-0.08743 -0.199105,-0.173207 -0.267482,-0.292604 -0.131318,-0.334379 0.2397,-0.520048 0.482981,-0.645011 0.365167,-0.143423 0.719241,-0.307432 1.055111,-0.510128 0.237478,-0.204618 0.325505,-0.530096 0.454924,-0.80725 0.297104,-0.580211 0.569966,-1.171833 0.844009,-1.763171 0.375365,-0.894517 0.825745,-1.754148 1.260382,-2.620698 0.283798,-0.594697 0.614505,-1.168542 0.848659,-1.785125 0.282608,-0.670475 0.498884,-1.363636 0.668034,-2.070511 0.167625,-0.761668 0.437085,-1.492624 0.710478,-2.221167 0.220258,-0.549242 0.389074,-1.116827 0.581098,-1.675949 0.194011,-0.504885 0.332488,-1.028106 0.495265,-1.543282 0.21779,-0.671793 0.284348,-1.378702 0.414554,-2.069783 0.107617,-0.584213 0.186714,-1.173743 0.239662,-1.7653705 0.05556,0.08476 0.0029,-0.242658 0.06972,-0.211571 0.117303,0.05407 0.784786,0.6521125 0.786006,0.6532135 0.416059,0.372403 0.819865,0.75438 1.227624,1.135774 1.211692,1.21558 2.51982,2.320952 3.88594,3.357461 2.032364,1.490652 4.138387,2.876914 6.228143,4.284922 1.344633,0.977846 2.779269,1.794189 4.306504,2.444646 1.358578,0.494929 2.76672,0.833211 4.191541,1.067557 1.518365,0.265531 3.060617,0.336053 4.598208,0.389783 1.769376,0.06416 3.538859,-0.02994 5.307586,-0.07563 2.443633,-0.132659 4.878967,0.03885 7.306443,0.307157 2.653301,0.30657 5.254008,0.938703 7.804068,1.71855 0.981856,0.348874 1.990097,0.693965 2.851649,1.297407 0.430103,0.301264 0.550946,0.439966 0.934139,0.798618 0.853341,0.820031 1.519634,1.799853 2.173418,2.778851 0.976367,1.460749 1.91805,2.945047 2.83312,4.444953 0.805051,1.297354 1.573291,2.616662 2.361591,3.923999 0.75177,1.240197 1.54696,2.451893 2.35818,3.65349 0.947702,1.36822 2.063742,2.604597 3.190302,3.825203 0.72972,0.72643 1.38163,1.550672 2.18871,2.197749 0.34485,0.276477 1.06531,0.750741 1.42464,0.992999 1.65036,0.988433 3.34663,1.898934 5.05637,2.779904 1.04465,0.54567 2.10709,1.050584 3.21353,1.457198 1.3623,0.462437 2.75746,0.815182 4.11398,1.294476 1.0479,0.368256 2.08586,0.759273 3.10618,1.197978 0.39668,0.17176 0.21133,0.09124 0.5561,0.241392 0,0 2.3e-4,-2.9e-5 2.3e-4,-2.9e-5 v 0 c -0.34478,-0.150148 -0.15943,-0.06964 -0.55612,-0.241392 -1.02029,-0.438699 -2.05825,-0.82972 -3.10618,-1.197977 -1.35652,-0.47929 -2.75168,-0.832034 -4.11398,-1.294474 -1.10644,-0.406616 -2.16888,-0.911533 -3.21353,-1.457195 -1.70977,-0.880961 -3.40603,-1.791459 -5.05637,-2.779899 -0.35941,-0.242303 -1.07975,-0.716474 -1.42464,-0.993 -0.80708,-0.647079 -1.45899,-1.47131 -2.18871,-2.197743 -1.12659,-1.220603 -2.24263,-2.456983 -3.190302,-3.825203 -0.81123,-1.201597 -1.60645,-2.413285 -2.35821,-3.65349 -0.78828,-1.307333 -1.55651,-2.626652 -2.361564,-3.923998 -0.91509,-1.499899 -1.856783,-2.984195 -2.833121,-4.444953 -0.653783,-0.979003 -1.320047,-1.958828 -2.173417,-2.778857 -0.383173,-0.358644 -0.504037,-0.497367 -0.934139,-0.798621 -0.861543,-0.603448 -1.869794,-0.948532 -2.851678,-1.29741 -2.550051,-0.779838 -5.150788,-1.411974 -7.804069,-1.718552 -2.427604,-0.268309 -4.863036,-0.439817 -7.306797,-0.307159 -1.768599,0.04568 -3.537955,0.139774 -5.307222,0.07562 -1.537571,-0.05373 -3.079824,-0.124249 -4.598188,-0.389781 -1.424822,-0.234343 -2.832964,-0.572625 -4.191541,-1.067551 -1.527236,-0.650458 -2.961901,-1.466798 -4.306524,-2.444638 -2.089786,-1.407998 -4.195789,-2.794267 -6.228153,-4.284923 -1.366091,-1.036518 -2.674218,-2.141891 -3.88594,-3.35746 -0.407622,-0.381297 -0.811634,-0.76346 -1.227565,-1.135776 -0.003,-0.0029 -0.667847,-0.5985955 -0.786498,-0.6532065 -0.06746,-0.03105 -0.01406,0.296284 -0.06972,0.21158 -0.05291,0.5916275 -0.132025,1.1811575 -0.239642,1.7653685 -0.130206,0.691081 -0.196764,1.397988 -0.414554,2.06978 -0.162777,0.515175 -0.301284,1.038395 -0.495255,1.543281 -0.192034,0.55912 -0.360879,1.126706 -0.581108,1.675949 -0.273393,0.728544 -0.542853,1.4595 -0.710468,2.221169 -0.16916,0.706874 -0.385436,1.400036 -0.668034,2.070508 -0.234154,0.616578 -0.564872,1.190427 -0.84864,1.785125 -0.434666,0.86655 -0.885017,1.726182 -1.260402,2.620697 -0.274042,0.591339 -0.546914,1.182958 -0.844037,1.76317 -0.1294,0.27715 -0.217446,0.602625 -0.454934,0.807235 -0.335861,0.202697 -0.689915,0.366702 -1.055082,0.510128 -0.24331,0.124973 -0.614299,0.310653 -0.483001,0.645051 0.06845,0.1194 0.162334,0.205186 0.267483,0.29261 0.157181,0.161327 0.277887,0.35479 0.434764,0.517643 0.360299,0.459063 0.701961,0.931863 1.044617,1.404168 0.373939,0.481848 0.743856,0.972027 1.194709,1.386022 0.327246,0.287549 0.64571,0.586194 0.954851,0.892882 0.322436,0.341505 0.642405,0.697469 0.782317,1.156578 0.291371,0.756404 0.534995,1.532305 0.883237,2.26632 0.350465,0.74699 0.704027,1.491427 1.211752,2.147811 0.627152,0.920523 1.238156,1.88703 1.494084,2.983999 0.04317,0.206227 0.100624,0.409979 0.129586,0.618677 0.184787,1.330917 0.01928,2.7077 -0.2314,4.015114 -0.406845,1.610097 -0.85996,3.208325 -1.242219,4.824159 -0.279864,1.370674 -0.500565,2.8034 -0.0833,4.170743 0.302975,0.865765 0.65221,1.742176 1.349677,2.370415 0.518523,0.41449 1.07178,0.638064 1.713045,0.804032 0.562649,0.165157 1.144819,0.29822 1.492629,0.812955 0.571942,0.854864 1.006087,1.787 1.36612,2.749642 0.56971,1.413208 1.124659,2.83191 1.664807,4.25658 0.518651,1.372165 1.02729,2.748678 1.485263,4.142486 0.275527,0.996912 0.478664,2.005255 0.62019,3.030415 0.143364,0.799558 0.247106,1.603961 0.249427,2.418199 -0.0177,1.007302 -0.03088,2.018591 -0.173576,3.017697 -0.108295,0.671197 -0.295353,1.332759 -0.326813,2.01389 0.01426,0.584082 0.206334,1.137301 0.465959,1.65792 0.147327,0.273199 0.190234,0.377903 0.38393,0.629751 0.357506,0.464826 0.831362,0.826066 1.224104,1.258512 0.688046,0.695769 1.363829,1.40948 2.153847,1.993318 1.084535,0.79264 2.116093,1.653295 3.195996,2.452282 1.504813,1.199176 2.95185,2.464525 4.408996,3.720652 1.548203,1.27485 3.154594,2.47011 4.787735,3.634126 1.346531,0.970174 2.774627,1.808854 4.246053,2.576034 1.070983,0.61296 2.139459,1.227234 2.752617,2.344694 0.843251,1.50865 1.476992,3.12306 2.244942,4.6699 0.724787,1.53611 1.49729,3.07002 2.574853,4.39445 z m 23.616717,25.18046 c -1.672172,-0.54549 -3.393482,-0.91753 -5.075071,-1.4329 -1.149795,-0.34642 -2.213855,-0.93284 -3.083147,-1.76713 -0.512445,-0.49179 -0.771805,-0.86059 -1.205684,-1.4131 -0.986733,-1.36939 -1.667069,-2.92345 -2.633475,-4.30625 -1.285882,-1.49806 -3.053694,-2.41957 -4.784126,-3.30344 -1.737217,-0.85326 -3.617621,-1.3979 -5.341208,-2.28068 -0.211329,-0.10825 -0.409805,-0.23997 -0.614692,-0.35996 0,0 -2.07e-4,2e-5 -2.07e-4,2e-5 v 0 c 0.204878,0.11999 0.403363,0.25171 0.614692,0.35996 1.723587,0.88278 3.604021,1.42741 5.341238,2.28068 1.730422,0.88387 3.498214,1.80538 4.784096,3.30343 0.966426,1.3828 1.646742,2.93686 2.633466,4.30625 0.433888,0.5525 0.693278,0.92133 1.205683,1.41311 0.869332,0.83429 1.933362,1.42072 3.083148,1.76713 1.681595,0.51537 3.402905,0.8874 5.075057,1.43291 z m 33.58243,23.58663 c -1.63025,-0.33822 -3.28909,-0.64149 -4.87277,-1.16931 -0.27123,-0.0904 -0.53327,-0.20625 -0.7999,-0.30937 -1.58908,-0.69646 -2.84093,-1.9304 -4.00053,-3.18862 -0.96814,-1.10278 -1.94418,-2.19587 -3.01211,-3.20355 -1.39863,-1.36565 -3.19657,-2.02963 -5.01117,-2.64182 -1.06505,-0.37137 -2.15292,-0.69507 -3.17053,-1.18992 -0.81278,-0.39526 -1.54276,-0.89579 -2.26016,-1.43884 0,0 -2.1e-4,2e-5 -2.1e-4,2e-5 v 0 c 0.71739,0.54304 1.44738,1.04358 2.26019,1.43884 1.01762,0.49486 2.10548,0.81855 3.17053,1.18993 1.81459,0.61218 3.61252,1.27616 5.01114,2.64181 1.06794,1.00768 2.04397,2.10078 3.01214,3.20355 1.1596,1.25821 2.41144,2.49217 4.0005,3.18862 0.26666,0.10312 0.52871,0.21898 0.79991,0.30938 1.58367,0.52781 3.24252,0.83107 4.87277,1.16931 z m 34.96699,-50.2199 c -0.14288,-2.04659 -0.31974,-4.08988 -0.42847,-6.13888 -0.0514,-1.28741 -0.0787,-2.5778 -0.322,-3.846964 -0.11175,-0.58293 -0.328,-1.42108 -0.4725,-2.0024 -0.42188,-1.801911 -1.15218,-3.490396 -1.97235,-5.140177 -0.61626,-1.337965 -1.40468,-2.576454 -2.26451,-3.767933 0,0 -2.1e-4,1.2e-5 -2.1e-4,1.2e-5 v 0 c 0.85983,1.191482 1.64826,2.429972 2.26453,3.76793 0.82018,1.649778 1.55048,3.338264 1.97234,5.140178 0.14454,0.58137 0.36074,1.4194 0.47253,2.0024 0.24328,1.269154 0.27052,2.559544 0.32199,3.846954 0.10874,2.049 0.28562,4.09229 0.42841,6.13888 z m -2.14198,-4.67245 c -0.949,-0.30655 -1.87068,-0.71652 -2.69317,-1.28627 -0.21196,-0.14684 -0.4101,-0.31273 -0.61515,-0.46909 -1.05995,-0.83196 -1.94229,-1.84194 -2.67272,-2.968484 -0.40948,-0.70319 -0.49974,-1.48822 -0.59007,-2.27816 -0.0585,-1.239105 -0.41472,-2.412808 -0.79783,-3.582584 -0.44476,-1.157648 -0.96786,-2.295348 -1.67313,-3.320414 -0.44578,-0.647881 -0.7692,-0.992604 -1.28318,-1.593038 -1.70877,-1.746112 -3.61782,-3.280108 -5.50689,-4.824093 -0.62971,-0.523162 -1.27927,-1.020752 -1.90692,-1.546373 0,0 -2.4e-4,2e-5 -2.4e-4,2e-5 v 0 c 0.62768,0.525619 1.27724,1.023206 1.90697,1.546371 1.88908,1.543967 3.79815,3.07796 5.50691,4.824089 0.51394,0.60042 0.8374,0.945167 1.28315,1.593035 0.70526,1.025066 1.22839,2.162759 1.67312,3.32041 0.38312,1.169774 0.73926,2.34348 0.7978,3.582577 0.0904,0.78994 0.18061,1.57498 0.59008,2.27817 0.73045,1.126544 1.61281,2.136534 2.67273,2.968484 0.20507,0.15637 0.40321,0.32226 0.61516,0.4691 0.8225,0.56976 1.74415,0.97973 2.69314,1.28627 z m 16.01472,28.65199 c 0.54386,-1.49673 0.89802,-3.0569 1.0953,-4.63518 0.13028,-1.30222 0.0828,-2.63063 -0.2667,-3.89819 -0.0852,-0.30898 -0.19894,-0.60937 -0.29845,-0.91406 -0.52864,-1.40258 -1.26626,-2.71049 -2.12692,-3.93326 -0.89521,-1.1921 -1.93551,-2.26709 -2.95617,-3.35077 -1.20053,-1.33967 -2.49408,-2.61493 -3.53074,-4.09035 -0.4445,-0.75062 -0.23228,-0.36433 -0.63493,-1.15975 0,0 -2.4e-4,1e-5 -2.4e-4,1e-5 v 0 c 0.40269,0.79542 0.19046,0.40913 0.63496,1.15976 1.03666,1.47542 2.33024,2.75066 3.53077,4.09034 1.02063,1.08368 2.06093,2.15869 2.95612,3.35078 0.86068,1.22276 1.59832,2.53066 2.12697,3.93325 0.0995,0.30469 0.21326,0.60508 0.29845,0.91406 0.34947,1.26756 0.39696,2.59596 0.26667,3.89818 -0.19727,1.57828 -0.55141,3.13845 -1.09533,4.63517 z m -8.26548,56.93143 c -1.62762,-1.11172 -3.24655,-2.23582 -4.8595,-3.36866 -1.31986,-0.85062 -2.4721,-1.91644 -3.55072,-3.04982 -0.82799,-0.87245 -1.56888,-1.82435 -2.40159,-2.69246 -0.90882,-0.94746 -1.15118,-1.13326 -2.14846,-2.03596 -2.34679,-1.983 -4.80611,-3.84815 -7.39558,-5.50342 -0.48239,-0.2804 -1.3815,-0.85 -1.95482,-1.01901 -0.9311,-0.27446 -1.87875,-0.0299 -2.75106,0.29804 -0.29769,0.0908 -0.54109,0.37718 -0.87102,0.36464 -0.49989,-0.019 -1.01417,-0.34667 -1.43328,-0.56051 -1.78868,-0.99515 -3.5258,-2.08029 -5.16166,-3.31113 -0.81706,-0.64243 -0.41255,-0.31441 -1.21334,-0.9842 0,0 -2e-4,2e-5 -2e-4,2e-5 v 0 c 0.80078,0.66979 0.39628,0.34177 1.21333,0.9842 1.63589,1.23083 3.373,2.31596 5.16166,3.31113 0.41945,0.21403 0.93352,0.54153 1.43373,0.56052 0.32993,0.0126 0.5733,-0.27387 0.87099,-0.36464 0.87223,-0.32795 1.81967,-0.57247 2.75066,-0.29804 0.57335,0.169 1.47247,0.73859 1.95485,1.019 2.58948,1.65526 5.0488,3.52041 7.39558,5.50341 0.99739,0.90278 1.23956,1.08842 2.14844,2.03597 0.83271,0.86811 1.5736,1.82001 2.40155,2.69245 1.07864,1.13339 2.23087,2.19921 3.55073,3.04983 1.61295,1.13283 3.2319,2.25692 4.85951,3.36866 z m 17.3203,12.60532 c -0.96051,-1.20175 -2.05217,-2.29343 -3.15791,-3.36068 -0.62078,-0.52786 -1.27164,-1.10619 -2.08778,-1.29969 -0.23184,-0.055 -0.46964,-0.0808 -0.70447,-0.12125 -1.94829,-0.26328 -3.9181,-0.0741 -5.86672,0.0863 -0.73249,0.0224 -1.46687,0.16519 -2.20097,0.1559 -1.02264,-0.0129 -2.02527,-0.20275 -3.02532,-0.39344 -2.09045,-0.43809 -4.06565,-1.25011 -5.98662,-2.16375 -1.90609,-0.91598 -3.4691,-2.35363 -5.05421,-3.72249 -1.41751,-1.19987 -2.80567,-2.43371 -4.21379,-3.64438 0,0 -2.1e-4,2e-5 -2.1e-4,2e-5 v 0 c 1.40814,1.21065 2.79633,2.44449 4.21385,3.64438 1.58508,1.36886 3.14809,2.80652 5.05417,3.72248 1.92097,0.91365 3.89617,1.72568 5.98664,2.16376 1.0002,0.19072 2.00291,0.38051 3.02569,0.39345 0.7341,0.009 1.46849,-0.13344 2.20097,-0.1559 1.94847,-0.1604 3.91815,-0.34951 5.86631,-0.0863 0.23481,0.0404 0.4726,0.0663 0.70446,0.12125 0.81615,0.1935 1.467,0.77182 2.08779,1.29968 1.10574,1.06724 2.19741,2.15891 3.1579,3.36067 z m 19.43388,-15.89767 c -0.29866,-0.87209 -0.59809,-1.74408 -0.82337,-2.63845 -0.16669,-0.4543 -0.26322,-0.92276 -0.35564,-1.39543 -0.0626,-0.4617 -0.19486,-0.90821 -0.28768,-1.3638 -0.0539,-0.46352 -0.25458,-0.8902 -0.44238,-1.31224 -0.21335,-0.5113 -0.48018,-0.99962 -0.7664,-1.47332 -0.19413,-0.34255 -0.39922,-0.67806 -0.62452,-1.00099 -0.0947,-0.13735 -0.21582,-0.25351 -0.33324,-0.37103 -0.21493,-0.22007 -0.4103,-0.45906 -0.61381,-0.6908 -0.41983,-0.52168 -0.86596,-1.02156 -1.26175,-1.56206 -0.24317,-0.3066 -0.47261,-0.61012 -0.60057,-0.9822 -0.15518,-0.33336 -0.20605,-0.69102 -0.23965,-1.05314 -0.0553,-0.42843 0.0218,-0.85221 0.0811,-1.27542 0.0635,-0.31189 0.0298,-0.637 0.0952,-0.94704 0.0662,-0.30648 0.14844,-0.60793 0.23033,-0.91063 0.0839,-0.24987 0.0802,-0.51612 0.13868,-0.77044 0.08,-0.32652 0.12185,-0.6589 0.14873,-0.99337 0.0387,-0.5235 0.0115,-1.0451 -0.0322,-1.56712 -0.0368,-0.68027 -0.14501,-1.35227 -0.23327,-2.02694 -0.0828,-0.62977 -0.28702,-1.23277 -0.45501,-1.84273 -0.11984,-0.56713 -0.35657,-1.09419 -0.63148,-1.60082 -0.33558,-0.59167 -0.68346,-1.18362 -1.09645,-1.72542 -0.50153,-0.68381 -1.101,-1.28807 -1.68664,-1.89884 -0.6259,-0.66647 -1.29805,-1.28878 -1.91558,-1.96293 -0.56921,-0.57229 -1.14508,-1.13122 -1.66418,-1.75014 -1.16353,-1.34147 -2.04852,-2.89029 -2.89102,-4.44485 -1.20284,-2.40684 -2.3825,-4.82555 -3.54268,-7.25331 -1.01923,-2.20365 -2.17862,-4.33613 -3.3211,-6.47686 -0.57506,-1.06078 -0.30095,-0.54019 -0.82418,-1.56079 0,0 -2.1e-4,10e-6 -2.1e-4,10e-6 v 0 c 0.52326,1.0206 0.24914,0.50002 0.82421,1.56079 1.1425,2.14073 2.30187,4.27321 3.32112,6.47686 1.16018,2.42775 2.33981,4.84647 3.54266,7.25331 0.84248,1.55456 1.72746,3.10337 2.89097,4.44485 0.51909,0.61893 1.09497,1.17787 1.66418,1.75015 0.61753,0.67414 1.2897,1.29645 1.91558,1.96293 0.58563,0.61076 1.1851,1.21503 1.68664,1.89884 0.41299,0.54179 0.7609,1.13374 1.09645,1.72541 0.2749,0.50663 0.5116,1.03369 0.63147,1.60081 0.16799,0.60996 0.37225,1.21296 0.45501,1.84274 0.0882,0.67466 0.19648,1.34667 0.23327,2.02693 0.0436,0.52202 0.0708,1.04362 0.0321,1.56712 -0.0268,0.33447 -0.0688,0.66685 -0.14873,0.99336 -0.0585,0.25433 -0.0548,0.52058 -0.13865,0.77045 -0.0819,0.30269 -0.16417,0.60414 -0.23033,0.91062 -0.0655,0.31004 -0.0317,0.63516 -0.0953,0.94705 -0.0593,0.42321 -0.13636,0.84699 -0.0811,1.27543 0.0335,0.36212 0.0845,0.71978 0.23962,1.05313 0.128,0.37209 0.35741,0.67561 0.60059,0.98222 0.39579,0.5405 0.84193,1.04037 1.26176,1.56206 0.20347,0.23174 0.39886,0.47073 0.61378,0.6908 0.11743,0.11752 0.23858,0.23368 0.33323,0.37102 0.22534,0.32293 0.4304,0.65844 0.62456,1.001 0.28623,0.47369 0.55306,0.96201 0.7664,1.47331 0.1878,0.42204 0.38852,0.84871 0.44236,1.31223 0.0928,0.45559 0.22507,0.90211 0.2877,1.3638 0.0924,0.47268 0.18896,0.94114 0.35564,1.39544 0.2253,0.89436 0.52474,1.76635 0.82338,2.63845 z m 6.8366,11.63411 c -0.81885,-2.30598 -1.31463,-4.71025 -1.89219,-7.0839 -0.60535,-2.46756 -1.35741,-4.8945 -2.07155,-7.33164 -0.53377,-1.72087 -0.97127,-3.46997 -1.13288,-5.26668 -0.10075,-1.76538 0.7253,-3.36466 1.47879,-4.90703 0.85192,-1.58253 1.57592,-3.21793 2.0238,-4.96254 0.36285,-1.41339 0.39316,-1.83164 0.61776,-3.2671 0.14379,-1.53485 0.25463,-3.10607 -0.0158,-4.63675 -0.30789,-1.74153 -1.03504,-3.32492 -1.76217,-4.91935 -1.43193,-2.79958 -2.99817,-5.52773 -4.63945,-8.20907 -1.21815,-1.95278 -2.66621,-3.73914 -4.1311,-5.50819 -1.12203,-1.30941 -2.29936,-2.56992 -3.44906,-3.85474 -1.18937,-1.34516 -2.42764,-2.64064 -3.71437,-3.89243 -1.30641,-1.21708 -2.7158,-2.31726 -4.11726,-3.42155 -0.92537,-0.68206 -1.63826,-1.55643 -2.29105,-2.49012 -0.90736,-1.23206 -1.64698,-2.5683 -2.28556,-3.95534 -0.48088,-1.11235 -0.85249,-2.26817 -1.18622,-3.43199 0,0 -2.4e-4,1e-5 -2.4e-4,1e-5 v 0 c 0.33376,1.16382 0.70538,2.31964 1.18627,3.43199 0.63856,1.38704 1.37818,2.72327 2.28554,3.95534 0.65276,0.9337 1.36566,1.80808 2.29106,2.49013 1.40148,1.10429 2.81087,2.20446 4.11728,3.42154 1.28671,1.2518 2.52499,2.54728 3.71434,3.89243 1.14971,1.28483 2.32706,2.54534 3.44909,3.85474 1.46492,1.76905 2.91293,3.55542 4.13112,5.50819 1.64128,2.68133 3.20752,5.40948 4.63948,8.20907 0.72712,1.59443 1.45428,3.17781 1.76214,4.91935 0.27058,1.53067 0.15977,3.10189 0.0158,4.63674 -0.22457,1.43546 -0.25488,1.85371 -0.61776,3.2671 -0.44788,1.74461 -1.17191,3.38 -2.02382,4.96254 -0.75352,1.54236 -1.57957,3.14165 -1.47882,4.90704 0.16161,1.79671 0.59914,3.54581 1.1329,5.26667 0.71417,2.43714 1.4662,4.86409 2.07158,7.33164 0.57757,2.37365 1.07335,4.77791 1.89211,7.0839 z m 8.9945,38.85366 c -0.67578,-0.7843 -1.32334,-1.59572 -1.94524,-2.42361 -0.22552,-0.37233 -0.51991,-0.65583 -0.85658,-0.92263 -0.61982,-0.46117 -1.32621,-0.75341 -2.0851,-0.87915 -0.77165,-0.0508 -1.52839,0.11745 -2.282,0.25566 -0.59079,0.12396 -0.82472,0.12505 -1.3248,-0.23539 -0.71677,-0.64759 -1.17071,-1.51135 -1.57641,-2.37353 -0.64944,-1.41518 -1.3232,-2.81842 -2.0493,-4.19583 -0.77252,-1.38367 -1.72988,-2.64231 -2.74885,-3.85027 -1.23337,-1.40605 -2.6456,-2.63289 -4.16909,-3.71162 -1.71986,-1.17775 -3.5788,-2.12656 -5.38195,-3.16538 -1.63082,-1.07982 -3.00049,-2.50806 -4.37262,-3.88976 -1.40986,-1.39323 -2.6476,-2.94255 -3.94539,-4.4364 -0.68165,-0.69147 -0.34661,-0.3654 -1.00222,-0.98118 0,0 -2e-4,2e-5 -2e-4,2e-5 v 0 c 0.65559,0.61577 0.32057,0.28971 1.00221,0.98117 1.29779,1.49385 2.53556,3.04317 3.94542,4.4364 1.37213,1.38169 2.74177,2.80997 4.37259,3.88977 1.80314,1.03881 3.66209,1.98761 5.38198,3.16538 1.52349,1.07873 2.93569,2.30556 4.16906,3.71162 1.01896,1.20796 1.97634,2.46659 2.74884,3.85026 0.72615,1.37741 1.3999,2.78065 2.04928,4.19583 0.40572,0.86218 0.85964,1.72594 1.57642,2.37354 0.50012,0.3605 0.73446,0.35937 1.32527,0.2354 0.75345,-0.13818 1.51003,-0.30647 2.28152,-0.25565 0.7589,0.12572 1.46529,0.41796 2.08511,0.87913 0.33666,0.26681 0.63105,0.55031 0.85657,0.92262 0.6219,0.82789 1.26948,1.6393 1.94524,2.42362 z m 2.0453,-10.63273 c 0.49794,-0.92254 0.80331,-1.90984 0.9964,-2.93515 0.16133,-0.77178 0.12263,-1.54046 -0.032,-2.30703 -0.0502,-0.16027 -0.092,-0.32335 -0.15039,-0.48082 -0.11456,-0.30927 -0.37494,-0.86828 -0.50752,-1.16122 -0.23269,-0.5142 -0.45493,-1.03203 -0.69642,-1.54214 -0.2569,-0.55826 -0.53083,-1.08903 -0.99828,-1.49495 -0.34596,-0.27857 -0.72871,-0.50819 -1.07902,-0.78084 -0.2891,-0.24211 -0.64859,-0.32075 -1.00965,-0.39083 -0.39448,-0.11977 -0.81574,-0.14302 -1.20818,-0.26478 -0.30274,-0.0929 -0.27597,-0.3701 -0.29158,-0.64264 -0.0158,-0.54983 0.008,-1.09926 -0.025,-1.64844 -0.0299,-0.7633 -0.29319,-1.48313 -0.52071,-2.20351 -0.21133,-0.7296 -0.51834,-1.40793 -0.94611,-2.03308 -0.61792,-0.83773 -1.28043,-1.64445 -1.94769,-2.44361 -0.32832,-0.39633 -0.64732,-0.80489 -1.02563,-1.15545 0,0 -2.5e-4,3e-5 -2.5e-4,3e-5 v 0 c 0.37832,0.35055 0.69733,0.75911 1.02564,1.15544 0.66729,0.79915 1.32981,1.60587 1.9477,2.44361 0.42774,0.62514 0.73477,1.30348 0.94611,2.03307 0.22752,0.72038 0.49076,1.44021 0.52071,2.2035 0.0328,0.54918 0.009,1.09861 0.025,1.64845 0.0156,0.27254 -0.0112,0.54973 0.29155,0.64266 0.39243,0.12177 0.81372,0.14501 1.20821,0.26479 0.36102,0.0701 0.72052,0.14871 1.00965,0.39081 0.3503,0.27266 0.73303,0.50226 1.07899,0.78084 0.46745,0.40591 0.74141,0.93669 0.99831,1.49493 0.24151,0.51012 0.46375,1.02795 0.69644,1.54215 0.13258,0.29295 0.39293,0.85193 0.50749,1.16121 0.0583,0.15748 0.10026,0.32055 0.1504,0.48083 0.15463,0.76656 0.19333,1.53524 0.0321,2.30702 -0.1931,1.02531 -0.49844,2.01261 -0.99641,2.93514 z m 10.18127,21.29563 c -0.10575,-0.89607 -0.41968,-1.72886 -0.84641,-2.51738 -0.24083,-0.42254 -0.53645,-0.811 -0.79095,-1.22427 -0.17121,-0.29176 -0.10866,-0.60206 -0.0397,-0.9161 0.11522,-0.40014 0.31299,-0.76661 0.4758,-1.14768 0.0858,-0.17723 0.1193,-0.36803 0.1338,-0.56235 -0.10081,-0.43751 -0.62048,-0.75249 -0.94666,-1.03043 -0.34614,-0.29435 -0.6149,-0.63034 -0.77074,-1.05676 -0.12661,-0.49565 -0.0452,-1.02378 -0.005,-1.52835 0.0457,-0.4175 -0.0395,-0.83141 -0.15797,-1.22969 -0.17787,-0.62201 -0.46162,-1.20168 -0.73821,-1.78366 -0.24459,-0.45396 -0.45967,-0.92357 -0.7268,-1.36504 -0.18102,-0.32972 -0.41423,-0.62668 -0.63347,-0.93122 -0.34947,-0.393 -0.62635,-0.83948 -0.91025,-1.28014 -0.29601,-0.48282 -0.63416,-0.93832 -0.99943,-1.37064 -0.20527,-0.2567 -0.48509,-0.4346 -0.73769,-0.63971 -0.20233,-0.15524 -0.42727,-0.27492 -0.67529,-0.33549 -0.0831,-0.0194 -0.1683,-0.0232 -0.25307,-0.0282 0,0 -2.3e-4,4e-5 -2.3e-4,4e-5 v 0 c 0.0848,0.005 0.16998,0.009 0.25304,0.0282 0.24804,0.0606 0.47299,0.18024 0.67532,0.33548 0.2526,0.20511 0.53242,0.38301 0.73769,0.6397 0.36524,0.43232 0.70342,0.88782 0.99942,1.37065 0.28388,0.44065 0.56078,0.88714 0.91025,1.28013 0.21922,0.30455 0.45244,0.6015 0.63346,0.93122 0.26715,0.44147 0.48222,0.91108 0.72681,1.36504 0.27659,0.58198 0.56034,1.16165 0.73818,1.78366 0.11845,0.39827 0.20366,0.81218 0.158,1.22968 -0.0399,0.50457 -0.12131,1.0327 0.005,1.52836 0.15583,0.42642 0.42456,0.76242 0.77071,1.05677 0.32618,0.27794 0.84585,0.59291 0.94665,1.03041 -0.0146,0.19432 -0.048,0.38511 -0.1338,0.56234 -0.1628,0.38107 -0.36055,0.74755 -0.47579,1.14768 -0.0689,0.31405 -0.13148,0.62436 0.0397,0.91612 0.25452,0.41328 0.55014,0.80173 0.79098,1.22427 0.42672,0.78852 0.74068,1.6213 0.8464,2.51737 z m -1.17077,1.43064 c -0.71019,-0.61608 -1.43583,-1.24879 -1.96262,-2.03519 -0.16214,-0.37112 -0.42749,-0.67519 -0.65925,-1.00268 -0.20436,-0.37331 -0.34183,-0.78087 -0.48308,-1.18169 -0.0218,-0.0426 -0.0325,-0.0934 -0.0658,-0.12784 -0.21159,-0.21874 -0.76953,-0.23585 -1.05827,-0.26301 -0.32947,0.015 -0.47487,-0.2048 -0.63466,-0.44846 -0.11285,-0.13561 -0.17941,-0.28028 -0.20969,-0.45257 -0.0366,-0.18407 -0.006,-0.3624 0.036,-0.54259 0.0413,-0.22533 0.14643,-0.45078 0.0785,-0.67596 -0.10192,-0.189 -0.17529,-0.39696 -0.32377,-0.55498 -0.14649,-0.15042 -0.33547,-0.24581 -0.51321,-0.35392 -0.12792,-0.0684 -0.24282,-0.13257 -0.34666,-0.23529 -0.13166,-0.18587 -0.2443,-0.38325 -0.35619,-0.58128 -0.1232,-0.18727 -0.19185,-0.39697 -0.23637,-0.61455 -0.0218,-0.13842 -0.0234,-0.27858 -0.0234,-0.41834 -0.0187,-0.13732 0.0195,-0.22391 0.0862,-0.33878 0.11727,-0.17357 0.0509,-0.25029 -0.11589,-0.34666 -0.18693,-0.0773 -0.3889,-0.10055 -0.58696,-0.13144 0,0 -2.7e-4,3e-5 -2.7e-4,3e-5 v 0 c 0.1981,0.0309 0.40003,0.0542 0.58699,0.13144 0.16684,0.0964 0.23314,0.17305 0.11587,0.34662 -0.0665,0.11487 -0.10499,0.20147 -0.0862,0.33879 3e-5,0.13976 0.003,0.27992 0.0234,0.41834 0.0446,0.21759 0.11315,0.42729 0.23636,0.61456 0.11188,0.19804 0.22455,0.39542 0.35618,0.58129 0.10385,0.10272 0.21876,0.1669 0.34669,0.2353 0.17772,0.10811 0.36673,0.2035 0.51319,0.3539 0.14847,0.15803 0.22185,0.36598 0.32377,0.55498 0.0679,0.22517 -0.0372,0.45062 -0.0785,0.67594 -0.0419,0.18019 -0.0726,0.35853 -0.036,0.5426 0.0303,0.1723 0.0969,0.31697 0.20971,0.45258 0.15977,0.24367 0.30517,0.46348 0.63463,0.44849 0.28875,0.0271 0.84671,0.0443 1.05831,0.26298 0.0333,0.0344 0.0439,0.0853 0.0658,0.12784 0.14127,0.40082 0.27873,0.80838 0.48306,1.1817 0.23178,0.32749 0.49711,0.63155 0.65927,1.00267 0.52679,0.7864 1.25244,1.4191 1.96263,2.0352 z M 144.11343,91.18192 c 0.23153,0.991223 0.3748,2.000349 0.51843,3.007246 0,0 2.1e-4,-3e-6 2.1e-4,-3e-6 v 0 c -0.14363,-1.006894 -0.2869,-2.01602 -0.5184,-3.007248 z m -8.66014,4.166882 c -0.22268,1.642179 -0.3986,3.287104 -0.48684,4.942028 -0.007,0.1664 -0.0136,0.33279 -0.0203,0.49918 0,0 2.3e-4,0 2.3e-4,0 v 0 c 0.007,-0.16639 0.0136,-0.33278 0.0203,-0.49917 0.0882,-1.654934 0.26413,-3.299862 0.48686,-4.942038 z m 0.51797,-7.36255 c 0.94758,1.050833 1.80001,2.176577 2.64048,3.312574 0.45032,0.605307 0.76681,1.179541 0.90047,1.922484 0.0522,0.5029 -0.012,0.990218 -0.16109,1.468867 -0.0313,0.09841 -0.0656,0.195738 -0.10085,0.292761 0,0 2.6e-4,8e-6 2.6e-4,8e-6 v 0 c 0.0352,-0.09703 0.0696,-0.194353 0.10085,-0.292764 0.14914,-0.478652 0.21331,-0.965974 0.16109,-1.468877 -0.13367,-0.742953 -0.45017,-1.317185 -0.90052,-1.922495 -0.84047,-1.135984 -1.69294,-2.261719 -2.64045,-3.312576 z m 14.06786,6.792231 c -1.16157,0.897775 -1.91392,1.804331 -2.59561,3.101003 -0.27472,0.53272 -0.43481,1.10731 -0.59063,1.68216 0,0 2.2e-4,1e-5 2.2e-4,1e-5 v 0 c 0.15582,-0.57485 0.31591,-1.14944 0.59065,-1.68216 0.68169,-1.29668 1.434,-2.203227 2.59561,-3.100991 z m 0.29648,27.021777 c -0.96068,-1.89686 -1.45287,-3.9788 -1.86276,-6.05162 -0.28955,-1.42759 -0.35594,-2.88083 -0.3812,-4.33258 0.004,-1.5913 0.44414,-3.13829 0.90529,-4.64805 0.3841,-1.25338 0.73324,-2.53632 1.36867,-3.69323 0.11459,-0.20864 0.25275,-0.40343 0.37916,-0.60515 0.42675,-0.55283 0.9509,-1.0116 1.47346,-1.4691 0,0 -2.1e-4,-2e-5 -2.1e-4,-2e-5 v 0 c -0.52257,0.45751 -1.0467,0.91628 -1.47346,1.46911 -0.1264,0.20172 -0.26456,0.39651 -0.37916,0.60515 -0.63541,1.15691 -0.98456,2.43985 -1.36867,3.69323 -0.46115,1.50976 -0.90178,3.05675 -0.90529,4.64806 0.0253,1.45175 0.0917,2.90499 0.38122,4.33258 0.40992,2.07282 0.90211,4.15474 1.86271,6.05163 z M 140.13216,111.6048 c -0.14069,-1.63347 -0.37649,-3.25775 -0.64245,-4.87506 -0.14869,-0.97411 -0.486,-1.89839 -0.78623,-2.8319 -0.106,-0.50497 -0.37266,-0.97955 -0.43305,-1.49576 -0.0619,-0.52967 -0.0375,-1.0647 -0.0329,-1.59575 0.0457,-1.808774 0.12676,-3.616364 0.18832,-5.42461 0.018,-0.574338 0.034,-1.148802 0.0391,-1.723419 -0.0308,-0.165174 -0.008,-0.07953 -0.0744,-0.255484 0,0 -2.6e-4,8e-6 -2.6e-4,8e-6 v 0 c 0.0668,0.175952 0.0437,0.09031 0.0745,0.255476 -0.005,0.574617 -0.0211,1.149081 -0.0391,1.723419 -0.0616,1.808246 -0.14254,3.615836 -0.18829,5.42461 -0.004,0.53091 -0.029,1.06619 0.0329,1.59576 0.0604,0.51621 0.32704,0.99078 0.43305,1.49576 0.30022,0.93351 0.63753,1.85779 0.78624,2.8319 0.26601,1.6173 0.50179,3.24158 0.64243,4.87505 z m 5.93987,5.51681 c -0.71709,-1.66624 -1.47522,-3.32437 -2.01766,-5.05868 -0.12427,-0.39725 -0.22632,-0.8011 -0.33948,-1.20166 -0.40857,-1.64636 -0.72343,-3.34211 -0.59596,-5.04638 0.0195,-0.2619 0.0656,-0.52116 0.0984,-0.78174 0.15667,-1.02154 0.51125,-1.9973 0.73804,-3.00324 0.16902,-0.74963 0.19972,-1.0551 0.31453,-1.8237 0.1921,-1.372434 0.26204,-2.773244 -0.0258,-4.138547 -0.0605,-0.286755 -0.14625,-0.567578 -0.21937,-0.851368 -0.0957,-0.287335 -0.19138,-0.574671 -0.28705,-0.862007 0,0 -1.8e-4,6e-6 -1.8e-4,6e-6 v 0 c 0.0957,0.287335 0.19134,0.574671 0.28702,0.862007 0.0732,0.283789 0.1589,0.564612 0.21938,0.851364 0.28781,1.365301 0.21788,2.766111 0.0258,4.138545 -0.11482,0.76866 -0.1455,1.07402 -0.31452,1.82369 -0.22682,1.00594 -0.58139,1.98171 -0.73806,3.00325 -0.0328,0.26058 -0.0788,0.51983 -0.0984,0.78174 -0.12745,1.70428 0.18745,3.40002 0.59598,5.04638 0.11316,0.40056 0.21524,0.80441 0.33948,1.20167 0.54244,1.7343 1.30061,3.39242 2.01763,5.05868 z m 11.46291,-10.68506 c -0.044,-0.79287 -0.0948,-1.58533 -0.14228,-2.37799 0,0 -2.1e-4,0 -2.1e-4,0 v 0 c 0.0475,0.79266 0.0983,1.58512 0.14225,2.37799 z m 9.65353,12.60531 c 0.36256,-0.65349 0.18009,-0.31973 0.54693,-1.00154 0,0 -2e-4,-10e-6 -2e-4,-10e-6 v 0 c -0.36685,0.68182 -0.18438,0.34805 -0.54697,1.00154 z m -4.07817,-0.34857 c 0.54902,-1.0429 1.03262,-2.11742 1.56156,-3.17031 0.13498,-0.27071 0.25559,-0.54715 0.36308,-0.82965 0,0 -2.4e-4,-2e-5 -2.4e-4,-2e-5 v 0 c -0.10752,0.28251 -0.22809,0.55895 -0.36306,0.82966 -0.52893,1.0529 -1.01254,2.12743 -1.56158,3.17031 z m -3.65512,-3.95934 c -0.0403,-2.14621 -0.28596,-4.28056 -0.53968,-6.40975 -0.0468,-0.35181 -0.0936,-0.70362 -0.1404,-1.05542 0,0 -1.9e-4,0 -1.9e-4,0 v 0 c 0.0468,0.3518 0.0936,0.70362 0.14041,1.05542 0.25374,2.12919 0.49942,4.26354 0.53962,6.40975 z m -2.8471,13.85857 c -0.0643,-1.77458 -0.26439,-3.53996 -0.38834,-5.31079 -0.10382,-1.76708 -0.20679,-3.53398 -0.27839,-5.30273 -0.0436,-1.08612 -0.051,-2.17319 -0.0545,-3.26003 -0.0263,-0.99131 0.0138,-1.97888 0.0849,-2.96719 0.0638,-0.85134 0.16782,-1.69889 0.23056,-2.55055 0.0276,-0.48893 0.0158,-0.24936 0.036,-0.7187 0,0 -2.3e-4,0 -2.3e-4,0 v 0 c -0.0203,0.46934 -0.008,0.22977 -0.036,0.7187 -0.0628,0.85166 -0.16674,1.69921 -0.23057,2.55055 -0.0711,0.98831 -0.11108,1.97588 -0.0849,2.96719 0.003,1.08684 0.0109,2.17391 0.0545,3.26003 0.0716,1.76875 0.17459,3.53566 0.27838,5.30273 0.12399,1.77083 0.32406,3.53621 0.38833,5.31079 z m 5.00503,6.07293 c -0.17647,-2.72459 -0.24328,-5.45448 -0.29416,-8.18379 -0.0524,-2.95162 -0.088,-5.90948 0.18352,-8.85179 0.13211,-1.16453 0.30837,-2.36295 0.90149,-3.39071 0.0684,-0.0954 0.13666,-0.19078 0.20499,-0.28617 0,0 -2.4e-4,-1e-5 -2.4e-4,-1e-5 v 0 c -0.0683,0.0954 -0.13666,0.19078 -0.20498,0.28617 -0.5931,1.02776 -0.76933,2.22618 -0.90143,3.39072 -0.27155,2.94231 -0.2359,5.90017 -0.1835,8.8518 0.0508,2.7293 0.11771,5.45918 0.29408,8.18378 z m 3.58859,5.93191 c 0.17594,-2.51035 -0.17231,-5.01579 -0.44547,-7.50609 -0.29448,-2.22398 -0.63439,-4.44818 -0.68023,-6.69565 -0.008,-0.40051 0.007,-0.80115 0.0104,-1.20173 0.0476,-2.01576 0.33436,-3.9248 0.99498,-5.82836 0.27459,-0.80828 0.72255,-1.51719 1.29813,-2.13953 0,0 -2.3e-4,-2e-5 -2.3e-4,-2e-5 v 0 c -0.57557,0.62234 -1.02355,1.33126 -1.29811,2.13954 -0.66059,1.90357 -0.94733,3.81261 -0.99493,5.82837 -0.003,0.40058 -0.0185,0.80122 -0.0104,1.20173 0.0458,2.24747 0.38575,4.47168 0.68027,6.69565 0.27315,2.4903 0.62141,4.99574 0.44538,7.50609 z m 8.91204,-2.8329 c 0.73961,-1.08873 1.43008,-2.214 1.98098,-3.41059 0.21177,-0.46827 0.11253,-0.24713 0.29815,-0.66322 0,0 -2.3e-4,-1e-5 -2.3e-4,-1e-5 v 0 c -0.18563,0.4161 -0.0863,0.19495 -0.29816,0.66322 -0.5509,1.1966 -1.24133,2.32187 -1.98097,3.41058 z m -2.6839,-2.01693 c 0.26046,-0.54067 0.55906,-1.08202 0.71034,-1.66774 0.24756,-0.95861 0.28315,-1.97103 0.35388,-2.95277 0.075,-1.50715 -0.0198,-3.02445 -0.32627,-4.50274 -0.10933,-0.42424 -0.0469,-0.22598 -0.18133,-0.59664 0,0 -2.3e-4,10e-6 -2.3e-4,10e-6 v 0 c 0.13444,0.37066 0.072,0.1724 0.18133,0.59663 0.30652,1.47829 0.40136,2.99559 0.32628,4.50274 -0.0707,0.98174 -0.10631,1.99415 -0.35386,2.95276 -0.15128,0.58572 -0.44988,1.12708 -0.71037,1.66774 z m 2.99612,-3.38104 c -0.0767,-1.78484 -0.15168,-3.56975 -0.22336,-5.3548 0,0 -1.9e-4,0 -1.9e-4,0 v 0 c 0.0717,1.78505 0.14665,3.56996 0.22331,5.3548 z m 0.4816,19.41973 c 0.26496,-1.19822 0.61016,-2.37836 0.84033,-3.5845 0.1599,-0.83784 0.18555,-1.15313 0.29179,-2.00095 0.12763,-0.98046 0.0783,-1.96073 0.0164,-2.94241 0,0 -1.9e-4,0 -1.9e-4,0 v 0 c 0.0619,0.98168 0.11116,1.96195 -0.0164,2.94241 -0.10624,0.84787 -0.1319,1.16305 -0.29179,2.00094 -0.2302,1.20615 -0.57537,2.3863 -0.84038,3.5845 z m -3.84847,-4.21123 c 0.35992,-1.41261 0.75639,-2.82455 0.97171,-4.26906 0.17254,-1.15738 0.22398,-2.0417 0.31927,-3.21262 0.0314,-0.5333 0.0626,-1.06661 0.094,-1.59991 0,0 -1.6e-4,0 -1.6e-4,0 v 0 c -0.0314,0.5333 -0.0626,1.06661 -0.094,1.59991 -0.0953,1.17102 -0.14671,2.05513 -0.31927,3.21261 -0.21536,1.44451 -0.6118,2.85647 -0.97177,4.26906 z m 8.95019,-3.41121 c 0.18734,-1.92186 0.21203,-3.85099 0.21013,-5.78013 -0.004,-0.79944 -0.0133,-1.59884 -0.0218,-2.39825 0,0 -2e-4,0 -2e-4,0 v 0 c 0.009,0.79941 0.0182,1.59881 0.0218,2.39825 0.003,1.92914 -0.0229,3.85827 -0.21019,5.78013 z m 0.37073,15.08167 c 0.0887,-1.56803 0.18807,-3.13499 0.25398,-4.7043 0.0486,-1.90979 0.12622,-3.81853 0.22718,-5.72626 0.0486,-1.50569 0.31937,-2.97436 0.83152,-4.39158 0.2841,-0.7862 0.71135,-1.73241 1.04709,-2.50134 0,0 -1.8e-4,-10e-6 -1.8e-4,-10e-6 v 0 c -0.33567,0.76881 -0.76301,1.71528 -1.04707,2.50135 -0.51215,1.41721 -0.78294,2.88589 -0.83155,4.39157 -0.10097,1.90774 -0.17857,3.81648 -0.22718,5.72627 -0.0659,1.56931 -0.16527,3.13627 -0.25403,4.7043 z m -2.31314,-5.19042 c -0.30826,-2.3972 -0.43134,-4.81412 -0.59152,-7.22458 -0.13134,-2.32031 -0.27305,-4.64021 -0.36977,-6.9623 0,0 -1.7e-4,0 -1.7e-4,0 v 0 c 0.0967,2.32209 0.23842,4.64199 0.36979,6.9623 0.16018,2.41046 0.28325,4.82738 0.59143,7.22458 z m 9.54263,-3.72962 c 0.0579,-0.94866 0.0833,-1.89898 0.11218,-2.84887 0,0 -2.2e-4,0 -2.2e-4,0 v 0 c -0.0288,0.94989 -0.0543,1.90021 -0.11219,2.84887 z m 0.30423,14.41469 c -0.17798,-2.31476 -0.23282,-4.63675 -0.28471,-6.95707 -0.0286,-1.28472 -0.039,-2.56969 -0.0432,-3.85468 0,0 -2.4e-4,0 -2.4e-4,0 v 0 c 0.004,1.28499 0.0146,2.56996 0.0433,3.85468 0.0519,2.32032 0.10679,4.6423 0.28467,6.95707 z m 4.84185,-3.248 c -0.15905,-1.52825 -0.37234,-3.0501 -0.54014,-4.57747 -0.0822,-1.09434 -0.20038,-2.19505 -0.15622,-3.29378 0,0 -2.4e-4,0 -2.4e-4,0 v 0 c -0.0442,1.09873 0.0741,2.19944 0.15625,3.29378 0.1678,1.52737 0.38109,3.04921 0.54012,4.57747 z m -0.90468,9.01671 c -0.10978,-2.29071 -0.66174,-4.52993 -1.15354,-6.76124 -0.44338,-1.98008 -0.94028,-3.94783 -1.33534,-5.93835 -0.043,-0.20452 -0.0859,-0.40904 -0.12896,-0.61356 0,0 -2.1e-4,0 -2.1e-4,0 v 0 c 0.043,0.20453 0.086,0.40904 0.12896,0.61357 0.39511,1.99052 0.89202,3.95826 1.33537,5.93835 0.49182,2.2313 1.04378,4.47052 1.15348,6.76123 z m 3.46972,8.43045 c 0.32138,-0.77681 0.6108,-1.56576 0.938,-2.34018 0.11467,-0.31176 0.25294,-0.61312 0.41497,-0.90236 0.0528,-0.1114 0.1271,-0.20881 0.20102,-0.30652 0,0 -2.6e-4,-2e-5 -2.6e-4,-2e-5 v 0 c -0.074,0.0978 -0.14818,0.19512 -0.20103,0.30652 -0.16202,0.28925 -0.30027,0.59061 -0.41494,0.90237 -0.32718,0.77442 -0.61662,1.56338 -0.93798,2.34018 z m 0.28206,-6.45788 c 0.23226,-2.40707 0.1198,-4.83145 0.0614,-7.24467 -0.035,-1.2996 -0.018,-0.68406 -0.0507,-1.84666 0,0 -2.1e-4,0 -2.1e-4,0 v 0 c 0.0329,1.1626 0.0158,0.54706 0.0508,1.84666 0.0585,2.41322 0.17095,4.8376 -0.0614,7.24467 z m 5.81306,15.17037 c 0.41655,-1.32856 0.68318,-2.69503 0.8988,-4.06854 0.15219,-0.97283 0.0729,-0.49112 0.23767,-1.44523 0,0 -2.2e-4,0 -2.2e-4,0 v 0 c -0.1648,0.95411 -0.0855,0.47239 -0.23766,1.44522 -0.21563,1.37351 -0.48226,2.73999 -0.89886,4.06855 z m -4.52343,-1.80936 c 1.42677,-1.61107 2.04511,-3.72366 2.70802,-5.72551 0.48763,-1.47646 0.85428,-2.98176 1.10103,-4.51515 0,0 -1.8e-4,0 -1.8e-4,0 v 0 c -0.24675,1.53338 -0.61338,3.03868 -1.10101,4.51514 -0.66291,2.00187 -1.28127,4.11445 -2.7081,5.7255 z m 10.22557,13.83638 c 0.35945,-1.51244 0.61186,-3.04479 0.79707,-4.58761 0.13549,-1.2473 0.19958,-2.50296 0.11265,-3.75646 -0.0638,-0.91998 -0.15995,-1.46583 -0.29202,-2.39428 0,0 -1.9e-4,0 -1.9e-4,0 v 0 c 0.1321,0.92855 0.22819,1.47421 0.292,2.39428 0.0869,1.2535 0.0229,2.50916 -0.11261,3.75646 -0.18524,1.54282 -0.43764,3.07517 -0.79713,4.58761 z m 12.79069,14.08829 c 0.13964,-0.93912 0.30773,-1.88471 0.33646,-2.83617 0.0226,-0.74873 -0.0297,-1.13931 -0.09,-1.88282 -0.0957,-0.78815 -0.27523,-1.55979 -0.469,-2.32807 0,0 -2.3e-4,1e-5 -2.3e-4,1e-5 v 0 c 0.19379,0.76827 0.37336,1.53991 0.46903,2.32806 0.0603,0.74355 0.11259,1.13404 0.09,1.88282 -0.0287,0.95146 -0.19681,1.89705 -0.33649,2.83617 z m -3.93718,-6.29468 c 0.0652,-1.58428 -0.0612,-3.18803 -0.32078,-4.75245 -0.15351,-0.92515 -0.37754,-1.83814 -0.58711,-2.75134 -0.59,-2.26693 -1.26807,-4.50935 -1.90297,-6.76385 0,0 -1.2e-4,1e-5 -1.2e-4,1e-5 v 0 c 0.63489,2.25449 1.31296,4.49691 1.90294,6.76384 0.20956,0.91329 0.43359,1.8261 0.58709,2.75134 0.25956,1.56443 0.38594,3.16817 0.32071,4.75245 z m -22.45214,-13.42129 c 0.0289,-1.66714 -0.1375,-3.32873 -0.35213,-4.97964 -0.14377,-1.11882 -0.27675,-2.23935 -0.54622,-3.33602 -0.0482,-0.14497 -0.0964,-0.28995 -0.14456,-0.43492 0,0 -2.4e-4,0 -2.4e-4,0 v 0 c 0.0482,0.14498 0.0964,0.28995 0.14457,0.43493 0.26947,1.09667 0.40248,2.21719 0.54623,3.33601 0.21468,1.65091 0.38104,3.3125 0.35211,4.97964 z m -24.2234,-18.08579 c -0.83009,-0.36954 -1.65877,-0.73317 -2.4006,-1.26186 -0.4536,-0.35922 -0.22744,-0.17975 -0.67844,-0.5384 0,0 -2.3e-4,1e-5 -2.3e-4,1e-5 v 0 c 0.451,0.35866 0.22486,0.1792 0.67844,0.53841 0.74183,0.5287 1.57053,0.89231 2.40059,1.26187 z m 8.69031,-5.88756 c -1.13812,-0.32903 -2.31547,-0.47051 -3.48688,-0.62215 -0.91585,-0.18273 -1.73794,-0.076 -2.62195,0.17377 -0.43817,0.14802 -0.22811,0.0733 -0.63064,0.22296 0,0 2.3e-4,3e-5 2.3e-4,3e-5 v 0 c 0.40253,-0.14973 0.19247,-0.0749 0.63065,-0.22296 0.88386,-0.24974 1.70578,-0.35649 2.6215,-0.17377 1.17139,0.15164 2.34874,0.29312 3.48685,0.62215 z m 17.91252,23.96359 c 0.61251,1.30172 1.1873,2.64338 2.0097,3.83225 0.21254,0.30721 0.45405,0.5933 0.68107,0.88995 1.62216,1.93867 3.73022,3.35992 5.86509,4.67199 1.31213,0.73133 0.66832,0.38789 1.92927,1.03423 0,0 2.1e-4,-2e-5 2.1e-4,-2e-5 v 0 c -1.26097,-0.64634 -0.61719,-0.3029 -1.92932,-1.03422 -2.13486,-1.31207 -4.24293,-2.73332 -5.86506,-4.67199 -0.22703,-0.29665 -0.46855,-0.58274 -0.68105,-0.88995 -0.82241,-1.18887 -1.39719,-2.53052 -2.00967,-3.83225 z m -18.54515,-19.90134 c 1.89029,1.42046 3.79734,2.81818 5.66716,4.26642 0.78858,0.6277 1.58682,1.25131 2.31917,1.94576 0.17972,0.17044 0.36613,0.33651 0.52116,0.52969 0.38228,0.47638 0.74955,1.17411 1.04545,1.69231 1.00853,1.80147 1.78808,3.72161 2.48917,5.66019 0.36519,1.05959 0.76123,2.10769 1.11375,3.17157 0,0 1.8e-4,0 1.8e-4,0 v 0 c -0.35249,-1.06389 -0.74857,-2.11198 -1.11375,-3.17157 -0.70108,-1.93859 -1.48063,-3.85873 -2.48917,-5.6602 -0.29584,-0.51815 -0.66316,-1.21597 -1.04542,-1.69231 -0.15503,-0.19318 -0.34144,-0.35926 -0.52116,-0.5297 -0.73238,-0.69445 -1.53062,-1.31806 -2.3192,-1.94576 -1.86981,-1.44822 -3.77687,-2.84594 -5.66711,-4.26642 z m -5.88755,1.51313 c 1.82653,0.53035 3.49606,1.4588 5.13076,2.40913 1.55227,0.99311 3.10584,2.01586 4.48716,3.24279 0.31481,0.27964 0.6093,0.58138 0.91397,0.87206 1.68781,1.68643 3.1495,3.5815 4.60791,5.46494 1.09177,1.37622 2.03255,2.85969 3.01407,4.31351 0,0 2.4e-4,-10e-6 2.4e-4,-10e-6 v 0 c -0.98158,-1.45381 -1.92233,-2.93729 -3.01415,-4.31351 -1.45839,-1.88345 -2.92008,-3.77852 -4.60789,-5.46494 -0.30466,-0.29068 -0.59916,-0.59242 -0.91398,-0.87206 -1.38134,-1.22694 -2.93488,-2.24969 -4.48715,-3.2428 -1.6347,-0.95032 -3.30421,-1.87877 -5.13073,-2.40914 z m -15.03708,-26.9375 c 1.1881,-0.40153 2.25383,-0.53285 3.49804,-0.4539 0.56318,0.0164 1.08899,0.20573 1.61368,0.39004 0,0 2.4e-4,-3e-5 2.4e-4,-3e-5 v 0 c -0.52469,-0.18431 -1.0505,-0.37365 -1.61368,-0.39004 -1.2444,-0.079 -2.31025,0.0523 -3.4985,0.4539 z m 7.97076,9.07526 c 0.69842,0.15299 1.43343,0.1643 2.11849,0.38033 0.36847,0.11618 0.53975,0.22625 0.87507,0.40453 0.60046,0.36005 1.06892,0.89086 1.65961,1.26396 0.66168,0.31713 1.42679,0.23176 2.13935,0.20317 0.10083,-0.005 0.20165,-0.0106 0.30248,-0.0159 0,0 -2.4e-4,-3e-5 -2.4e-4,-3e-5 v 0 c -0.10083,0.005 -0.20165,0.0106 -0.30248,0.0159 -0.7124,0.0286 -1.47733,0.11392 -2.13889,-0.20316 -0.59068,-0.37311 -1.05913,-0.90391 -1.65959,-1.26397 -0.33532,-0.17828 -0.50664,-0.28835 -0.87508,-0.40454 -0.68505,-0.21602 -1.42006,-0.22733 -2.11849,-0.38033 z m -8.61555,10.46332 c 1.43312,-1.31557 3.16243,-2.25395 4.82643,-3.24215 0.83657,-0.55918 1.78941,-0.96572 2.55442,-1.62805 0.0787,-0.0788 0.15737,-0.15746 0.23608,-0.2362 0,0 -2.4e-4,-2e-5 -2.4e-4,-2e-5 v 0 c -0.0787,0.0788 -0.15738,0.15747 -0.23607,0.2362 -0.76501,0.66233 -1.71783,1.06888 -2.5544,1.62805 -1.66397,0.98822 -3.39331,1.9266 -4.82646,3.24215 z m -11.07796,-6.13946 c 1.00933,-0.81282 2.05265,-1.59184 3.17117,-2.24976 0.75832,-0.44602 0.97098,-0.52737 1.74361,-0.89457 0.81588,-0.30608 1.70022,-0.7229 2.59806,-0.58995 0.43389,0.0642 0.60505,0.17573 0.99701,0.35493 0.58912,0.30792 1.06639,0.78099 1.63277,1.12434 0.47656,0.2889 0.52966,0.28189 1.06393,0.49075 1.18447,0.33921 2.43705,0.46515 3.65689,0.27411 0.71793,-0.13713 1.32206,-0.53375 1.87054,-0.99708 0.1759,-0.16026 0.0983,-0.078 0.23623,-0.24353 0,0 -2.5e-4,-2e-5 -2.5e-4,-2e-5 v 0 c -0.13796,0.16552 -0.0603,0.0833 -0.23624,0.24353 -0.54845,0.46333 -1.15257,0.85994 -1.87049,0.99707 -1.21971,0.19101 -2.47213,0.0651 -3.65647,-0.27411 -0.53424,-0.20885 -0.58734,-0.20184 -1.0639,-0.49074 -0.56638,-0.34334 -1.04366,-0.81642 -1.63278,-1.12434 -0.39188,-0.17916 -0.56322,-0.29073 -0.99703,-0.35495 -0.898,-0.13292 -1.78244,0.28374 -2.59848,0.58997 -0.7726,0.3672 -0.98526,0.44855 -1.74359,0.89458 -1.11854,0.65791 -2.16186,1.43695 -3.17122,2.24975 z m -2.99612,-3.13713 c 1.01943,-0.10858 1.98074,-0.44757 2.93868,-0.79372 0.9973,-0.36036 1.86269,-0.69634 2.83548,-1.13669 0.57113,-0.25855 1.13066,-0.542 1.696,-0.81301 2.2205,-1.00713 4.34233,-2.33231 6.71141,-2.98347 0.25994,-0.0715 0.52688,-0.11431 0.7903,-0.17145 0.92904,-0.15141 1.78822,0.19367 2.66706,0.42821 0,0 2.4e-4,-3e-5 2.4e-4,-3e-5 v 0 c -0.87898,-0.23457 -1.73831,-0.57966 -2.66749,-0.4282 -0.26345,0.0571 -0.53038,0.1 -0.79029,0.17144 -2.36906,0.65119 -4.49086,1.97637 -6.71137,2.98348 -0.56533,0.27101 -1.12487,0.55447 -1.696,0.81302 -0.97267,0.44029 -1.83831,0.77636 -2.83551,1.13669 -0.95795,0.34614 -1.91928,0.68512 -2.93871,0.79369 z m -13.95964,-12.99826 c -0.81674,-0.25928 -1.64756,-0.47571 -2.45137,-0.77392 -0.25671,-0.0888 -0.51357,-0.17594 -0.77026,-0.26502 0,0 -2.3e-4,3e-5 -2.3e-4,3e-5 v 0 c 0.25668,0.0891 0.51355,0.17621 0.77026,0.26501 0.80381,0.29821 1.63462,0.51464 2.45136,0.77394 z m 12.18042,-5.47243 c 1.0751,-0.0485 2.13382,-0.24925 3.16543,-0.54906 0.75474,-0.30145 1.43864,-0.75272 2.10012,-1.21905 0.55734,-0.42328 1.1801,-0.73887 1.78634,-1.08281 0.42317,-0.25164 0.82977,-0.53158 1.22252,-0.82814 0,0 -2.4e-4,-2e-5 -2.4e-4,-2e-5 v 0 c -0.39274,0.29655 -0.79935,0.5765 -1.22249,0.82814 -0.60626,0.34394 -1.22902,0.65952 -1.78637,1.08281 -0.66147,0.46633 -1.34536,0.9176 -2.10009,1.21904 -1.03164,0.29983 -2.09036,0.50059 -3.16542,0.54905 z m 16.15929,2.22442 c -1.14105,-0.0682 -2.2771,-0.20232 -3.38422,-0.49016 -0.87094,-0.26151 -1.71417,-0.60298 -2.56972,-0.90921 -0.57494,-0.1819 -1.12953,-0.41604 -1.68201,-0.65549 0,0 -2.3e-4,3e-5 -2.3e-4,3e-5 v 0 c 0.55251,0.23945 1.10709,0.47358 1.682,0.65548 0.85559,0.30624 1.69879,0.64771 2.56972,0.90922 1.10715,0.28784 2.24318,0.42196 3.38423,0.49017 z m -18.45025,8.30542 c 0.91501,-0.67444 1.82852,-1.34829 2.69323,-2.08672 0.62186,-0.52474 1.07294,-1.18089 1.46089,-1.88715 0.47606,-0.84808 0.93472,-1.7061 1.41444,-2.55212 0.16351,-0.26978 0.31079,-0.54865 0.46581,-0.82326 0,0 -2.3e-4,-1e-5 -2.3e-4,-1e-5 v 0 c -0.15503,0.2746 -0.30231,0.55348 -0.46581,0.82325 -0.47973,0.84603 -0.93838,1.70405 -1.41445,2.55212 -0.38795,0.70627 -0.83903,1.36241 -1.46088,1.88715 -0.86472,0.73844 -1.7782,1.4123 -2.69324,2.08672 z m -6.97761,-1.32776 c 0.80912,-0.23167 1.63658,-0.46504 2.35496,-0.91907 0.46074,-0.29119 0.79601,-0.59097 1.21508,-0.93728 0.89542,-0.76576 1.691,-1.6362 2.51727,-2.47376 0.6207,-0.62755 1.24456,-1.25194 1.86872,-1.87605 0.0617,-0.0616 0.12328,-0.12317 0.18492,-0.18477 0,0 -2.6e-4,-3e-5 -2.6e-4,-3e-5 v 0 c -0.0617,0.0616 -0.12325,0.12319 -0.1849,0.18479 -0.62413,0.6241 -1.24802,1.24849 -1.86869,1.87604 -0.82628,0.83755 -1.62185,1.708 -2.51724,2.47377 -0.41911,0.34631 -0.75435,0.64607 -1.21511,0.93727 -0.71838,0.45403 -1.54587,0.6874 -2.35497,0.91906 z m -6.83659,-6.65122 c 1.72304,-0.19846 3.41746,-0.57723 5.07586,-1.07837 1.31835,-0.42332 2.55456,-1.05048 3.68197,-1.85003 0.92462,-0.7725 1.85433,-1.53663 2.82482,-2.25119 0.92009,-0.68204 2.00067,-1.0565 3.10451,-1.31369 0.28435,-0.0361 0.58297,-0.15277 0.87513,-0.10841 0.40786,0.062 0.80713,0.34531 1.16228,0.53319 0.44916,0.2462 0.88764,0.50756 1.35982,0.70716 0,0 2.4e-4,-3e-5 2.4e-4,-3e-5 v 0 c -0.47219,-0.1996 -0.91067,-0.46095 -1.35985,-0.70715 -0.35536,-0.18802 -0.7546,-0.47126 -1.16273,-0.5332 -0.29215,-0.0444 -0.59078,0.0723 -0.87512,0.10841 -1.10385,0.25719 -2.18442,0.63166 -3.10449,1.3137 -0.97048,0.71456 -1.90021,1.47869 -2.82485,2.25119 -1.12739,0.79955 -2.36359,1.4267 -3.68195,1.85002 -1.65839,0.50115 -3.35281,0.87993 -5.07587,1.07836 z m 10.98927,-13.89495 c 0.96294,-0.58734 2.07328,-0.88665 3.16506,-1.13731 0.28302,-0.0861 0.57402,-0.0739 0.86503,-0.0647 0,0 2.4e-4,-4e-5 2.4e-4,-4e-5 v 0 c -0.29117,-0.009 -0.58233,-0.0214 -0.86551,0.0647 -1.09176,0.25067 -2.20211,0.54999 -3.16506,1.13732 z m -14.74105,3.6773 c 1.36571,-0.25568 2.624,-0.83946 3.84896,-1.47256 1.23535,-0.6875 2.32472,-1.59207 3.31296,-2.59591 0.51509,-0.55748 0.97116,-1.16568 1.4797,-1.72846 0.33082,-0.41554 0.7934,-0.51856 1.29415,-0.58727 0.0778,-0.008 0.15555,-0.0149 0.23335,-0.0224 0,0 -2.6e-4,-3e-5 -2.6e-4,-3e-5 v 0 c -0.0778,0.008 -0.15555,0.0149 -0.23333,0.0224 -0.50075,0.0687 -0.96332,0.17174 -1.29414,0.58729 -0.50853,0.56278 -0.96462,1.17097 -1.47971,1.72846 -0.98822,1.00384 -2.07758,1.90841 -3.31289,2.59591 -1.22502,0.63309 -2.48332,1.21687 -3.84903,1.47254 z m -7.13128,-7.5861 c -1.20274,0.55931 -2.52496,0.70557 -3.82731,0.85406 -0.77235,0.10428 -1.5532,0.0926 -2.32815,0.15468 -0.46805,0.0671 -0.94895,0.0631 -1.41233,0.15956 -0.55337,0.14953 -1.10757,0.29557 -1.66284,0.43786 0,0 2.4e-4,2e-5 2.4e-4,2e-5 v 0 c 0.55526,-0.14229 1.10947,-0.28833 1.66283,-0.43785 0.46338,-0.0964 0.94428,-0.0924 1.41233,-0.15955 0.77495,-0.062 1.55578,-0.0504 2.32813,-0.15469 1.30238,-0.14849 2.62458,-0.29476 3.82734,-0.85406 z m 4.47111,6.16163 c -0.85627,0.58918 -1.6755,1.09518 -2.67344,1.40218 -1.04983,0.26883 -1.76878,0.19152 -2.76856,-0.17536 -0.9758,-0.48196 -1.91629,-1.03392 -2.88302,-1.53644 -0.4882,-0.25782 -1.01331,-0.44918 -1.49049,-0.72759 -0.21963,-0.17234 -0.497,-0.20914 -0.76618,-0.23765 0,0 -2.6e-4,4e-5 -2.6e-4,4e-5 v 0 c 0.26918,0.0285 0.54655,0.0653 0.76618,0.23763 0.4772,0.27843 1.00232,0.46977 1.49055,0.72759 0.96669,0.50251 1.90718,1.05449 2.88298,1.53645 0.99986,0.36692 1.71908,0.44421 2.76904,0.17536 0.99793,-0.30701 1.81717,-0.81302 2.67343,-1.40219 z m 21.11043,-12.15208 c -1.24537,-0.36752 -2.54285,-0.60555 -3.8466,-0.55089 -0.33235,0.014 -0.66226,0.0634 -0.99339,0.0952 -0.95412,0.14258 -1.89391,0.38278 -2.74824,0.84452 -0.9938,0.53711 -1.82038,1.30017 -2.65801,2.04428 -1.38895,1.22211 -2.64537,2.60202 -4.11771,3.72878 -0.23583,0.18049 -0.48453,0.34356 -0.72678,0.51534 -1.86679,1.08946 -3.98853,1.5278 -6.09104,1.90099 -1.0434,0.10413 -2.08995,0.39415 -3.14607,0.34417 -0.16853,-0.008 -0.33553,-0.0362 -0.50328,-0.0542 0,0 -2.1e-4,4e-5 -2.1e-4,4e-5 v 0 c 0.16791,0.0181 0.33501,0.0462 0.5037,0.0542 1.05612,0.05 2.10267,-0.24004 3.14603,-0.34419 2.10252,-0.37319 4.22425,-0.81153 6.09106,-1.90099 0.24227,-0.17178 0.49094,-0.33485 0.72678,-0.51534 1.47233,-1.12677 2.72876,-2.50668 4.1177,-3.72879 0.83763,-0.74411 1.6642,-1.50716 2.65804,-2.04427 0.85433,-0.46173 1.79412,-0.70194 2.74822,-0.84452 0.33102,-0.0318 0.66079,-0.0812 0.99302,-0.0952 1.30373,-0.0547 2.60118,0.18337 3.84655,0.55088 z M 113.269,108.87475 c -1.50164,0.27868 -3.03226,0.35048 -4.55477,0.42703 -0.8183,0.0382 -1.65135,0.0568 -2.4455,0.27555 -0.0785,0.0264 -0.15689,0.053 -0.23535,0.0795 0,0 2.3e-4,4e-5 2.3e-4,4e-5 v 0 c 0.0785,-0.0265 0.15691,-0.053 0.23536,-0.0795 0.79413,-0.2187 1.62718,-0.23734 2.44547,-0.27555 1.52251,-0.0765 3.05312,-0.14835 4.55479,-0.42703 z m -18.524529,0.25991 c 1.840077,-0.24963 3.625227,-0.77942 5.404879,-1.29297 0.98724,-0.34952 0.51228,-0.17394 1.42578,-0.52423 0,0 -2e-4,-3e-5 -2e-4,-3e-5 v 0 c -0.91351,0.35029 -0.43854,0.17471 -1.42579,0.52423 -1.779652,0.51356 -3.564802,1.04335 -5.404905,1.29296 z m 0.936382,6.5687 c -1.01244,0.66637 -2.050341,1.29588 -3.143412,1.82121 -0.376299,0.18892 -0.763761,0.35462 -1.158745,0.50004 0,0 2.36e-4,3e-5 2.36e-4,3e-5 v 0 c 0.395004,-0.14542 0.782446,-0.31113 1.158715,-0.50004 1.093091,-0.52535 2.130973,-1.15487 3.143442,-1.82121 z m 26.441637,-12.18223 c -2.27569,0.38069 -4.5925,0.48309 -6.89597,0.41048 -0.86271,-0.0527 -1.73371,-0.0742 -2.55757,-0.35385 -0.15432,-0.0566 -0.0834,-0.0296 -0.213,-0.0805 0,0 -2.3e-4,3e-5 -2.3e-4,3e-5 v 0 c 0.12955,0.051 0.0586,0.0239 0.21299,0.0806 0.8239,0.27971 1.69489,0.30112 2.55763,0.35384 2.30359,0.0726 4.62054,-0.0298 6.89639,-0.41047 z m 6.55454,8.31957 c -1.10815,0.22711 -2.23245,0.34865 -3.35965,0.42704 -1.24134,0.12537 -2.472,-0.0525 -3.68309,-0.31597 -0.68228,-0.14008 -1.30369,-0.37119 -1.77355,-0.90641 -0.11716,-0.13349 -0.21087,-0.28591 -0.3163,-0.42886 0,0 -2.1e-4,2e-5 -2.1e-4,2e-5 v 0 c 0.10544,0.14295 0.19911,0.29537 0.3163,0.42885 0.46987,0.53524 1.09128,0.76636 1.77354,0.90643 1.21126,0.26344 2.44205,0.44135 3.68353,0.31597 1.12722,-0.0784 2.2515,-0.19993 3.35967,-0.42703 z m -22.71359,8.14222 c 1.25179,-0.53391 2.44501,-1.1816 3.59314,-1.90989 0.56211,-0.3295 1.0428,-0.7327 1.33721,-1.31845 0.13226,-0.37789 0.16104,-0.78096 0.253,-1.17019 0.13186,-0.49555 0.31736,-0.97773 0.56754,-1.42549 0.116,-0.22294 0.2698,-0.42167 0.39665,-0.63815 0.17628,-0.27103 0.38202,-0.46175 0.69353,-0.54932 0.0923,-0.0192 0.18458,-0.0384 0.27688,-0.0577 0,0 -2.4e-4,-3e-5 -2.4e-4,-3e-5 v 0 c -0.0922,0.0192 -0.18458,0.0385 -0.27687,0.0577 -0.31153,0.0875 -0.51725,0.2783 -0.69357,0.54934 -0.12684,0.21648 -0.28062,0.4152 -0.39664,0.63815 -0.25018,0.44776 -0.43567,0.92994 -0.56755,1.42549 -0.0919,0.38923 -0.12073,0.7923 -0.25296,1.17019 -0.29442,0.58574 -0.77511,0.98893 -1.33719,1.31843 -1.14813,0.72831 -2.34134,1.37601 -3.59316,1.90989 z m -8.831542,-0.21553 c 0.88275,0.0184 1.76043,-0.21897 2.53203,-0.64964 0.445432,-0.24862 0.694592,-0.48499 1.082912,-0.80726 0.98452,-0.94765 1.66468,-2.1449 2.41902,-3.27151 0.56338,-0.85572 1.17693,-1.67449 1.85085,-2.44574 0,0 -2.4e-4,-2e-5 -2.4e-4,-2e-5 v 0 c -0.67389,0.77126 -1.28743,1.59003 -1.85082,2.44574 -0.75437,1.12661 -1.4345,2.32386 -2.41902,3.27151 -0.38831,0.32227 -0.63748,0.55864 -1.082922,0.80726 -0.77143,0.43059 -1.64898,0.66794 -2.5316,0.64963 z m -10.588377,-7.5559 c 1.416344,0.25415 2.850616,0.37679 4.288005,0.40485 1.088803,-6e-5 2.189781,-0.0634 3.265957,-0.24066 0.584049,-0.0962 1.084722,-0.22913 1.659527,-0.36856 1.100848,-0.29285 2.200038,-0.6209 3.243088,-1.08423 0.67082,-0.29798 0.87802,-0.42996 1.522042,-0.78435 0.99752,-0.52508 1.88667,-1.22541 2.84413,-1.81429 0.73123,-0.44973 1.01803,-0.57569 1.78593,-0.96604 1.61309,-0.81531 3.36387,-1.23206 5.14949,-1.42414 1.25048,-0.0319 2.52336,-0.10368 3.76518,0.0979 0.24986,0.0406 0.49666,0.0983 0.745,0.14745 1.01797,0.2571 2.04253,0.47507 3.07292,0.6753 0,0 1.8e-4,-3e-5 1.8e-4,-3e-5 v 0 c -1.03038,-0.20023 -2.05492,-0.4182 -3.0729,-0.6753 -0.24833,-0.0492 -0.4951,-0.10689 -0.74499,-0.14745 -1.24197,-0.20163 -2.51496,-0.12981 -3.7656,-0.0979 -1.78559,0.19208 -3.53636,0.60884 -5.14947,1.42415 -0.76787,0.39034 -1.05472,0.51632 -1.78593,0.96604 -0.95747,0.58887 -1.84663,1.28921 -2.84412,1.81429 -0.644022,0.35439 -0.851252,0.48636 -1.522062,0.78434 -1.04307,0.46333 -2.14225,0.79138 -3.243095,1.08423 -0.574834,0.13944 -1.075458,0.27239 -1.659526,0.36856 -1.076048,0.17718 -2.176899,0.24058 -3.265544,0.24066 -1.43737,-0.028 -2.871632,-0.1507 -4.287976,-0.40486 z m 3.73937,-18.656113 c -1.842985,0.666694 -3.769601,1.084273 -5.692421,1.447441 -1.859772,0.300267 -3.741297,0.437946 -5.615329,0.619839 -0.760505,0.07949 -1.523125,0.132176 -2.286443,0.174639 0,0 2.36e-4,3.3e-5 2.36e-4,3.3e-5 v 0 c 0.763289,-0.04247 1.525908,-0.09516 2.286423,-0.174644 1.874022,-0.181892 3.755528,-0.319571 5.6153,-0.619844 1.92281,-0.363174 3.849455,-0.780757 5.69247,-1.447435 z m 10.596339,6.999803 c -2.279882,0.37563 -4.569252,0.68659 -6.875782,0.83331 -1.24271,0.0461 -0.629778,0.0535 -1.838796,-0.0176 0,0 -2.06e-4,3e-5 -2.06e-4,3e-5 v 0 c 1.209401,0.0711 0.596351,0.0637 1.839189,0.0176 2.306533,-0.14673 4.595913,-0.4577 6.875835,-0.83331 z m -0.17118,-4.686637 c -1.726412,1.021809 -3.613042,1.749473 -5.468442,2.501933 -1.602831,0.69735 -3.27768,1.17997 -4.97969,1.561 0,0 2.06e-4,3e-5 2.06e-4,3e-5 v 0 c 1.702011,-0.38104 3.376859,-0.86365 4.979691,-1.561 1.855393,-0.75248 3.742023,-1.480157 5.468465,-2.501942 z m 2.7267,2.611203 c 1.27635,-0.45411 2.51901,-0.99388 3.75435,-1.547965 1.16937,-0.574225 2.255,-1.285178 3.26537,-2.103781 0,0 -2.1e-4,-2e-5 -2.1e-4,-2e-5 v 0 c -1.01037,0.818605 -2.096,1.529561 -3.26538,2.103777 -1.23533,0.554099 -2.47799,1.093859 -3.75434,1.547959 z m -24.098553,6.012634 c 2.63376,0.6098 5.35297,0.73581 8.046887,0.77909 2.260401,0.0273 4.502216,-0.23302 6.716406,-0.66492 0.634449,-0.13546 1.255356,-0.31705 1.871508,-0.51779 0,0 -2.3e-4,-3e-5 -2.3e-4,-3e-5 v 0 c -0.616158,0.20074 -1.237045,0.38233 -1.871455,0.51779 -2.214092,0.43189 -4.455808,0.69228 -6.716101,0.66493 -2.693887,-0.0433 -5.413078,-0.16928 -8.046779,-0.7791 z m 14.720651,-7.304054 c -1.356915,1.10204 -3.014514,1.68145 -4.656545,2.20953 -0.618233,0.15513 -1.244667,0.36713 -1.885794,0.41364 -0.997,0.0723 -2.020287,-0.0502 -3.0136,-0.11307 -1.636464,-0.1412 -3.277856,-0.25353 -4.886067,-0.59989 -0.558018,-0.16357 -1.106938,-0.35681 -1.638865,-0.59167 0,0 -2.26e-4,3e-5 -2.26e-4,3e-5 v 0 c 0.531917,0.23486 1.080837,0.4281 1.638855,0.59167 1.60824,0.34635 3.249652,0.45868 4.886126,0.59988 0.993441,0.0629 2.016846,0.18544 3.013984,0.11308 0.641156,-0.0465 1.267561,-0.25851 1.885764,-0.41364 1.64206,-0.52809 3.299659,-1.10752 4.656594,-2.20954 z M 110.0955,92.376621 c -1.4139,0.25107 -2.74863,0.0695 -4.11473,-0.319707 -1.10982,-0.336318 -1.93236,-0.950399 -2.81421,-1.665532 -0.47575,-0.388608 -0.96229,-0.75577 -1.50644,-1.042916 -0.64928,-0.239823 -1.37169,-0.184611 -2.053832,-0.19435 0,0 -2.4e-4,3.6e-5 -2.4e-4,3.6e-5 v 0 c 0.682142,0.0097 1.404562,-0.04547 2.053832,0.194341 0.54415,0.28714 1.03071,0.654302 1.50645,1.04291 0.88184,0.715135 1.70441,1.329221 2.81423,1.665537 1.36623,0.389251 2.70112,0.570789 4.11518,0.319715 z m 18.96645,-6.919071 c -0.44679,1.160932 -0.78146,2.360832 -1.00583,3.583568 -0.11131,0.648165 -0.15641,1.304764 -0.16689,1.961538 -0.003,0.284008 1.6e-4,0.568023 0.003,0.852024 0,0 2.5e-4,0 2.5e-4,0 v 0 c -0.003,-0.284001 -0.005,-0.568016 -0.003,-0.852024 0.0104,-0.656772 0.0556,-1.31337 0.16686,-1.961532 0.22435,-1.22274 0.55899,-2.422645 1.00583,-3.583566 z m -3.06239,8.907625 c -0.05,-0.185418 -0.0803,-0.377318 -0.14992,-0.556254 -0.20512,-0.526571 -0.50448,-0.980052 -0.80085,-1.457807 -0.42139,-0.679313 -0.85493,-1.351302 -1.29131,-2.021048 -0.33355,-0.608247 -0.84578,-1.25891 -0.96045,-1.966103 -0.0153,-0.09534 -0.006,-0.193097 -0.009,-0.289647 0.11194,-0.74042 0.6918,-1.277061 1.20121,-1.779192 0.29653,-0.30529 0.64753,-0.55505 0.93156,-0.871918 0.20879,-0.221664 0.37912,-0.471622 0.54956,-0.722623 0,0 -2.2e-4,-1.6e-5 -2.2e-4,-1.6e-5 v 0 c -0.17046,0.251002 -0.34082,0.50096 -0.54957,0.722621 -0.28404,0.316861 -0.63504,0.566629 -0.93156,0.871918 -0.50942,0.502135 -1.08928,1.038784 -1.20124,1.77921 0.003,0.09655 -0.007,0.194307 0.009,0.289655 0.11468,0.707196 0.62689,1.357859 0.96047,1.966106 0.43638,0.669745 0.86993,1.341732 1.29131,2.021048 0.29638,0.477749 0.59574,0.931233 0.80085,1.457801 0.0697,0.178937 0.0999,0.370834 0.1499,0.556252 z M 116.67841,75.05454 c 0.39479,1.229094 1.12421,2.295579 1.80471,3.37767 0.67071,0.988956 0.95069,2.147411 1.13462,3.310232 0.12698,1.185857 -0.22314,2.345394 -0.578,3.463274 -0.25575,0.722236 -0.54062,1.433634 -0.81622,2.148423 0,0 2.4e-4,7e-6 2.4e-4,7e-6 v 0 c 0.27557,-0.714791 0.56043,-1.426192 0.81618,-2.148422 0.35486,-1.117883 0.70498,-2.277425 0.57803,-3.463287 -0.18396,-1.162819 -0.4639,-2.321281 -1.13465,-3.310237 -0.68049,-1.082089 -1.40993,-2.148564 -1.80468,-3.377668 z m -11.21874,-1.75527 c 0.49591,-0.766798 1.06099,-1.485643 1.56106,-2.249312 0.18545,-0.395507 0.49352,-0.792834 0.52662,-1.245606 0.0164,-0.226289 -0.0408,-0.367816 -0.0978,-0.584032 -0.2349,-0.614599 -0.71288,-1.097313 -1.13604,-1.589548 -0.21368,-0.275278 -0.48949,-0.499791 -0.69812,-0.778222 -0.0674,-0.106813 -0.0373,-0.05536 -0.0913,-0.153722 0,0 -2.7e-4,1.3e-5 -2.7e-4,1.3e-5 v 0 c 0.054,0.09837 0.0239,0.04691 0.0913,0.153724 0.20862,0.278437 0.48443,0.502945 0.69813,0.778223 0.42316,0.492233 0.90115,0.974944 1.13606,1.589537 0.0568,0.216211 0.11424,0.357741 0.0977,0.584021 -0.0331,0.452768 -0.34117,0.850095 -0.52662,1.245599 -0.50007,0.76367 -1.06512,1.482522 -1.56105,2.249313 z m -4.04006,-3.959349 c -0.40741,-1.038875 -0.83534,-2.070657 -1.21466,-3.12027 -0.240892,-0.72162 -0.716032,-1.299312 -1.209712,-1.862128 -0.36144,-0.375315 -0.72514,-0.747437 -0.95035,-1.222418 -0.11789,-0.30786 -0.16382,-0.635862 -0.18126,-0.963242 -0.003,-0.140808 -0.003,-0.07273 -0.003,-0.204224 0,0 -2.6e-4,0 -2.6e-4,0 v 0 c 0,0.131492 -2.1e-4,0.06341 0.003,0.204226 0.0174,0.32738 0.0633,0.655388 0.18127,0.963251 0.22518,0.474986 0.58889,0.847111 0.95035,1.222422 0.49368,0.562814 0.96883,1.140506 1.209732,1.86212 0.37931,1.049612 0.80726,2.081388 1.21465,3.120273 z M 89.414789,57.869019 c -0.32761,-0.989774 -0.768412,-1.932359 -1.246192,-2.856762 -0.164626,-0.366806 -0.544514,-0.647233 -0.581649,-1.061443 0.07425,-0.384856 0.325742,-0.71714 0.538615,-1.039525 0.130147,-0.179821 0.238048,-0.352055 0.276097,-0.571406 0.04347,-0.165268 0.02134,-0.07859 0.06648,-0.260096 0,0 -2.65e-4,-4e-6 -2.65e-4,-4e-6 v 0 c -0.04524,0.1815 -0.02291,0.09482 -0.06648,0.260095 -0.03806,0.219346 -0.145941,0.391577 -0.276098,0.571399 -0.212843,0.322389 -0.464326,0.65468 -0.538614,1.03954 0.03717,0.414217 0.417023,0.694642 0.581678,1.06145 0.477799,0.924398 0.918611,1.866978 1.246201,2.85676 z M 73.611844,68.975408 c 1.407553,0.08263 2.787284,-0.148598 4.149008,-0.476106 0.52167,-0.167987 1.093298,-0.232806 1.579819,-0.498224 0.119359,-0.092 0.232955,-0.185062 0.35671,-0.271904 0,0 -2.36e-4,-2.3e-5 -2.36e-4,-2.3e-5 v 0 c -0.123775,0.08684 -0.23738,0.179902 -0.356729,0.271898 -0.486493,0.265414 -1.058101,0.33024 -1.57977,0.498225 -1.361597,0.327476 -2.741171,0.558703 -4.148566,0.4761 z m -6.010589,1.46077 c -2.182573,-0.05443 -4.365175,-0.107293 -6.547954,-0.151774 -0.835915,0.0046 -1.670797,-0.04121 -2.481388,-0.252649 -0.252603,-0.04944 -0.468358,-0.190219 -0.677612,-0.332923 -0.02498,-0.01774 -0.05006,-0.03547 -0.07503,-0.0532 0,0 -2.66e-4,2.3e-5 -2.66e-4,2.3e-5 v 0 c 0.02498,0.01775 0.04996,0.03547 0.07504,0.0532 0.209283,0.142707 0.425018,0.283495 0.677612,0.332931 0.81063,0.211438 1.645502,0.257287 2.481436,0.252645 2.18279,0.04448 4.365392,0.09733 6.547935,0.15178 z m 12.552692,19.270734 c -0.923675,0.616306 -1.952607,1.016604 -3.022647,1.290517 -1.408122,0.277135 -2.827171,0.006 -4.205623,-0.299958 -1.052299,-0.279173 -2.134779,-0.503432 -3.078752,-1.066503 -0.225668,-0.142535 -0.442887,-0.299737 -0.533746,-0.55938 -0.003,-0.01288 -0.0059,-0.02576 -0.0089,-0.03865 0,0 -2.56e-4,5e-6 -2.56e-4,5e-6 v 0 c 0.0029,0.01288 0.0059,0.02576 0.0089,0.03865 0.09087,0.259647 0.308069,0.416858 0.533766,0.559392 0.944003,0.563077 2.026483,0.787327 3.078811,1.066509 1.37858,0.305987 2.797756,0.577115 4.206007,0.29996 1.070069,-0.27392 2.099001,-0.674231 3.022706,-1.290524 z m -1.015528,-9.957775 c -1.25512,0.136149 -2.520724,0.142628 -3.782041,0.150348 -0.58573,0.0036 -1.144249,-0.132982 -1.692776,-0.322748 -0.324757,-0.146688 -0.651177,-0.289556 -0.977253,-0.43354 -0.219353,-0.04938 -0.394256,-0.179053 -0.587323,-0.28326 0,0 -2.36e-4,2.8e-5 -2.36e-4,2.8e-5 v 0 c 0.193047,0.104202 0.367979,0.233886 0.587323,0.283261 0.326076,0.143984 0.652476,0.286849 0.977253,0.433542 0.548685,0.189815 1.107331,0.326412 1.693219,0.322754 1.261316,-0.0078 2.52695,-0.01421 3.782071,-0.150351 z m 9.726466,8.261063 c 1.374007,-0.994758 2.850616,-1.841882 4.273618,-2.76533 1.140836,-0.729099 2.182828,-1.600724 3.322585,-2.330583 0.64846,-0.396835 1.42507,-0.43935 2.16687,-0.420089 0.64127,0.0078 1.19576,0.324541 1.737302,0.634121 0.38643,0.21511 0.19622,0.106588 0.57075,0.325333 0,0 2.4e-4,-2.6e-5 2.4e-4,-2.6e-5 v 0 c -0.37454,-0.218741 -0.18433,-0.110223 -0.57075,-0.32533 -0.541562,-0.309586 -1.096032,-0.626358 -1.737302,-0.634135 -0.74196,-0.01923 -1.51875,0.02316 -2.16735,0.420102 -1.139723,0.729868 -2.181686,1.601494 -3.322532,2.330587 -1.423032,0.923458 -2.89963,1.770592 -4.273657,2.76533 z M 81.3977,77.087439 c 1.3489,-0.134226 2.693267,-0.346533 4.017287,-0.637249 1.045434,-0.275876 2.093071,-0.60881 3.04386,-1.1344 0.466332,-0.257787 0.689688,-0.438381 1.112199,-0.745035 0.577558,-0.419466 1.003166,-0.994229 1.494575,-1.500548 0.354055,-0.445083 0.624714,-0.312828 1.149825,-0.206938 0.573212,0.13851 0.293603,0.06794 0.839032,0.211001 0,0 2.07e-4,-3e-5 2.07e-4,-3e-5 v 0 c -0.5454,-0.143069 -0.265791,-0.07249 -0.839012,-0.211001 -0.525151,-0.105912 -0.796204,-0.238224 -1.150288,0.206946 -0.491409,0.506325 -0.916988,1.081083 -1.494556,1.50055 -0.42253,0.306658 -0.645857,0.487239 -1.112189,0.745035 -0.950769,0.525589 -1.998406,0.858522 -3.04386,1.134391 -1.324019,0.290716 -2.668416,0.503025 -4.017316,0.637242 z m -17.261753,4.589956 c 1.504105,-0.278336 3.022372,-0.485345 4.550748,-0.556632 1.138604,-0.0526 2.213698,0.256734 3.273569,0.628996 0.961381,0.355305 1.800472,0.950993 2.646771,1.515365 0.815823,0.547932 1.612499,1.156408 2.529182,1.531496 0.18518,0.07577 0.377263,0.133391 0.565905,0.200085 1.531041,0.427917 3.005614,0.279988 4.541199,-0.0068 1.43138,-0.276904 2.685901,-1.038344 3.85508,-1.875903 0.987972,-0.766756 1.889255,-1.634727 2.77089,-2.519255 0.922918,-0.965694 1.896788,-1.879631 2.867806,-2.796252 0.491881,-0.502098 1.034213,-0.949306 1.549667,-1.425011 0,0 -2.65e-4,-2.1e-5 -2.65e-4,-2.1e-5 v 0 c -0.515425,0.475705 -1.057757,0.922915 -1.549638,1.425017 -0.970989,0.916623 -1.944859,1.83056 -2.867787,2.79625 -0.881624,0.884519 -1.782907,1.7525 -2.770879,2.519251 -1.169209,0.837559 -2.4237,1.598994 -3.855051,1.875895 -1.535487,0.286693 -3.009883,0.434638 -4.540816,0.0068 -0.188612,-0.0667 -0.380724,-0.124314 -0.565875,-0.200081 -0.916683,-0.375088 -1.713388,-0.983556 -2.529211,-1.531493 -0.84627,-0.564372 -1.685361,-1.16007 -2.646742,-1.51537 -1.060028,-0.372312 -2.13525,-0.681665 -3.274011,-0.629001 -1.528377,0.07129 -3.046643,0.278307 -4.550768,0.556632 z M 87.436031,64.504267 c -1.842237,-0.03241 -3.671012,-0.226488 -5.479163,-0.573303 -2.011053,-0.487075 -4.017415,-0.991068 -6.051156,-1.375248 -1.290927,-0.207509 -2.606568,-0.455838 -3.913398,-0.264391 -0.945793,0.216106 -1.734434,0.818655 -2.499463,1.385557 -0.786399,0.656733 -1.673393,1.145827 -2.594472,1.581539 -1.07772,0.530847 -2.256989,0.799838 -3.406371,1.127877 -0.998299,0.282313 -2.012794,0.502531 -3.015783,0.765929 -0.396725,0.109233 -0.788995,0.241178 -1.197246,0.300696 -0.250893,0.01072 -0.492482,0.08013 -0.736805,0.132834 0,0 2.26e-4,3.5e-5 2.26e-4,3.5e-5 v 0 c 0.244333,-0.0527 0.485922,-0.122112 0.736805,-0.132835 0.408261,-0.05952 0.800531,-0.191467 1.197256,-0.3007 1.002989,-0.263399 2.017455,-0.483617 3.015763,-0.765934 1.149373,-0.328038 2.328671,-0.597032 3.406391,-1.127878 0.921079,-0.435706 1.808044,-0.924809 2.594462,-1.581544 0.765019,-0.566897 1.55368,-1.169444 2.499473,-1.385543 1.306672,-0.191426 2.622185,0.0569 3.912955,0.264384 2.033761,0.384177 4.040133,0.88817 6.051186,1.375248 1.808122,0.346815 3.636896,0.540887 5.479104,0.573314 z m -2.410069,-3.781945 c -1.12046,0.279728 -2.256625,0.58957 -3.41654,0.650293 -0.815331,0.04268 -1.360475,-0.03338 -2.170624,-0.104049 -1.765196,-0.198867 -3.420316,-0.789281 -4.982001,-1.613132 -1.313202,-0.779831 -2.544642,-1.68549 -3.826699,-2.514501 -1.123538,-0.77802 -2.395652,-1.183795 -3.719829,-1.455076 -0.827821,-0.123655 -1.674613,-0.140842 -2.498588,0.02394 -0.405153,0.08103 -0.718769,0.190703 -1.112475,0.313871 -1.256841,0.47692 -2.448993,1.099356 -3.682046,1.631989 -1.037419,0.478164 -2.080915,0.943924 -3.135033,1.384554 -0.960761,0.368437 -1.887308,0.817101 -2.83021,1.227465 -0.381639,0.179269 -0.20239,0.09244 -0.538378,0.25914 0,0 2.36e-4,2.6e-5 2.36e-4,2.6e-5 v 0 c 0.335988,-0.1667 0.156739,-0.07987 0.538378,-0.25914 0.942902,-0.410368 1.86942,-0.859028 2.83018,-1.227465 1.054118,-0.44063 2.097615,-0.90639 3.135034,-1.384556 1.233052,-0.532636 2.425204,-1.155074 3.682075,-1.631984 0.393706,-0.12317 0.707292,-0.232839 1.112475,-0.313868 0.823818,-0.164748 1.670482,-0.147596 2.498145,-0.02394 1.324177,0.271281 2.596262,0.677055 3.71983,1.45507 1.282047,0.829009 2.513496,1.734664 3.826688,2.514503 1.561715,0.823852 3.216845,1.414267 4.982031,1.613138 0.810444,0.0707 1.355352,0.146739 2.170998,0.104049 1.159935,-0.06072 2.296119,-0.370582 3.416589,-0.650294 z m -4.621879,-8.386066 c 1.002772,0.157423 2.00767,0.357889 3.023581,0.404854 0.428087,0.0079 0.682224,0.0048 0.839563,-0.427153 0.176594,-0.621141 -0.129163,-1.151385 -0.418223,-1.686119 -0.56497,-1.020091 -1.274317,-1.936043 -2.12991,-2.725777 -0.462703,-0.441295 -1.034233,-0.73142 -1.560515,-1.084855 -0.534729,-0.304366 -1.011004,-0.690382 -1.411967,-1.155181 -0.38816,-0.501418 -0.665565,-1.05321 -0.819757,-1.665868 -0.09815,-0.360623 -0.07159,-0.689135 0.07582,-1.027138 0.148527,-0.215083 0.327413,-0.404095 0.462507,-0.628241 0.123538,-0.101181 0.184196,-0.261886 0.298156,-0.368112 0.05311,-0.02679 0.08566,-0.07346 0.119978,-0.119764 0,0 -2.56e-4,-1.6e-5 -2.56e-4,-1.6e-5 v 0 c -0.03432,0.04629 -0.06687,0.09296 -0.119978,0.119759 -0.11394,0.106237 -0.174618,0.266929 -0.298166,0.36812 -0.135093,0.224147 -0.31395,0.413155 -0.462477,0.628244 -0.147396,0.338007 -0.173968,0.666527 -0.07582,1.027156 0.154221,0.61266 0.431617,1.164449 0.819776,1.665875 0.400974,0.464807 0.877238,0.850821 1.411968,1.155192 0.526282,0.353432 1.097811,0.643554 1.560525,1.084847 0.855583,0.789724 1.564959,1.705673 2.129929,2.72577 0.28903,0.534728 0.594788,1.064973 0.418164,1.686097 -0.15726,0.431799 -0.411162,0.435031 -0.839061,0.427131 -1.015922,-0.04696 -2.020809,-0.247421 -3.023582,-0.404855 z m -8.853269,-7.711129 c 0.907724,-0.146745 1.836769,-0.256042 2.705934,-0.5703 0.05291,-0.03531 0.118395,-0.05674 0.158725,-0.105928 0.214633,-0.261747 -0.412912,-1.114562 -0.544652,-1.308792 -0.443478,-0.603297 -0.861307,-1.229805 -1.357142,-1.79284 -0.30743,-0.349084 -0.63621,-0.660415 -0.967576,-0.986078 -0.973693,-1.005692 -2.008132,-1.949901 -3.094752,-2.831882 -0.803521,-0.639484 -1.630358,-1.248298 -2.42844,-1.89456 -0.379289,-0.286736 -0.782731,-0.554686 -0.999734,-0.987927 -0.148262,-0.250202 -0.270532,-0.499455 -0.309505,-0.788499 -0.03796,-0.264584 0.0298,-0.526684 0.103014,-0.779403 0.03078,-0.111066 0.110813,-0.200178 0.187884,-0.282979 0.01357,-0.01374 0.02734,-0.02749 0.04101,-0.04123 0,0 -2.55e-4,-1.9e-5 -2.55e-4,-1.9e-5 v 0 c -0.01377,0.01375 -0.02734,0.02749 -0.04101,0.04122 -0.0771,0.08281 -0.157152,0.171921 -0.187914,0.282992 -0.07317,0.252723 -0.140945,0.514826 -0.102985,0.779413 0.03894,0.28905 0.161224,0.538303 0.309505,0.788508 0.216984,0.43325 0.620426,0.701199 0.999734,0.987934 0.798112,0.64626 1.624949,1.255079 2.42844,1.894562 1.08664,0.881975 2.121089,1.826184 3.094782,2.831877 0.331366,0.325668 0.660146,0.636989 0.967576,0.986077 0.495835,0.563036 0.913635,1.189542 1.357141,1.792838 0.131691,0.194215 0.759237,1.047032 0.544594,1.308756 -0.04032,0.04918 -0.105788,0.07061 -0.158686,0.105922 -0.869174,0.314259 -1.79821,0.423561 -2.705944,0.570295 z M 50.70048,33.718317 c 0.620366,-0.462049 1.321915,-0.959841 1.578728,-1.730236 0.04317,-0.129406 0.05674,-0.266846 0.08516,-0.400271 0.02419,-1.065027 -0.656567,-1.905423 -1.247814,-2.726395 -0.676383,-0.895762 -1.351084,-1.795226 -2.086846,-2.643597 -0.275399,-0.32387 -0.597699,-0.607083 -0.874947,-0.928266 -0.229985,-0.211704 -0.418714,-0.452432 -0.598249,-0.706847 -0.188543,-0.290973 -0.426857,-0.545233 -0.626926,-0.827169 -0.139539,-0.195392 -0.252387,-0.405527 -0.351655,-0.623644 -0.06776,-0.114656 -0.03599,-0.252598 -0.08339,-0.371132 -0.01043,-0.01588 -0.02085,-0.03177 -0.03108,-0.04766 0,0 -2.65e-4,1.5e-5 -2.65e-4,1.5e-5 v 0 c 0.01042,0.01588 0.02085,0.03177 0.03108,0.04765 0.0473,0.118531 0.01564,0.256478 0.0833,0.371133 0.09929,0.218116 0.212106,0.428256 0.351655,0.623648 0.200069,0.281939 0.438413,0.536194 0.626946,0.827169 0.179544,0.254417 0.368264,0.495147 0.598249,0.70685 0.277219,0.321187 0.599557,0.604392 0.874947,0.928265 0.735762,0.848362 1.410483,1.747825 2.086846,2.643594 0.591276,0.820966 1.271986,1.661359 1.247813,2.726377 -0.02832,0.133422 -0.04199,0.27086 -0.08507,0.400265 -0.256813,0.770393 -0.958332,1.268187 -1.578728,1.730222 z m 6.42949,10.781735 c 0.251188,-1.105864 0.594316,-2.187869 1.056223,-3.223487 0.245493,-0.524237 0.696159,-0.757522 1.196498,-0.98502 0.315799,-0.127672 0.663225,-0.234564 0.90026,-0.490913 0.19882,-0.228231 0.262832,-0.503886 0.297881,-0.795711 0.04937,-0.511765 -0.07553,-1.014728 -0.210247,-1.504194 -0.131013,-0.425393 -0.206314,-0.863907 -0.343846,-1.286789 -0.04593,-0.252745 -0.16799,-0.475816 -0.263431,-0.710275 -0.04248,-0.139221 -0.07494,-0.266934 -0.165924,-0.383109 -0.0099,-0.01836 -0.01957,-0.03672 -0.0295,-0.05508 0,0 -2.66e-4,1.3e-5 -2.66e-4,1.3e-5 v 0 c 0.0099,0.01836 0.01977,0.03673 0.0295,0.05509 0.09097,0.11617 0.12347,0.243881 0.165934,0.383101 0.09549,0.234459 0.217525,0.457527 0.263421,0.710272 0.137543,0.422883 0.212873,0.861397 0.343876,1.28679 0.13468,0.48946 0.259605,0.992423 0.210218,1.504184 -0.03501,0.291817 -0.09906,0.56747 -0.297871,0.795695 -0.237046,0.256339 -0.584462,0.363231 -0.900241,0.490906 -0.500339,0.227503 -0.950995,0.460789 -1.196498,0.985035 -0.461878,1.035628 -0.805006,2.117636 -1.056223,3.223493 z m -0.911146,1.20712 c -0.828756,0.291404 -1.607897,0.606121 -2.498844,0.552809 -0.641313,-0.03597 -1.089914,-0.432043 -1.539597,-0.848307 -0.447726,-0.426652 -0.8172,-0.924232 -1.156709,-1.438758 -0.187343,-0.295355 -0.380154,-0.588342 -0.562138,-0.887119 -0.228067,-0.313639 -0.508688,-0.581804 -0.826601,-0.801784 -0.436741,-0.301272 -0.947072,-0.46819 -1.426611,-0.689048 -0.209569,-0.09675 -0.413227,-0.204069 -0.639937,-0.253309 -0.126351,-0.0024 -0.230506,-0.03808 -0.341958,-0.0964 -0.101293,-0.01026 -0.03767,-0.01738 -0.14542,0.125585 0,0 2.36e-4,1.6e-5 2.36e-4,1.6e-5 v 0 c 0.107253,-0.142969 0.04376,-0.135788 0.144928,-0.125572 0.111472,0.05832 0.215597,0.09413 0.341978,0.0964 0.22669,0.04923 0.430348,0.156553 0.639937,0.253304 0.479539,0.220854 0.98987,0.387772 1.426591,0.689042 0.317933,0.219978 0.598564,0.488139 0.826601,0.801773 0.181984,0.298779 0.374785,0.591767 0.562158,0.887119 0.339509,0.514524 0.708993,1.012109 1.156709,1.438765 0.449683,0.416267 0.898293,0.812341 1.539597,0.848324 0.891164,0.05324 1.670374,-0.261246 2.499316,-0.552817 z M 45.739553,31.945311 c 1.318326,0.312523 2.593607,0.763884 3.825961,1.322593 1.058465,0.492317 1.631479,1.212381 2.263549,2.155319 0.737876,1.196887 1.31273,2.483006 1.875694,3.768457 0.634577,1.555626 1.127422,3.163815 1.760927,4.720037 0.477416,0.958052 0.9982,1.930425 1.730658,2.723729 0.466175,0.504891 0.77565,0.715141 1.313566,1.140629 1.201357,0.839791 2.548644,1.414103 3.969591,1.751512 0.937965,0.233719 1.907881,0.282884 2.869921,0.319086 0.748635,0.02076 1.497624,0.01959 2.246446,0.01758 0.362561,-0.0013 0.725121,-0.003 1.087682,-0.0038 0.300113,-0.0019 0.599528,0.01056 0.898028,-0.02269 0.511472,-0.07797 1.012568,-0.217055 1.517657,-0.329432 0.57627,-0.106797 1.150002,-0.225823 1.727206,-0.327717 0.183596,-0.03147 0.095,-0.01796 0.265634,-0.04125 0,0 -2.36e-4,-3.6e-5 -2.36e-4,-3.6e-5 v 0 c -0.170635,0.02329 -0.08212,0.0097 -0.265664,0.04125 -0.577164,0.101899 -1.150936,0.220922 -1.727166,0.327718 -0.505099,0.112378 -1.006195,0.251471 -1.517667,0.329428 -0.2985,0.03325 -0.597905,0.02084 -0.898048,0.02269 -0.362541,7.81e-4 -0.725101,0.0026 -1.087662,0.0038 -0.748665,0.0021 -1.497516,0.0031 -2.245984,-0.01758 -0.96203,-0.0362 -1.931976,-0.08536 -2.869911,-0.319079 -1.420976,-0.3374 -2.768254,-0.911704 -3.96965,-1.751501 -0.537936,-0.425505 -0.847332,-0.635714 -1.313536,-1.140626 -0.732458,-0.793305 -1.253272,-1.765664 -1.730658,-2.723722 -0.633505,-1.556222 -1.12638,-3.164405 -1.760918,-4.720037 -0.562974,-1.285453 -1.137827,-2.571572 -1.875674,-3.768462 -0.632079,-0.942952 -1.205084,-1.663011 -2.263578,-2.15533 -1.232325,-0.558705 -2.507635,-1.010062 -3.825932,-1.322601 z m 41.31245,22.780633 c -0.106417,-0.194195 -0.255977,-0.358222 -0.401879,-0.522913 -0.211122,-0.23568 -0.431931,-0.462454 -0.651374,-0.690315 -0.26645,-0.271918 -0.519594,-0.556092 -0.765481,-0.84661 -0.277298,-0.329949 -0.530521,-0.6785 -0.772611,-1.034753 -0.164528,-0.250315 -0.322181,-0.505033 -0.480376,-0.759354 0,0 0.05547,0.137492 0.05547,0.137492 v 0 c 0.158204,0.254251 0.315877,0.50889 0.480326,0.759176 0.242169,0.356505 0.49552,0.705294 0.772896,1.035493 0.246064,0.29082 0.499297,0.575395 0.765895,0.847649 0.219688,0.22821 0.440645,0.455399 0.651875,0.691512 0.146207,0.165314 0.296032,0.330021 0.402655,0.524869 z M 225.96175,226.81383 C 169.12652,143.92783 114.19637,76.702468 49.805924,26.561193 M 98.726558,69.638589 C 94.58964,60.007544 93.635862,61.362729 91.95591,53.715894 m 22.26654,31.567224 C 109.07487,73.464379 109.1345,78.348664 109.17767,68.12113 m 28.39221,42.59395 c -5.5029,-11.897704 -9.7232,-18.231609 -4.45885,-27.298876 m 22.15873,48.284826 c -5.5029,-11.8977 -5.31355,-25.55528 -0.0492,-34.622551 m 16.4918,55.157711 c -5.50289,-11.8977 -4.74061,-24.37475 0.52375,-33.44203 m 15.46405,54.45819 c -5.50289,-11.8977 -6.99298,-22.7493 -1.72862,-31.81656 M 59.661326,76.563781 C 70.265187,84.12076 86.345281,61.37881 93.571733,67.871976 l -0.118287,-0.09813 M 79.147123,107.07472 C 93.229312,114.9925 113.5257,92.649899 123.16416,99.394756 l -0.15752,-0.1022 M 109.2403,138.36308 c 12.78128,8.11058 31.6645,-15.59748 40.39443,-8.65614 l -0.14278,-0.10503 m -19.17609,24.86 c 9.89375,7.83938 25.29101,-16.30527 32.01806,-9.54775 l -0.11021,-0.10202 m -6.3284,26.86061 c 6.72558,5.88655 17.47088,-12.59511 22.03286,-7.50713 l -0.0747,-0.0768 M 69.050524,92.938017 C 82.033841,100.73659 100.99561,78.287225 109.87216,84.947933 L 109.72704,84.84708 M 51.330327,54.223916 c 7.53569,4.506467 18.531398,-8.449531 23.683867,-4.601232 l -0.08418,-0.05826 m 18.611134,73.597056 c 13.746772,8.25996 33.824922,-15.51985 43.223402,-8.46501 l -0.15366,-0.10682 m -43.069742,8.57183 c 13.746772,8.25996 33.824922,-15.51985 43.223402,-8.46501 l -0.15366,-0.10682 m 91.02292,114.55014 C 167.04493,147.00452 105.67992,73.451544 42.4692,20.307333 M 250.26498,275.1382 C 213.41134,166.62603 79.215992,169.90349 47.352721,41.651752 46.32904,37.531348 45.41097,33.275184 44.605158,28.875189 l -2.129526,-8.556104 m 0.05094,-0.0083 v 0 l -0.02468,0.243178 M 228.09375,229.49239 C 167.50492,147.35712 106.13991,73.804139 42.929179,20.659928 M 250.73878,275.64964 C 220.62116,208.41704 172.56825,98.577756 142.08368,87.685239 106.14904,74.845337 83.893485,36.766651 42.986523,20.663435 v 0 l -0.02468,0.243178" />
  </g>
</svg>
