<svg width="651" height="161" viewBox="0 0 651 161" fill="none" xmlns="http://www.w3.org/2000/svg">
<path d="M22.272 130C19.456 130 16.8533 129.317 14.464 127.952C12.16 126.587 10.3253 124.752 8.96 122.448C7.59467 120.059 6.912 117.456 6.912 114.64V53.2C6.912 50.384 7.59467 47.824 8.96 45.52C10.3253 43.1307 12.16 41.2533 14.464 39.888C16.8533 38.5227 19.456 37.84 22.272 37.84H83.712C86.528 37.84 89.088 38.5227 91.392 39.888C93.7813 41.2533 95.6587 43.1307 97.024 45.52C98.3893 47.824 99.072 50.384 99.072 53.2V114.64C99.072 117.456 98.3893 120.059 97.024 122.448C95.6587 124.752 93.7813 126.587 91.392 127.952C89.088 129.317 86.528 130 83.712 130H22.272ZM22.272 119.632H83.712C85.0773 119.632 86.2293 119.163 87.168 118.224C88.192 117.2 88.704 116.005 88.704 114.64V53.2C88.704 51.8347 88.192 50.6827 87.168 49.744C86.2293 48.72 85.0773 48.208 83.712 48.208H22.272C20.9067 48.208 19.712 48.72 18.688 49.744C17.7493 50.6827 17.28 51.8347 17.28 53.2V114.64C17.28 116.005 17.7493 117.2 18.688 118.224C19.712 119.163 20.9067 119.632 22.272 119.632ZM149.648 130L108.688 55.76H120.976L155.792 119.76L190.608 55.76H202.896L161.808 130H149.648ZM225.266 130C222.45 130 219.847 129.317 217.458 127.952C215.154 126.501 213.277 124.624 211.826 122.32C210.461 119.931 209.778 117.328 209.778 114.512V71.248C209.778 68.432 210.461 65.872 211.826 63.568C213.277 61.1787 215.154 59.3013 217.458 57.936C219.847 56.4853 222.45 55.76 225.266 55.76H269.81C272.711 55.76 275.314 56.4853 277.618 57.936C280.007 59.3013 281.885 61.1787 283.25 63.568C284.701 65.872 285.426 68.432 285.426 71.248V98.128H220.274V114.512C220.274 115.877 220.743 117.072 221.682 118.096C222.706 119.035 223.901 119.504 225.266 119.504H285.426V130H225.266ZM220.274 87.632H274.802V71.248C274.802 69.8827 274.29 68.7307 273.266 67.792C272.327 66.768 271.175 66.256 269.81 66.256H225.266C223.901 66.256 222.706 66.768 221.682 67.792C220.743 68.7307 220.274 69.8827 220.274 71.248V87.632ZM297.906 130V71.248C297.906 68.432 298.589 65.872 299.954 63.568C301.405 61.1787 303.282 59.3013 305.586 57.936C307.975 56.4853 310.578 55.76 313.394 55.76H355.122V66.256H313.394C312.029 66.256 310.834 66.768 309.81 67.792C308.871 68.7307 308.402 69.8827 308.402 71.248V130H297.906ZM379.022 130C376.121 130 373.475 129.317 371.086 127.952C368.782 126.501 366.947 124.624 365.582 122.32C364.217 119.931 363.534 117.328 363.534 114.512V31.44H374.03V55.76H406.158V66.256H374.03V114.512C374.03 115.877 374.499 117.072 375.438 118.096C376.462 119.035 377.657 119.504 379.022 119.504H406.158V130H379.022ZM416.531 130V55.76H427.027V130H416.531ZM416.531 41.936V31.44H427.027V41.936H416.531ZM443.412 130V55.76H541.46C544.361 55.76 546.964 56.4853 549.268 57.936C551.657 59.3013 553.535 61.1787 554.9 63.568C556.265 65.872 556.948 68.432 556.948 71.248V130H546.58V71.248C546.58 69.8827 546.068 68.7307 545.044 67.792C544.02 66.768 542.825 66.256 541.46 66.256H510.612C509.247 66.256 508.052 66.768 507.028 67.792C506.089 68.7307 505.62 69.8827 505.62 71.248V130H494.996V71.248C494.996 69.8827 494.484 68.7307 493.46 67.792C492.521 66.768 491.369 66.256 490.004 66.256H459.028C457.663 66.256 456.468 66.768 455.444 67.792C454.505 68.7307 454.036 69.8827 454.036 71.248V130H443.412ZM583.641 130C580.825 130 578.222 129.317 575.833 127.952C573.529 126.501 571.652 124.624 570.201 122.32C568.836 119.931 568.153 117.328 568.153 114.512V71.248C568.153 68.432 568.836 65.872 570.201 63.568C571.652 61.1787 573.529 59.3013 575.833 57.936C578.222 56.4853 580.825 55.76 583.641 55.76H628.185C631.086 55.76 633.689 56.4853 635.993 57.936C638.382 59.3013 640.26 61.1787 641.625 63.568C643.076 65.872 643.801 68.432 643.801 71.248V98.128H578.649V114.512C578.649 115.877 579.118 117.072 580.057 118.096C581.081 119.035 582.276 119.504 583.641 119.504H643.801V130H583.641ZM578.649 87.632H633.177V71.248C633.177 69.8827 632.665 68.7307 631.641 67.792C630.702 66.768 629.55 66.256 628.185 66.256H583.641C582.276 66.256 581.081 66.768 580.057 67.792C579.118 68.7307 578.649 69.8827 578.649 71.248V87.632Z" fill="white"/>
<circle cx="53.0005" cy="84" r="5" fill="white"/>
<path d="M53.9514 84.6177C54.1237 84.4158 54.2054 84.1565 54.1736 83.8931C54.1421 83.6299 53.9998 83.3841 53.7828 83.2136C53.5657 83.0431 53.2932 82.963 53.03 82.9948C52.7666 83.0263 52.534 83.1671 52.3786 83.3823C52.1344 83.7202 51.8901 84.0582 51.6458 84.3962C47.2488 90.4794 42.8518 96.5627 38.4547 102.646C38.2105 102.984 37.9662 103.322 37.7219 103.66C37.9924 103.342 38.2629 103.025 38.5334 102.708C43.4022 96.9951 48.2711 91.2825 53.14 85.5698C53.4104 85.2525 53.6809 84.9351 53.9514 84.6177Z" fill="white"/>
<path d="M52.291 83.2723C52.0979 83.4542 51.9878 83.7035 51.9886 83.9688C51.9892 84.2339 52.1006 84.4933 52.2947 84.6865C52.4889 84.8797 52.7489 84.9897 53.0141 84.9889C53.2794 84.9883 53.5281 84.8769 53.709 84.6828C54.0615 84.3047 54.4141 83.9267 54.7667 83.5487C61.1128 76.7438 67.459 69.9389 73.8052 63.1341C74.1578 62.756 74.5103 62.378 74.8629 62C74.4867 62.3545 74.1105 62.709 73.7343 63.0636C66.9627 69.4453 60.1912 75.827 53.4196 82.2087C53.0434 82.5632 52.6672 82.9177 52.291 83.2723Z" fill="white"/>
<path d="M48.628 60V52.464L47.296 54.06H46.012L48.28 51.36H49.624V60H48.628ZM51.3715 60V56.76C51.3715 56.488 51.4355 56.244 51.5635 56.028C51.6915 55.804 51.8635 55.628 52.0795 55.5C52.3035 55.372 52.5515 55.308 52.8235 55.308H58.6435C58.7715 55.308 58.8795 55.264 58.9675 55.176C59.0635 55.08 59.1115 54.968 59.1115 54.84V52.812C59.1115 52.684 59.0635 52.576 58.9675 52.488C58.8795 52.392 58.7715 52.344 58.6435 52.344H52.8235C52.6955 52.344 52.5835 52.392 52.4875 52.488C52.3995 52.576 52.3555 52.684 52.3555 52.812V53.148H51.3715V52.812C51.3715 52.54 51.4355 52.296 51.5635 52.08C51.6915 51.856 51.8635 51.68 52.0795 51.552C52.3035 51.416 52.5515 51.348 52.8235 51.348H58.6435C58.9075 51.348 59.1475 51.416 59.3635 51.552C59.5875 51.68 59.7635 51.856 59.8915 52.08C60.0275 52.296 60.0955 52.54 60.0955 52.812V54.84C60.0955 55.104 60.0275 55.348 59.8915 55.572C59.7635 55.788 59.5875 55.964 59.3635 56.1C59.1475 56.228 58.9075 56.292 58.6435 56.292H52.8235C52.6955 56.292 52.5835 56.34 52.4875 56.436C52.3995 56.524 52.3555 56.632 52.3555 56.76V58.548C52.3555 58.676 52.3995 58.788 52.4875 58.884C52.5835 58.972 52.6955 59.016 52.8235 59.016H60.0955V60H51.3715Z" fill="white"/>
<path d="M79.1 89C78.828 89 78.58 88.936 78.356 88.808C78.14 88.672 77.964 88.496 77.828 88.28C77.7 88.056 77.636 87.812 77.636 87.548V87.356H78.632V87.548C78.632 87.676 78.676 87.788 78.764 87.884C78.86 87.972 78.972 88.016 79.1 88.016H84.92C85.048 88.016 85.156 87.972 85.244 87.884C85.34 87.788 85.388 87.676 85.388 87.548V85.544C85.388 85.416 85.34 85.308 85.244 85.22C85.156 85.124 85.048 85.076 84.92 85.076H79.292V84.092H84.536C84.664 84.092 84.772 84.048 84.86 83.96C84.956 83.864 85.004 83.752 85.004 83.624V81.812C85.004 81.684 84.956 81.576 84.86 81.488C84.772 81.392 84.664 81.344 84.536 81.344H79.1C78.972 81.344 78.86 81.392 78.764 81.488C78.676 81.576 78.632 81.684 78.632 81.812V82.124H77.636V81.812C77.636 81.54 77.7 81.296 77.828 81.08C77.964 80.856 78.14 80.68 78.356 80.552C78.58 80.416 78.828 80.348 79.1 80.348H84.536C84.808 80.348 85.052 80.416 85.268 80.552C85.492 80.68 85.668 80.856 85.796 81.08C85.924 81.296 85.988 81.54 85.988 81.812V83.624C85.988 83.736 85.972 83.848 85.94 83.96C85.916 84.064 85.884 84.16 85.844 84.248C86.044 84.44 86.18 84.652 86.252 84.884C86.332 85.116 86.372 85.336 86.372 85.544V87.548C86.372 87.812 86.304 88.056 86.168 88.28C86.04 88.496 85.864 88.672 85.64 88.808C85.424 88.936 85.184 89 84.92 89H79.1Z" fill="white"/>
<path d="M50.136 118C49.864 118 49.616 117.936 49.392 117.808C49.176 117.672 49.004 117.496 48.876 117.28C48.748 117.056 48.684 116.812 48.684 116.548V110.812C48.684 110.54 48.748 110.296 48.876 110.08C49.004 109.856 49.176 109.68 49.392 109.552C49.616 109.416 49.864 109.348 50.136 109.348H55.896V110.344H50.136C50.008 110.344 49.896 110.392 49.8 110.488C49.712 110.576 49.668 110.684 49.668 110.812V112.54C49.668 112.668 49.712 112.78 49.8 112.876C49.896 112.972 50.008 113.02 50.136 113.02H55.956C56.22 113.02 56.46 113.084 56.676 113.212C56.9 113.34 57.076 113.516 57.204 113.74C57.34 113.956 57.408 114.2 57.408 114.472V116.548C57.408 116.812 57.34 117.056 57.204 117.28C57.076 117.496 56.9 117.672 56.676 117.808C56.46 117.936 56.22 118 55.956 118H50.136ZM50.136 117.016H55.956C56.084 117.016 56.192 116.972 56.28 116.884C56.376 116.788 56.424 116.676 56.424 116.548V114.472C56.424 114.344 56.376 114.236 56.28 114.148C56.192 114.052 56.084 114.004 55.956 114.004H49.668V116.548C49.668 116.676 49.712 116.788 49.8 116.884C49.896 116.972 50.008 117.016 50.136 117.016Z" fill="white"/>
<path d="M20.076 89C19.868 89 19.668 88.96 19.476 88.88C19.292 88.792 19.132 88.676 18.996 88.532C18.86 88.38 18.76 88.208 18.696 88.016H25.896C26.024 88.016 26.132 87.972 26.22 87.884C26.316 87.788 26.364 87.676 26.364 87.548V85.808C26.364 85.68 26.316 85.572 26.22 85.484C26.132 85.388 26.024 85.34 25.896 85.34H20.076C19.804 85.34 19.556 85.276 19.332 85.148C19.116 85.012 18.94 84.836 18.804 84.62C18.676 84.396 18.612 84.152 18.612 83.888V81.812C18.612 81.54 18.676 81.296 18.804 81.08C18.94 80.856 19.116 80.68 19.332 80.552C19.556 80.416 19.804 80.348 20.076 80.348H25.896C26.16 80.348 26.4 80.416 26.616 80.552C26.84 80.68 27.016 80.856 27.144 81.08C27.28 81.296 27.348 81.54 27.348 81.812V87.548C27.348 87.812 27.28 88.056 27.144 88.28C27.016 88.496 26.84 88.672 26.616 88.808C26.4 88.936 26.16 89 25.896 89H20.076ZM20.076 84.356H26.364V81.812C26.364 81.684 26.316 81.576 26.22 81.488C26.132 81.392 26.024 81.344 25.896 81.344H20.076C19.948 81.344 19.836 81.392 19.74 81.488C19.652 81.576 19.608 81.684 19.608 81.812V83.888C19.608 84.016 19.652 84.128 19.74 84.224C19.836 84.312 19.948 84.356 20.076 84.356Z" fill="white"/>
</svg>
