<svg width="708" height="146" viewBox="0 0 708 146" fill="none" xmlns="http://www.w3.org/2000/svg">
<mask id="path-1-outside-1_223_39" maskUnits="userSpaceOnUse" x="162" y="43" width="541" height="103" fill="black">
<rect fill="white" x="162" y="43" width="541" height="103"/>
<path d="M206.648 144L165.688 69.76H177.976L212.792 133.76L247.608 69.76H259.896L218.808 144H206.648ZM282.266 144C279.45 144 276.847 143.317 274.458 141.952C272.154 140.501 270.277 138.624 268.826 136.32C267.461 133.931 266.778 131.328 266.778 128.512V85.248C266.778 82.432 267.461 79.872 268.826 77.568C270.277 75.1787 272.154 73.3013 274.458 71.936C276.847 70.4853 279.45 69.76 282.266 69.76H326.81C329.711 69.76 332.314 70.4853 334.618 71.936C337.007 73.3013 338.885 75.1787 340.25 77.568C341.701 79.872 342.426 82.432 342.426 85.248V112.128H277.274V128.512C277.274 129.877 277.743 131.072 278.682 132.096C279.706 133.035 280.901 133.504 282.266 133.504H342.426V144H282.266ZM277.274 101.632H331.802V85.248C331.802 83.8827 331.29 82.7307 330.266 81.792C329.327 80.768 328.175 80.256 326.81 80.256H282.266C280.901 80.256 279.706 80.768 278.682 81.792C277.743 82.7307 277.274 83.8827 277.274 85.248V101.632ZM354.906 144V85.248C354.906 82.432 355.589 79.872 356.954 77.568C358.405 75.1787 360.282 73.3013 362.586 71.936C364.975 70.4853 367.578 69.76 370.394 69.76H412.122V80.256H370.394C369.029 80.256 367.834 80.768 366.81 81.792C365.871 82.7307 365.402 83.8827 365.402 85.248V144H354.906ZM436.022 144C433.121 144 430.475 143.317 428.086 141.952C425.782 140.501 423.947 138.624 422.582 136.32C421.217 133.931 420.534 131.328 420.534 128.512V45.44H431.03V69.76H463.158V80.256H431.03V128.512C431.03 129.877 431.499 131.072 432.438 132.096C433.462 133.035 434.657 133.504 436.022 133.504H463.158V144H436.022ZM473.531 144V69.76H484.027V144H473.531ZM473.531 55.936V45.44H484.027V55.936H473.531ZM500.412 144V69.76H598.46C601.361 69.76 603.964 70.4853 606.268 71.936C608.657 73.3013 610.535 75.1787 611.9 77.568C613.265 79.872 613.948 82.432 613.948 85.248V144H603.58V85.248C603.58 83.8827 603.068 82.7307 602.044 81.792C601.02 80.768 599.825 80.256 598.46 80.256H567.612C566.247 80.256 565.052 80.768 564.028 81.792C563.089 82.7307 562.62 83.8827 562.62 85.248V144H551.996V85.248C551.996 83.8827 551.484 82.7307 550.46 81.792C549.521 80.768 548.369 80.256 547.004 80.256H516.028C514.663 80.256 513.468 80.768 512.444 81.792C511.505 82.7307 511.036 83.8827 511.036 85.248V144H500.412ZM640.641 144C637.825 144 635.222 143.317 632.833 141.952C630.529 140.501 628.652 138.624 627.201 136.32C625.836 133.931 625.153 131.328 625.153 128.512V85.248C625.153 82.432 625.836 79.872 627.201 77.568C628.652 75.1787 630.529 73.3013 632.833 71.936C635.222 70.4853 637.825 69.76 640.641 69.76H685.185C688.086 69.76 690.689 70.4853 692.993 71.936C695.382 73.3013 697.26 75.1787 698.625 77.568C700.076 79.872 700.801 82.432 700.801 85.248V112.128H635.649V128.512C635.649 129.877 636.118 131.072 637.057 132.096C638.081 133.035 639.276 133.504 640.641 133.504H700.801V144H640.641ZM635.649 101.632H690.177V85.248C690.177 83.8827 689.665 82.7307 688.641 81.792C687.702 80.768 686.55 80.256 685.185 80.256H640.641C639.276 80.256 638.081 80.768 637.057 81.792C636.118 82.7307 635.649 83.8827 635.649 85.248V101.632Z"/>
</mask>
<path d="M206.648 144L204.897 144.966L205.467 146H206.648V144ZM165.688 69.76V67.76H162.3L163.937 70.7261L165.688 69.76ZM177.976 69.76L179.733 68.8043L179.165 67.76H177.976V69.76ZM212.792 133.76L211.035 134.716L212.792 137.945L214.549 134.716L212.792 133.76ZM247.608 69.76V67.76H246.419L245.851 68.8043L247.608 69.76ZM259.896 69.76L261.646 70.7285L263.289 67.76H259.896V69.76ZM218.808 144V146H219.987L220.558 144.968L218.808 144ZM206.648 144L208.399 143.034L167.439 68.7938L165.688 69.76L163.937 70.7261L204.897 144.966L206.648 144ZM165.688 69.76V71.76H177.976V69.76V67.76H165.688V69.76ZM177.976 69.76L176.219 70.7157L211.035 134.716L212.792 133.76L214.549 132.804L179.733 68.8043L177.976 69.76ZM212.792 133.76L214.549 134.716L249.365 70.7157L247.608 69.76L245.851 68.8043L211.035 132.804L212.792 133.76ZM247.608 69.76V71.76H259.896V69.76V67.76H247.608V69.76ZM259.896 69.76L258.146 68.7915L217.058 143.032L218.808 144L220.558 144.968L261.646 70.7285L259.896 69.76ZM218.808 144V142H206.648V144V146H218.808V144ZM274.458 141.952L273.392 143.644L273.429 143.667L273.466 143.688L274.458 141.952ZM268.826 136.32L267.09 137.312L267.111 137.349L267.134 137.386L268.826 136.32ZM268.826 77.568L267.116 76.53L267.111 76.5392L267.105 76.5484L268.826 77.568ZM274.458 71.936L275.478 73.6566L275.487 73.6511L275.496 73.6456L274.458 71.936ZM334.618 71.936L333.552 73.6285L333.589 73.6513L333.626 73.6725L334.618 71.936ZM340.25 77.568L338.514 78.5603L338.535 78.5974L338.558 78.6336L340.25 77.568ZM342.426 112.128V114.128H344.426V112.128H342.426ZM277.274 112.128V110.128H275.274V112.128H277.274ZM278.682 132.096L277.208 133.447L277.266 133.512L277.331 133.57L278.682 132.096ZM342.426 133.504H344.426V131.504H342.426V133.504ZM342.426 144V146H344.426V144H342.426ZM277.274 101.632H275.274V103.632H277.274V101.632ZM331.802 101.632V103.632H333.802V101.632H331.802ZM330.266 81.792L328.792 83.1434L328.85 83.2075L328.915 83.2663L330.266 81.792ZM278.682 81.792L280.096 83.2062L278.682 81.792ZM282.266 144V142C279.79 142 277.53 141.404 275.45 140.216L274.458 141.952L273.466 143.688C276.165 145.231 279.11 146 282.266 146V144ZM274.458 141.952L275.524 140.26C273.473 138.968 271.81 137.305 270.518 135.254L268.826 136.32L267.134 137.386C268.744 139.943 270.835 142.034 273.392 143.644L274.458 141.952ZM268.826 136.32L270.562 135.328C269.374 133.248 268.778 130.988 268.778 128.512H266.778H264.778C264.778 131.668 265.547 134.613 267.09 137.312L268.826 136.32ZM266.778 128.512H268.778V85.248H266.778H264.778V128.512H266.778ZM266.778 85.248H268.778C268.778 82.7715 269.374 80.5668 270.547 78.5876L268.826 77.568L267.105 76.5484C265.548 79.1772 264.778 82.0925 264.778 85.248H266.778ZM268.826 77.568L270.536 78.6059C271.824 76.4847 273.469 74.8471 275.478 73.6566L274.458 71.936L273.438 70.2154C270.839 71.7556 268.73 73.8727 267.116 76.53L268.826 77.568ZM274.458 71.936L275.496 73.6456C277.57 72.3864 279.813 71.76 282.266 71.76V69.76V67.76C279.087 67.76 276.125 68.5843 273.42 70.2264L274.458 71.936ZM282.266 69.76V71.76H326.81V69.76V67.76H282.266V69.76ZM326.81 69.76V71.76C329.36 71.76 331.589 72.3921 333.552 73.6285L334.618 71.936L335.684 70.2435C333.039 68.5786 330.063 67.76 326.81 67.76V69.76ZM334.618 71.936L333.626 73.6725C335.705 74.8606 337.325 76.481 338.514 78.5603L340.25 77.568L341.986 76.5757C340.444 73.8763 338.31 71.742 335.61 70.1995L334.618 71.936ZM340.25 77.568L338.558 78.6336C339.8 80.6072 340.426 82.7955 340.426 85.248H342.426H344.426C344.426 82.0685 343.601 79.1368 341.942 76.5024L340.25 77.568ZM342.426 85.248H340.426V112.128H342.426H344.426V85.248H342.426ZM342.426 112.128V110.128H277.274V112.128V114.128H342.426V112.128ZM277.274 112.128H275.274V128.512H277.274H279.274V112.128H277.274ZM277.274 128.512H275.274C275.274 130.387 275.937 132.062 277.208 133.447L278.682 132.096L280.156 130.745C279.549 130.082 279.274 129.367 279.274 128.512H277.274ZM278.682 132.096L277.331 133.57C278.716 134.841 280.391 135.504 282.266 135.504V133.504V131.504C281.411 131.504 280.696 131.229 280.033 130.622L278.682 132.096ZM282.266 133.504V135.504H342.426V133.504V131.504H282.266V133.504ZM342.426 133.504H340.426V144H342.426H344.426V133.504H342.426ZM342.426 144V142H282.266V144V146H342.426V144ZM277.274 101.632V103.632H331.802V101.632V99.632H277.274V101.632ZM331.802 101.632H333.802V85.248H331.802H329.802V101.632H331.802ZM331.802 85.248H333.802C333.802 83.311 333.047 81.6277 331.617 80.3177L330.266 81.792L328.915 83.2663C329.533 83.8337 329.802 84.4543 329.802 85.248H331.802ZM330.266 81.792L331.74 80.4405C330.43 79.0115 328.747 78.256 326.81 78.256V80.256V82.256C327.604 82.256 328.224 82.5245 328.792 83.1434L330.266 81.792ZM326.81 80.256V78.256H282.266V80.256V82.256H326.81V80.256ZM282.266 80.256V78.256C280.336 78.256 278.642 79.004 277.268 80.3778L278.682 81.792L280.096 83.2062C280.77 82.532 281.466 82.256 282.266 82.256V80.256ZM278.682 81.792L277.268 80.3778C275.942 81.7033 275.274 83.3692 275.274 85.248H277.274H279.274C279.274 84.3962 279.544 83.758 280.096 83.2062L278.682 81.792ZM277.274 85.248H275.274V101.632H277.274H279.274V85.248H277.274ZM354.906 144H352.906V146H354.906V144ZM356.954 77.568L355.244 76.53L355.239 76.5392L355.233 76.5484L356.954 77.568ZM362.586 71.936L363.606 73.6566L363.615 73.6511L363.624 73.6456L362.586 71.936ZM412.122 69.76H414.122V67.76H412.122V69.76ZM412.122 80.256V82.256H414.122V80.256H412.122ZM366.81 81.792L368.224 83.2062L366.81 81.792ZM365.402 144V146H367.402V144H365.402ZM354.906 144H356.906V85.248H354.906H352.906V144H354.906ZM354.906 85.248H356.906C356.906 82.7715 357.502 80.5668 358.675 78.5876L356.954 77.568L355.233 76.5484C353.676 79.1772 352.906 82.0925 352.906 85.248H354.906ZM356.954 77.568L358.664 78.6059C359.952 76.4847 361.597 74.8471 363.606 73.6566L362.586 71.936L361.566 70.2154C358.967 71.7556 356.858 73.8727 355.244 76.53L356.954 77.568ZM362.586 71.936L363.624 73.6456C365.698 72.3864 367.941 71.76 370.394 71.76V69.76V67.76C367.215 67.76 364.253 68.5843 361.548 70.2264L362.586 71.936ZM370.394 69.76V71.76H412.122V69.76V67.76H370.394V69.76ZM412.122 69.76H410.122V80.256H412.122H414.122V69.76H412.122ZM412.122 80.256V78.256H370.394V80.256V82.256H412.122V80.256ZM370.394 80.256V78.256C368.464 78.256 366.77 79.004 365.396 80.3778L366.81 81.792L368.224 83.2062C368.898 82.532 369.594 82.256 370.394 82.256V80.256ZM366.81 81.792L365.396 80.3778C364.07 81.7033 363.402 83.3692 363.402 85.248H365.402H367.402C367.402 84.3962 367.672 83.758 368.224 83.2062L366.81 81.792ZM365.402 85.248H363.402V144H365.402H367.402V85.248H365.402ZM365.402 144V142H354.906V144V146H365.402V144ZM428.086 141.952L427.02 143.644L427.057 143.667L427.094 143.688L428.086 141.952ZM422.582 136.32L420.846 137.312L420.853 137.326L420.861 137.34L422.582 136.32ZM420.534 45.44V43.44H418.534V45.44H420.534ZM431.03 45.44H433.03V43.44H431.03V45.44ZM431.03 69.76H429.03V71.76H431.03V69.76ZM463.158 69.76H465.158V67.76H463.158V69.76ZM463.158 80.256V82.256H465.158V80.256H463.158ZM431.03 80.256V78.256H429.03V80.256H431.03ZM432.438 132.096L430.964 133.447L431.022 133.512L431.087 133.57L432.438 132.096ZM463.158 133.504H465.158V131.504H463.158V133.504ZM463.158 144V146H465.158V144H463.158ZM436.022 144V142C433.449 142 431.149 141.399 429.078 140.216L428.086 141.952L427.094 143.688C429.802 145.236 432.792 146 436.022 146V144ZM428.086 141.952L429.152 140.26C427.112 138.975 425.503 137.327 424.303 135.3L422.582 136.32L420.861 137.34C422.391 139.921 424.452 142.028 427.02 143.644L428.086 141.952ZM422.582 136.32L424.318 135.328C423.13 133.248 422.534 130.988 422.534 128.512H420.534H418.534C418.534 131.668 419.303 134.613 420.846 137.312L422.582 136.32ZM420.534 128.512H422.534V45.44H420.534H418.534V128.512H420.534ZM420.534 45.44V47.44H431.03V45.44V43.44H420.534V45.44ZM431.03 45.44H429.03V69.76H431.03H433.03V45.44H431.03ZM431.03 69.76V71.76H463.158V69.76V67.76H431.03V69.76ZM463.158 69.76H461.158V80.256H463.158H465.158V69.76H463.158ZM463.158 80.256V78.256H431.03V80.256V82.256H463.158V80.256ZM431.03 80.256H429.03V128.512H431.03H433.03V80.256H431.03ZM431.03 128.512H429.03C429.03 130.387 429.693 132.062 430.964 133.447L432.438 132.096L433.912 130.745C433.305 130.082 433.03 129.367 433.03 128.512H431.03ZM432.438 132.096L431.087 133.57C432.472 134.841 434.147 135.504 436.022 135.504V133.504V131.504C435.167 131.504 434.452 131.229 433.789 130.622L432.438 132.096ZM436.022 133.504V135.504H463.158V133.504V131.504H436.022V133.504ZM463.158 133.504H461.158V144H463.158H465.158V133.504H463.158ZM463.158 144V142H436.022V144V146H463.158V144ZM473.531 144H471.531V146H473.531V144ZM473.531 69.76V67.76H471.531V69.76H473.531ZM484.027 69.76H486.027V67.76H484.027V69.76ZM484.027 144V146H486.027V144H484.027ZM473.531 55.936H471.531V57.936H473.531V55.936ZM473.531 45.44V43.44H471.531V45.44H473.531ZM484.027 45.44H486.027V43.44H484.027V45.44ZM484.027 55.936V57.936H486.027V55.936H484.027ZM473.531 144H475.531V69.76H473.531H471.531V144H473.531ZM473.531 69.76V71.76H484.027V69.76V67.76H473.531V69.76ZM484.027 69.76H482.027V144H484.027H486.027V69.76H484.027ZM484.027 144V142H473.531V144V146H484.027V144ZM473.531 55.936H475.531V45.44H473.531H471.531V55.936H473.531ZM473.531 45.44V47.44H484.027V45.44V43.44H473.531V45.44ZM484.027 45.44H482.027V55.936H484.027H486.027V45.44H484.027ZM484.027 55.936V53.936H473.531V55.936V57.936H484.027V55.936ZM500.412 144H498.412V146H500.412V144ZM500.412 69.76V67.76H498.412V69.76H500.412ZM606.268 71.936L605.202 73.6285L605.239 73.6513L605.276 73.6725L606.268 71.936ZM611.9 77.568L610.164 78.5603L610.171 78.574L610.179 78.5876L611.9 77.568ZM613.948 144V146H615.948V144H613.948ZM603.58 144H601.58V146H603.58V144ZM602.044 81.792L600.63 83.2062L600.661 83.2369L600.693 83.2663L602.044 81.792ZM564.028 81.792L562.614 80.3778L562.614 80.3778L564.028 81.792ZM562.62 144V146H564.62V144H562.62ZM551.996 144H549.996V146H551.996V144ZM550.46 81.792L548.986 83.1434L549.044 83.2075L549.109 83.2663L550.46 81.792ZM512.444 81.792L511.03 80.3778L511.03 80.3778L512.444 81.792ZM511.036 144V146H513.036V144H511.036ZM500.412 144H502.412V69.76H500.412H498.412V144H500.412ZM500.412 69.76V71.76H598.46V69.76V67.76H500.412V69.76ZM598.46 69.76V71.76C601.01 71.76 603.239 72.3921 605.202 73.6285L606.268 71.936L607.334 70.2435C604.689 68.5786 601.713 67.76 598.46 67.76V69.76ZM606.268 71.936L605.276 73.6725C607.355 74.8606 608.975 76.481 610.164 78.5603L611.9 77.568L613.636 76.5757C612.094 73.8763 609.96 71.742 607.26 70.1995L606.268 71.936ZM611.9 77.568L610.179 78.5876C611.352 80.5668 611.948 82.7715 611.948 85.248H613.948H615.948C615.948 82.0925 615.178 79.1772 613.621 76.5484L611.9 77.568ZM613.948 85.248H611.948V144H613.948H615.948V85.248H613.948ZM613.948 144V142H603.58V144V146H613.948V144ZM603.58 144H605.58V85.248H603.58H601.58V144H603.58ZM603.58 85.248H605.58C605.58 83.311 604.825 81.6277 603.395 80.3177L602.044 81.792L600.693 83.2663C601.311 83.8337 601.58 84.4543 601.58 85.248H603.58ZM602.044 81.792L603.458 80.3778C602.084 79.004 600.39 78.256 598.46 78.256V80.256V82.256C599.26 82.256 599.956 82.532 600.63 83.2062L602.044 81.792ZM598.46 80.256V78.256H567.612V80.256V82.256H598.46V80.256ZM567.612 80.256V78.256C565.682 78.256 563.988 79.004 562.614 80.3778L564.028 81.792L565.442 83.2062C566.116 82.532 566.812 82.256 567.612 82.256V80.256ZM564.028 81.792L562.614 80.3778C561.288 81.7033 560.62 83.3692 560.62 85.248H562.62H564.62C564.62 84.3962 564.89 83.758 565.442 83.2062L564.028 81.792ZM562.62 85.248H560.62V144H562.62H564.62V85.248H562.62ZM562.62 144V142H551.996V144V146H562.62V144ZM551.996 144H553.996V85.248H551.996H549.996V144H551.996ZM551.996 85.248H553.996C553.996 83.311 553.241 81.6277 551.811 80.3177L550.46 81.792L549.109 83.2663C549.727 83.8337 549.996 84.4543 549.996 85.248H551.996ZM550.46 81.792L551.934 80.4405C550.624 79.0115 548.941 78.256 547.004 78.256V80.256V82.256C547.798 82.256 548.418 82.5245 548.986 83.1434L550.46 81.792ZM547.004 80.256V78.256H516.028V80.256V82.256H547.004V80.256ZM516.028 80.256V78.256C514.098 78.256 512.404 79.004 511.03 80.3778L512.444 81.792L513.858 83.2062C514.532 82.532 515.228 82.256 516.028 82.256V80.256ZM512.444 81.792L511.03 80.3778C509.704 81.7033 509.036 83.3692 509.036 85.248H511.036H513.036C513.036 84.3962 513.306 83.758 513.858 83.2062L512.444 81.792ZM511.036 85.248H509.036V144H511.036H513.036V85.248H511.036ZM511.036 144V142H500.412V144V146H511.036V144ZM632.833 141.952L631.767 143.644L631.804 143.667L631.841 143.688L632.833 141.952ZM627.201 136.32L625.465 137.312L625.486 137.349L625.509 137.386L627.201 136.32ZM627.201 77.568L625.491 76.53L625.486 76.5392L625.48 76.5484L627.201 77.568ZM632.833 71.936L633.853 73.6566L633.862 73.6511L633.871 73.6456L632.833 71.936ZM692.993 71.936L691.927 73.6285L691.964 73.6513L692.001 73.6725L692.993 71.936ZM698.625 77.568L696.889 78.5603L696.91 78.5974L696.933 78.6336L698.625 77.568ZM700.801 112.128V114.128H702.801V112.128H700.801ZM635.649 112.128V110.128H633.649V112.128H635.649ZM637.057 132.096L635.583 133.447L635.641 133.512L635.706 133.57L637.057 132.096ZM700.801 133.504H702.801V131.504H700.801V133.504ZM700.801 144V146H702.801V144H700.801ZM635.649 101.632H633.649V103.632H635.649V101.632ZM690.177 101.632V103.632H692.177V101.632H690.177ZM688.641 81.792L687.167 83.1434L687.225 83.2075L687.29 83.2663L688.641 81.792ZM637.057 81.792L638.471 83.2062L637.057 81.792ZM640.641 144V142C638.165 142 635.905 141.404 633.825 140.216L632.833 141.952L631.841 143.688C634.54 145.231 637.485 146 640.641 146V144ZM632.833 141.952L633.899 140.26C631.848 138.968 630.185 137.305 628.893 135.254L627.201 136.32L625.509 137.386C627.119 139.943 629.21 142.034 631.767 143.644L632.833 141.952ZM627.201 136.32L628.937 135.328C627.749 133.248 627.153 130.988 627.153 128.512H625.153H623.153C623.153 131.668 623.922 134.613 625.465 137.312L627.201 136.32ZM625.153 128.512H627.153V85.248H625.153H623.153V128.512H625.153ZM625.153 85.248H627.153C627.153 82.7715 627.749 80.5668 628.922 78.5876L627.201 77.568L625.48 76.5484C623.923 79.1772 623.153 82.0925 623.153 85.248H625.153ZM627.201 77.568L628.911 78.6059C630.199 76.4847 631.844 74.8471 633.853 73.6566L632.833 71.936L631.813 70.2154C629.214 71.7556 627.105 73.8727 625.491 76.53L627.201 77.568ZM632.833 71.936L633.871 73.6456C635.945 72.3864 638.188 71.76 640.641 71.76V69.76V67.76C637.462 67.76 634.5 68.5843 631.795 70.2264L632.833 71.936ZM640.641 69.76V71.76H685.185V69.76V67.76H640.641V69.76ZM685.185 69.76V71.76C687.735 71.76 689.964 72.3921 691.927 73.6285L692.993 71.936L694.059 70.2435C691.414 68.5786 688.438 67.76 685.185 67.76V69.76ZM692.993 71.936L692.001 73.6725C694.08 74.8606 695.7 76.481 696.889 78.5603L698.625 77.568L700.361 76.5757C698.819 73.8763 696.685 71.742 693.985 70.1995L692.993 71.936ZM698.625 77.568L696.933 78.6336C698.175 80.6072 698.801 82.7955 698.801 85.248H700.801H702.801C702.801 82.0685 701.976 79.1368 700.317 76.5024L698.625 77.568ZM700.801 85.248H698.801V112.128H700.801H702.801V85.248H700.801ZM700.801 112.128V110.128H635.649V112.128V114.128H700.801V112.128ZM635.649 112.128H633.649V128.512H635.649H637.649V112.128H635.649ZM635.649 128.512H633.649C633.649 130.387 634.312 132.062 635.583 133.447L637.057 132.096L638.531 130.745C637.924 130.082 637.649 129.367 637.649 128.512H635.649ZM637.057 132.096L635.706 133.57C637.091 134.841 638.766 135.504 640.641 135.504V133.504V131.504C639.786 131.504 639.071 131.229 638.408 130.622L637.057 132.096ZM640.641 133.504V135.504H700.801V133.504V131.504H640.641V133.504ZM700.801 133.504H698.801V144H700.801H702.801V133.504H700.801ZM700.801 144V142H640.641V144V146H700.801V144ZM635.649 101.632V103.632H690.177V101.632V99.632H635.649V101.632ZM690.177 101.632H692.177V85.248H690.177H688.177V101.632H690.177ZM690.177 85.248H692.177C692.177 83.311 691.422 81.6277 689.992 80.3177L688.641 81.792L687.29 83.2663C687.908 83.8337 688.177 84.4543 688.177 85.248H690.177ZM688.641 81.792L690.115 80.4405C688.805 79.0115 687.122 78.256 685.185 78.256V80.256V82.256C685.979 82.256 686.599 82.5245 687.167 83.1434L688.641 81.792ZM685.185 80.256V78.256H640.641V80.256V82.256H685.185V80.256ZM640.641 80.256V78.256C638.711 78.256 637.017 79.004 635.643 80.3778L637.057 81.792L638.471 83.2062C639.145 82.532 639.841 82.256 640.641 82.256V80.256ZM637.057 81.792L635.643 80.3778C634.317 81.7033 633.649 83.3692 633.649 85.248H635.649H637.649C637.649 84.3962 637.919 83.758 638.471 83.2062L637.057 81.792ZM635.649 85.248H633.649V101.632H635.649H637.649V85.248H635.649Z" fill="#E69138" mask="url(#path-1-outside-1_223_39)"/>
<mask id="path-3-inside-2_223_39" fill="white">
<path d="M34.8 144C30.4 144 26.3333 142.933 22.6 140.8C19 138.667 16.1333 135.8 14 132.2C11.8667 128.467 10.8 124.4 10.8 120V24C10.8 19.6 11.8667 15.6 14 12C16.1333 8.26666 19 5.33333 22.6 3.19999C26.3333 1.06666 30.4 -5.72205e-06 34.8 -5.72205e-06H130.8C135.2 -5.72205e-06 139.2 1.06666 142.8 3.19999C146.533 5.33333 149.467 8.26666 151.6 12C153.733 15.6 154.8 19.6 154.8 24V120C154.8 124.4 153.733 128.467 151.6 132.2C149.467 135.8 146.533 138.667 142.8 140.8C139.2 142.933 135.2 144 130.8 144H34.8ZM34.8 127.8H130.8C132.933 127.8 134.733 127.067 136.2 125.6C137.8 124 138.6 122.133 138.6 120V24C138.6 21.8667 137.8 20.0667 136.2 18.6C134.733 17 132.933 16.2 130.8 16.2H34.8C32.6667 16.2 30.8 17 29.2 18.6C27.7333 20.0667 27 21.8667 27 24V120C27 122.133 27.7333 124 29.2 125.6C30.8 127.067 32.6667 127.8 34.8 127.8Z"/>
</mask>
<path d="M22.6 140.8L21.5804 142.521L21.594 142.529L21.6077 142.536L22.6 140.8ZM14 132.2L12.2635 133.192L12.2714 133.206L12.2794 133.22L14 132.2ZM14 12L15.7206 13.0196L15.7286 13.006L15.7365 12.9923L14 12ZM22.6 3.19999L21.6077 1.4635L21.594 1.47135L21.5804 1.47941L22.6 3.19999ZM142.8 3.19999L141.78 4.92057L141.794 4.92863L141.808 4.93647L142.8 3.19999ZM151.6 12L149.864 12.9923L149.871 13.006L149.879 13.0196L151.6 12ZM151.6 132.2L153.321 133.22L153.329 133.206L153.336 133.192L151.6 132.2ZM142.8 140.8L141.808 139.064L141.794 139.071L141.78 139.079L142.8 140.8ZM136.2 125.6L137.614 127.014L137.614 127.014L136.2 125.6ZM136.2 18.6L134.726 19.9514L134.784 20.0155L134.849 20.0743L136.2 18.6ZM29.2 18.6L30.6142 20.0142L30.6142 20.0142L29.2 18.6ZM29.2 125.6L27.7257 126.951L27.7845 127.016L27.8486 127.074L29.2 125.6ZM34.8 144V142C30.7396 142 27.0161 141.02 23.5923 139.064L22.6 140.8L21.6077 142.536C25.6505 144.847 30.0604 146 34.8 146V144ZM22.6 140.8L23.6196 139.079C20.3084 137.117 17.6828 134.492 15.7206 131.18L14 132.2L12.2794 133.22C14.5839 137.108 17.6916 140.216 21.5804 142.521L22.6 140.8ZM14 132.2L15.7365 131.208C13.78 127.784 12.8 124.06 12.8 120H10.8H8.8C8.8 124.74 9.95334 129.149 12.2635 133.192L14 132.2ZM10.8 120H12.8V24H10.8H8.8V120H10.8ZM10.8 24H12.8C12.8 19.9395 13.7797 16.2948 15.7206 13.0196L14 12L12.2794 10.9804C9.95361 14.9052 8.8 19.2605 8.8 24H10.8ZM14 12L15.7365 12.9923C17.7029 9.55104 20.3261 6.8723 23.6196 4.92057L22.6 3.19999L21.5804 1.47941C17.6739 3.79435 14.5638 6.98229 12.2635 11.0077L14 12ZM22.6 3.19999L23.5923 4.93648C27.0161 2.97999 30.7396 1.99999 34.8 1.99999V-5.72205e-06V-2.00001C30.0604 -2.00001 25.6505 -0.84667 21.6077 1.4635L22.6 3.19999ZM34.8 -5.72205e-06V1.99999H130.8V-5.72205e-06V-2.00001H34.8V-5.72205e-06ZM130.8 -5.72205e-06V1.99999C134.86 1.99999 138.505 2.97972 141.78 4.92057L142.8 3.19999L143.82 1.4794C139.895 -0.8464 135.54 -2.00001 130.8 -2.00001V-5.72205e-06ZM142.8 3.19999L141.808 4.93647C145.231 6.89263 147.907 9.569 149.864 12.9923L151.6 12L153.336 11.0077C151.026 6.96432 147.836 3.77402 143.792 1.4635L142.8 3.19999ZM151.6 12L149.879 13.0196C151.82 16.2948 152.8 19.9395 152.8 24H154.8H156.8C156.8 19.2605 155.646 14.9052 153.321 10.9804L151.6 12ZM154.8 24H152.8V120H154.8H156.8V24H154.8ZM154.8 120H152.8C152.8 124.06 151.82 127.784 149.864 131.208L151.6 132.2L153.336 133.192C155.647 129.149 156.8 124.74 156.8 120H154.8ZM151.6 132.2L149.879 131.18C147.928 134.474 145.249 137.097 141.808 139.064L142.8 140.8L143.792 142.536C147.818 140.236 151.006 137.126 153.321 133.22L151.6 132.2ZM142.8 140.8L141.78 139.079C138.505 141.02 134.86 142 130.8 142V144V146C135.54 146 139.895 144.846 143.82 142.521L142.8 140.8ZM130.8 144V142H34.8V144V146H130.8V144ZM34.8 127.8V129.8H130.8V127.8V125.8H34.8V127.8ZM130.8 127.8V129.8C133.447 129.8 135.761 128.868 137.614 127.014L136.2 125.6L134.786 124.186C133.706 125.266 132.42 125.8 130.8 125.8V127.8ZM136.2 125.6L137.614 127.014C139.564 125.064 140.6 122.698 140.6 120H138.6H136.6C136.6 121.568 136.036 122.936 134.786 124.186L136.2 125.6ZM138.6 120H140.6V24H138.6H136.6V120H138.6ZM138.6 24H140.6C140.6 21.295 139.557 18.9637 137.551 17.1257L136.2 18.6L134.849 20.0743C136.043 21.1697 136.6 22.4383 136.6 24H138.6ZM136.2 18.6L137.674 17.2485C135.836 15.2435 133.505 14.2 130.8 14.2V16.2V18.2C132.362 18.2 133.63 18.7565 134.726 19.9514L136.2 18.6ZM130.8 16.2V14.2H34.8V16.2V18.2H130.8V16.2ZM34.8 16.2V14.2C32.1016 14.2 29.7356 15.236 27.7858 17.1858L29.2 18.6L30.6142 20.0142C31.8644 18.764 33.2318 18.2 34.8 18.2V16.2ZM29.2 18.6L27.7858 17.1858C25.9322 19.0393 25 21.3532 25 24H27H29C29 22.3802 29.5344 21.094 30.6142 20.0142L29.2 18.6ZM27 24H25V120H27H29V24H27ZM27 120H25C25 122.643 25.9274 124.99 27.7257 126.951L29.2 125.6L30.6743 124.249C29.5392 123.01 29 121.623 29 120H27ZM29.2 125.6L27.8486 127.074C29.8103 128.873 32.1567 129.8 34.8 129.8V127.8V125.8C33.1766 125.8 31.7897 125.261 30.5515 124.126L29.2 125.6Z" fill="#E69138" mask="url(#path-3-inside-2_223_39)"/>
<circle cx="83" cy="72" r="5" fill="#E69138"/>
<path d="M85.3197 73.4487C85.743 72.9362 85.9311 72.2897 85.8201 71.6355C85.7103 70.9821 85.3105 70.3746 84.731 69.9626C84.1515 69.5505 83.4463 69.3723 82.7932 69.4832C82.1387 69.5931 81.5899 69.9831 81.2448 70.5513C80.9407 71.0508 80.6366 71.5504 80.3325 72.0499C74.8591 81.0418 69.3856 90.0336 63.9121 99.0255C63.608 99.525 63.3039 100.025 62.9999 100.524C63.3719 100.073 63.7439 99.6216 64.1159 99.1704C70.8118 91.0477 77.5077 82.9251 84.2037 74.8025C84.5757 74.3513 84.9477 73.9 85.3197 73.4487Z" fill="#E69138"/>
<path d="M81.2555 70.2093C80.7541 70.6449 80.4593 71.2536 80.4511 71.917C80.442 72.5795 80.7202 73.2425 81.2093 73.7445C81.6984 74.2466 82.3539 74.542 83.0165 74.5502C83.6799 74.5593 84.296 74.2805 84.7445 73.7907C85.2458 73.2442 85.7471 72.6977 86.2483 72.1512C95.2709 62.314 104.293 52.4768 113.316 42.6396C113.817 42.093 114.319 41.5465 114.82 41C114.26 41.4868 113.701 41.9737 113.142 42.4605C103.072 51.2233 93.003 59.9861 82.9337 68.7489C82.3743 69.2357 81.8149 69.7225 81.2555 70.2093Z" fill="#E69138"/>
<path d="M75.673 35V22.44L73.453 25.1H71.313L75.093 20.6H77.333V35H75.673ZM80.2455 35V29.6C80.2455 29.1467 80.3521 28.74 80.5655 28.38C80.7788 28.0067 81.0655 27.7133 81.4255 27.5C81.7988 27.2867 82.2121 27.18 82.6655 27.18H92.3655C92.5788 27.18 92.7588 27.1067 92.9055 26.96C93.0655 26.8 93.1455 26.6133 93.1455 26.4V23.02C93.1455 22.8067 93.0655 22.6267 92.9055 22.48C92.7588 22.32 92.5788 22.24 92.3655 22.24H82.6655C82.4521 22.24 82.2655 22.32 82.1055 22.48C81.9588 22.6267 81.8855 22.8067 81.8855 23.02V23.58H80.2455V23.02C80.2455 22.5667 80.3521 22.16 80.5655 21.8C80.7788 21.4267 81.0655 21.1333 81.4255 20.92C81.7988 20.6933 82.2121 20.58 82.6655 20.58H92.3655C92.8055 20.58 93.2055 20.6933 93.5655 20.92C93.9388 21.1333 94.2321 21.4267 94.4455 21.8C94.6721 22.16 94.7855 22.5667 94.7855 23.02V26.4C94.7855 26.84 94.6721 27.2467 94.4455 27.62C94.2321 27.98 93.9388 28.2733 93.5655 28.5C93.2055 28.7133 92.8055 28.82 92.3655 28.82H82.6655C82.4521 28.82 82.2655 28.9 82.1055 29.06C81.9588 29.2067 81.8855 29.3867 81.8855 29.6V32.58C81.8855 32.7933 81.9588 32.98 82.1055 33.14C82.2655 33.2867 82.4521 33.36 82.6655 33.36H94.7855V35H80.2455Z" fill="#E69138"/>
<path d="M120.5 80C120.047 80 119.633 79.8933 119.26 79.68C118.9 79.4533 118.607 79.16 118.38 78.8C118.167 78.4267 118.06 78.02 118.06 77.58V77.26H119.72V77.58C119.72 77.7933 119.793 77.98 119.94 78.14C120.1 78.2867 120.287 78.36 120.5 78.36H130.2C130.413 78.36 130.593 78.2867 130.74 78.14C130.9 77.98 130.98 77.7933 130.98 77.58V74.24C130.98 74.0267 130.9 73.8467 130.74 73.7C130.593 73.54 130.413 73.46 130.2 73.46H120.82V71.82H129.56C129.773 71.82 129.953 71.7467 130.1 71.6C130.26 71.44 130.34 71.2533 130.34 71.04V68.02C130.34 67.8067 130.26 67.6267 130.1 67.48C129.953 67.32 129.773 67.24 129.56 67.24H120.5C120.287 67.24 120.1 67.32 119.94 67.48C119.793 67.6267 119.72 67.8067 119.72 68.02V68.54H118.06V68.02C118.06 67.5667 118.167 67.16 118.38 66.8C118.607 66.4267 118.9 66.1333 119.26 65.92C119.633 65.6933 120.047 65.58 120.5 65.58H129.56C130.013 65.58 130.42 65.6933 130.78 65.92C131.153 66.1333 131.447 66.4267 131.66 66.8C131.873 67.16 131.98 67.5667 131.98 68.02V71.04C131.98 71.2267 131.953 71.4133 131.9 71.6C131.86 71.7733 131.807 71.9333 131.74 72.08C132.073 72.4 132.3 72.7533 132.42 73.14C132.553 73.5267 132.62 73.8933 132.62 74.24V77.58C132.62 78.02 132.507 78.4267 132.28 78.8C132.067 79.16 131.773 79.4533 131.4 79.68C131.04 79.8933 130.64 80 130.2 80H120.5Z" fill="#E69138"/>
<path d="M78.56 124C78.1067 124 77.6933 123.893 77.32 123.68C76.96 123.453 76.6733 123.16 76.46 122.8C76.2467 122.427 76.14 122.02 76.14 121.58V112.02C76.14 111.567 76.2467 111.16 76.46 110.8C76.6733 110.427 76.96 110.133 77.32 109.92C77.6933 109.693 78.1067 109.58 78.56 109.58H88.16V111.24H78.56C78.3467 111.24 78.16 111.32 78 111.48C77.8533 111.627 77.78 111.807 77.78 112.02V114.9C77.78 115.113 77.8533 115.3 78 115.46C78.16 115.62 78.3467 115.7 78.56 115.7H88.26C88.7 115.7 89.1 115.807 89.46 116.02C89.8333 116.233 90.1267 116.527 90.34 116.9C90.5667 117.26 90.68 117.667 90.68 118.12V121.58C90.68 122.02 90.5667 122.427 90.34 122.8C90.1267 123.16 89.8333 123.453 89.46 123.68C89.1 123.893 88.7 124 88.26 124H78.56ZM78.56 122.36H88.26C88.4733 122.36 88.6533 122.287 88.8 122.14C88.96 121.98 89.04 121.793 89.04 121.58V118.12C89.04 117.907 88.96 117.727 88.8 117.58C88.6533 117.42 88.4733 117.34 88.26 117.34H77.78V121.58C77.78 121.793 77.8533 121.98 78 122.14C78.16 122.287 78.3467 122.36 78.56 122.36Z" fill="#E69138"/>
<path d="M34.46 80C34.1133 80 33.78 79.9333 33.46 79.8C33.1533 79.6533 32.8867 79.46 32.66 79.22C32.4333 78.9667 32.2667 78.68 32.16 78.36H44.16C44.3733 78.36 44.5533 78.2867 44.7 78.14C44.86 77.98 44.94 77.7933 44.94 77.58V74.68C44.94 74.4667 44.86 74.2867 44.7 74.14C44.5533 73.98 44.3733 73.9 44.16 73.9H34.46C34.0067 73.9 33.5933 73.7933 33.22 73.58C32.86 73.3533 32.5667 73.06 32.34 72.7C32.1267 72.3267 32.02 71.92 32.02 71.48V68.02C32.02 67.5667 32.1267 67.16 32.34 66.8C32.5667 66.4267 32.86 66.1333 33.22 65.92C33.5933 65.6933 34.0067 65.58 34.46 65.58H44.16C44.6 65.58 45 65.6933 45.36 65.92C45.7333 66.1333 46.0267 66.4267 46.24 66.8C46.4667 67.16 46.58 67.5667 46.58 68.02V77.58C46.58 78.02 46.4667 78.4267 46.24 78.8C46.0267 79.16 45.7333 79.4533 45.36 79.68C45 79.8933 44.6 80 44.16 80H34.46ZM34.46 72.26H44.94V68.02C44.94 67.8067 44.86 67.6267 44.7 67.48C44.5533 67.32 44.3733 67.24 44.16 67.24H34.46C34.2467 67.24 34.06 67.32 33.9 67.48C33.7533 67.6267 33.68 67.8067 33.68 68.02V71.48C33.68 71.6933 33.7533 71.88 33.9 72.04C34.06 72.1867 34.2467 72.26 34.46 72.26Z" fill="#E69138"/>
</svg>
